<?xml version="1.0" encoding="UTF-8" standalone="no"?>
<!-- Created with Inkscape (http://www.inkscape.org/) -->

<svg
   width="30.48mm"
   height="128.5mm"
   viewBox="0 0 30.480002 128.50002"
   version="1.1"
   id="svg8"
   inkscape:version="1.1.2 (0a00cf5339, 2022-02-04)"
   sodipodi:docname="ADSR.svg"
   xmlns:inkscape="http://www.inkscape.org/namespaces/inkscape"
   xmlns:sodipodi="http://sodipodi.sourceforge.net/DTD/sodipodi-0.dtd"
   xmlns="http://www.w3.org/2000/svg"
   xmlns:svg="http://www.w3.org/2000/svg"
   xmlns:rdf="http://www.w3.org/1999/02/22-rdf-syntax-ns#"
   xmlns:cc="http://creativecommons.org/ns#"
   xmlns:dc="http://purl.org/dc/elements/1.1/">
  <defs
     id="defs2">
    <marker
       style="overflow:visible;"
       id="Arrow2Mend"
       refX="0.0"
       refY="0.0"
       orient="auto"
       inkscape:stockid="Arrow2Mend"
       inkscape:isstock="true">
      <path
         transform="scale(0.6) rotate(180) translate(0,0)"
         d="M 8.7185878,4.0337352 L -2.2072895,0.016013256 L 8.7185884,-4.0017078 C 6.9730900,-1.6296469 6.9831476,1.6157441 8.7185878,4.0337352 z "
         style="stroke:context-stroke;fill-rule:evenodd;fill:context-stroke;stroke-width:0.62500000;stroke-linejoin:round;"
         id="path59252" />
    </marker>
    <marker
       style="overflow:visible;"
       id="Arrow1Lend"
       refX="0.0"
       refY="0.0"
       orient="auto"
       inkscape:stockid="Arrow1Lend"
       inkscape:isstock="true">
      <path
         transform="scale(0.8) rotate(180) translate(12.5,0)"
         style="fill-rule:evenodd;fill:context-stroke;stroke:context-stroke;stroke-width:1.0pt;"
         d="M 0.0,0.0 L 5.0,-5.0 L -12.5,0.0 L 5.0,5.0 L 0.0,0.0 z "
         id="path59228" />
    </marker>
    <marker
       style="overflow:visible"
       id="Arrow1Lstart"
       refX="0.0"
       refY="0.0"
       orient="auto"
       inkscape:stockid="Arrow1Lstart"
       inkscape:isstock="true">
      <path
         transform="scale(0.8) translate(12.5,0)"
         style="fill-rule:evenodd;fill:context-stroke;stroke:context-stroke;stroke-width:1.0pt"
         d="M 0.0,0.0 L 5.0,-5.0 L -12.5,0.0 L 5.0,5.0 L 0.0,0.0 z "
         id="path59225" />
    </marker>
  </defs>
  <sodipodi:namedview
     id="base"
     pagecolor="#ffffff"
     bordercolor="#666666"
     borderopacity="1.0"
     inkscape:pageopacity="0.0"
     inkscape:pageshadow="2"
     inkscape:zoom="7.9195959"
     inkscape:cx="72.983521"
     inkscape:cy="83.148181"
     inkscape:document-units="mm"
     inkscape:current-layer="layer1"
     showgrid="false"
     units="mm"
     inkscape:snap-bbox="true"
     inkscape:snap-page="true"
     inkscape:bbox-nodes="false"
     inkscape:snap-bbox-edge-midpoints="false"
     inkscape:window-width="2560"
     inkscape:window-height="1379"
     inkscape:window-x="0"
     inkscape:window-y="0"
     inkscape:window-maximized="1"
     inkscape:snap-bbox-midpoints="true"
     inkscape:snap-nodes="false"
     inkscape:pagecheckerboard="0"
     width="30.48mm"
     showguides="true"
     inkscape:guide-bbox="true"
     inkscape:lockguides="false">
    <sodipodi:guide
       position="7.62,0"
       orientation="128.5,0"
       id="guide19493" />
    <sodipodi:guide
       position="15.24,0"
       orientation="128.5,0"
       id="guide19495" />
    <sodipodi:guide
       position="22.86,0"
       orientation="128.5,0"
       id="guide19497" />
    <sodipodi:guide
       position="20.616837,7.5401774"
       orientation="0,30.48"
       id="guide19499" />
    <sodipodi:guide
       position="0,16.0625"
       orientation="0,30.48"
       id="guide19501" />
    <sodipodi:guide
       position="0,24.0938"
       orientation="0,30.48"
       id="guide19503" />
    <sodipodi:guide
       position="0,32.125"
       orientation="0,30.48"
       id="guide19505" />
    <sodipodi:guide
       position="0,40.1562"
       orientation="0,30.48"
       id="guide19507" />
    <sodipodi:guide
       position="0,48.1875"
       orientation="0,30.48"
       id="guide19509" />
    <sodipodi:guide
       position="0,56.2188"
       orientation="0,30.48"
       id="guide19511" />
    <sodipodi:guide
       position="0,64.25"
       orientation="0,30.48"
       id="guide19513" />
    <sodipodi:guide
       position="0,72.2812"
       orientation="0,30.48"
       id="guide19515" />
    <sodipodi:guide
       position="0,80.3125"
       orientation="0,30.48"
       id="guide19517" />
    <sodipodi:guide
       position="0,88.3438"
       orientation="0,30.48"
       id="guide19519" />
    <sodipodi:guide
       position="0,96.375"
       orientation="0,30.48"
       id="guide19521" />
    <sodipodi:guide
       position="0,104.406"
       orientation="0,30.48"
       id="guide19523" />
    <sodipodi:guide
       position="0,112.438"
       orientation="0,30.48"
       id="guide19525" />
    <sodipodi:guide
       position="0,120.469"
       orientation="0,30.48"
       id="guide19527" />
  </sodipodi:namedview>
  <metadata
     id="metadata5">
    <rdf:RDF>
      <cc:Work
         rdf:about="">
        <dc:format>image/svg+xml</dc:format>
        <dc:type
           rdf:resource="http://purl.org/dc/dcmitype/StillImage" />
      </cc:Work>
    </rdf:RDF>
  </metadata>
  <g
     inkscape:label="Layer 1"
     inkscape:groupmode="layer"
     id="layer1"
     transform="translate(0,-168.49998)"
     style="display:inline">
    <rect
       style="display:inline;opacity:1;vector-effect:none;fill:#e6e6e6;fill-opacity:1;fill-rule:evenodd;stroke:none;stroke-width:0.649358;stroke-linecap:butt;stroke-linejoin:miter;stroke-miterlimit:4;stroke-dasharray:none;stroke-dashoffset:0;stroke-opacity:1;paint-order:normal"
       id="rect420"
       width="30.48"
       height="128.5"
       x="5.9211732e-17"
       y="168.49997" />
    <g
       aria-label="Att"
       id="text35907"
       style="font-size:4.23333px;line-height:1.25;fill-opacity:0.9;stroke-width:0.264585">
      <path
         d="m 6.0304331,189.93139 -0.5663732,1.53582 h 1.1348135 z m -0.2356444,-0.41135 h 0.4733558 l 1.1761546,3.08612 H 7.0102174 L 6.7290979,191.81447 H 5.3379695 l -0.2811196,0.79169 H 4.6165671 Z"
         id="path59933" />
      <path
         d="m 8.1801708,189.63373 v 0.65732 h 0.7834141 v 0.29559 H 8.1801708 v 1.25677 q 0,0.28319 0.076481,0.3638 0.078548,0.0806 0.3162595,0.0806 h 0.3906735 v 0.31833 H 8.5729114 q -0.4402828,0 -0.6077143,-0.1633 -0.1674315,-0.16537 -0.1674315,-0.59945 v -1.25677 H 7.5187131 v -0.29559 h 0.2790525 v -0.65732 z"
         id="path59935" />
      <path
         d="m 9.8400167,189.63373 v 0.65732 h 0.7834143 v 0.29559 H 9.8400167 v 1.25677 q 0,0.28319 0.076481,0.3638 0.078548,0.0806 0.3162593,0.0806 h 0.390674 v 0.31833 h -0.390674 q -0.4402826,0 -0.6077141,-0.1633 -0.1674315,-0.16537 -0.1674315,-0.59945 v -1.25677 H 9.1785589 v -0.29559 h 0.2790525 v -0.65732 z"
         id="path59937" />
    </g>
    <g
       aria-label="Dec"
       id="text51881"
       style="font-size:4.23333px;line-height:1.25;fill-opacity:0.9;stroke-width:0.264585">
      <path
         d="m 4.2806707,205.82072 v 2.39985 h 0.5043616 q 0.6387201,0 0.9343091,-0.28938 0.297656,-0.28939 0.297656,-0.91364 0,-0.62012 -0.297656,-0.90744 -0.295589,-0.28939 -0.9343091,-0.28939 z m -0.4175452,-0.34313 h 0.8578281 q 0.8971021,0 1.3167143,0.37414 0.4196123,0.37207 0.4196123,1.16582 0,0.79788 -0.4216793,1.17202 -0.4216793,0.37414 -1.3146473,0.37414 H 3.8631255 Z"
         id="path59970" />
      <path
         d="m 9.0865748,207.31107 v 0.18603 h -1.748729 q 0.024805,0.39275 0.2356444,0.59945 0.2129067,0.20464 0.5911778,0.20464 0.2191079,0 0.4237464,-0.0537 0.2067056,-0.0537 0.409277,-0.16123 v 0.35966 q -0.2046385,0.0868 -0.4196122,0.13229 -0.2149738,0.0455 -0.4361488,0.0455 -0.5539708,0 -0.8784986,-0.32246 -0.3224606,-0.32246 -0.3224606,-0.8723 0,-0.56844 0.3059242,-0.90123 0.3079913,-0.33487 0.8288893,-0.33487 0.4671545,0 0.7379388,0.30179 0.2728513,0.29973 0.2728513,0.81649 z m -0.3803382,-0.11162 q -0.00413,-0.31213 -0.1756997,-0.49816 -0.1694986,-0.18604 -0.4506181,-0.18604 -0.3183266,0 -0.5105627,0.17984 -0.1901692,0.17983 -0.2191079,0.50643 z"
         id="path59972" />
      <path
         d="m 11.376873,206.33749 v 0.35553 q -0.161231,-0.0889 -0.324528,-0.13229 -0.16123,-0.0455 -0.326595,-0.0455 -0.370003,0 -0.574641,0.23565 -0.2046388,0.23358 -0.2046388,0.65732 0,0.42375 0.2046388,0.65939 0.204638,0.23358 0.574641,0.23358 0.165365,0 0.326595,-0.0434 0.163297,-0.0455 0.324528,-0.13436 v 0.3514 q -0.159164,0.0744 -0.330729,0.11162 -0.169499,0.0372 -0.361735,0.0372 -0.522965,0 -0.8309563,-0.32866 -0.3079913,-0.32866 -0.3079913,-0.88677 0,-0.56637 0.3100584,-0.8909 0.3121252,-0.32453 0.8536942,-0.32453 0.175699,0 0.343131,0.0372 0.167431,0.0351 0.324528,0.10749 z"
         id="path59974" />
    </g>
    <g
       aria-label="Sus"
       id="text58845"
       style="font-size:4.23333px;line-height:1.25;fill-opacity:0.9;stroke-width:0.264585">
      <path
         d="m 6.0614392,221.68804 v 0.40721 q -0.2377113,-0.11369 -0.448551,-0.1695 -0.2108397,-0.0558 -0.40721,-0.0558 -0.3410641,0 -0.5270991,0.13229 -0.183968,0.13229 -0.183968,0.37621 0,0.20463 0.1219563,0.31005 0.1240233,0.10336 0.4671546,0.16743 l 0.2521807,0.0517 q 0.4671546,0.0889 0.6883295,0.31419 0.223242,0.22325 0.223242,0.59945 0,0.44855 -0.3017901,0.68006 -0.299723,0.23151 -0.8805656,0.23151 -0.2191079,0 -0.4671546,-0.0496 -0.2459796,-0.0496 -0.5105627,-0.14676 v -0.42995 q 0.2542478,0.14263 0.4981604,0.21498 0.2439125,0.0723 0.4795569,0.0723 0.3576006,0 0.5519038,-0.14056 0.1943032,-0.14056 0.1943032,-0.401 0,-0.22738 -0.1405598,-0.35554 -0.1384927,-0.12816 -0.4568192,-0.19223 l -0.2542479,-0.0496 q -0.4671545,-0.093 -0.6759271,-0.29146 -0.2087726,-0.19844 -0.2087726,-0.5519 0,-0.40928 0.2873207,-0.64492 0.2893878,-0.23565 0.7958164,-0.23565 0.2170408,0 0.4423499,0.0393 0.225309,0.0393 0.4609533,0.11782 z"
         id="path59977" />
      <path
         d="m 6.8427862,223.75923 v -1.40147 h 0.3803382 v 1.387 q 0,0.32866 0.1281575,0.49403 0.1281574,0.16329 0.3844723,0.16329 0.3079913,0 0.4857581,-0.19637 0.1798338,-0.19637 0.1798338,-0.53537 v -1.31258 h 0.3803382 v 2.31511 H 8.4013461 v -0.35554 q -0.1384927,0.21084 -0.3224607,0.3142 -0.1819009,0.10128 -0.4237464,0.10128 -0.3989417,0 -0.6056472,-0.24805 -0.2067056,-0.24804 -0.2067056,-0.72553 z m 0.9570467,-1.45728 z"
         id="path59979" />
      <path
         d="m 11.040976,222.42598 v 0.35967 q -0.16123,-0.0827 -0.334863,-0.12403 -0.173633,-0.0413 -0.359668,-0.0413 -0.283186,0 -0.4258132,0.0868 -0.1405598,0.0868 -0.1405598,0.26045 0,0.13229 0.1012858,0.20877 0.1012857,0.0744 0.4072102,0.14263 l 0.130224,0.0289 q 0.405143,0.0868 0.574642,0.24598 0.171565,0.1571 0.171565,0.44029 0,0.32246 -0.256315,0.51056 -0.254247,0.1881 -0.700731,0.1881 -0.186035,0 -0.3886069,-0.0372 -0.2005044,-0.0351 -0.4237464,-0.10748 v -0.39274 q 0.2108397,0.10955 0.4154782,0.16536 0.2046381,0.0537 0.4051431,0.0537 0.268717,0 0.413411,-0.0909 0.144694,-0.093 0.144694,-0.26044 0,-0.15503 -0.10542,-0.23772 -0.103353,-0.0827 -0.456819,-0.15916 l -0.132292,-0.031 q -0.3534664,-0.0744 -0.5105626,-0.22737 -0.1570963,-0.15503 -0.1570963,-0.42375 0,-0.32659 0.2315103,-0.50436 0.2315102,-0.17777 0.6573236,-0.17777 0.21084,0 0.396875,0.031 0.186035,0.031 0.343131,0.093 z"
         id="path59981" />
    </g>
    <text
       xml:space="preserve"
       style="font-style:normal;font-weight:normal;font-size:10.5833px;line-height:1.25;font-family:sans-serif;fill:#000000;fill-opacity:1;stroke:none;stroke-width:0.264583"
       x="11.954887"
       y="222.33797"
       id="text65289"><tspan
         sodipodi:role="line"
         id="tspan65287"
         style="stroke-width:0.264583"
         x="11.954887"
         y="222.33797" /></text>
    <g
       aria-label="Rel"
       id="text67189"
       style="font-size:4.23333px;line-height:1.25;fill-opacity:0.9;stroke-width:0.264585">
      <path
         d="m 6.2237029,239.34421 q 0.1343587,0.0455 0.260449,0.19431 0.1281575,0.14883 0.2563149,0.40927 l 0.4237464,0.84336 h -0.448551 l -0.3948076,-0.79168 q -0.1529622,-0.31006 -0.297656,-0.41134 -0.1426269,-0.10129 -0.3906735,-0.10129 H 5.1777728 v 1.30431 H 4.7602276 v -3.08611 h 0.9425773 q 0.5291663,0 0.7896153,0.22117 0.260449,0.22118 0.260449,0.66766 0,0.29146 -0.1364257,0.48369 -0.1343586,0.19224 -0.3927406,0.26665 z m -1.0459301,-1.29604 v 1.09554 h 0.5250321 q 0.3017902,0 0.4547523,-0.13849 0.1550291,-0.14056 0.1550291,-0.41135 0,-0.27078 -0.1550291,-0.40721 -0.1529621,-0.13849 -0.4547523,-0.13849 z"
         id="path59997" />
      <path
         d="m 9.4751814,239.53852 v 0.18603 h -1.748729 q 0.024805,0.39274 0.2356443,0.59945 0.2129067,0.20464 0.5911779,0.20464 0.2191079,0 0.4237464,-0.0538 0.2067055,-0.0537 0.409277,-0.16123 v 0.35967 q -0.2046385,0.0868 -0.4196123,0.13229 -0.2149738,0.0455 -0.4361487,0.0455 -0.5539709,0 -0.8784986,-0.32246 -0.3224607,-0.32246 -0.3224607,-0.8723 0,-0.56844 0.3059242,-0.90124 0.3079913,-0.33486 0.8288893,-0.33486 0.4671546,0 0.7379388,0.30179 0.2728514,0.29972 0.2728514,0.81649 z M 9.0948432,239.4269 q -0.00413,-0.31213 -0.1756998,-0.49816 -0.1694985,-0.18604 -0.4506181,-0.18604 -0.3183265,0 -0.5105627,0.17983 -0.1901691,0.17984 -0.2191079,0.50643 z"
         id="path59999" />
      <path
         d="m 10.099432,237.57481 h 0.380338 v 3.21634 h -0.380338 z"
         id="path60001" />
    </g>
    <g
       aria-label="Vel
mod"
       id="text68897"
       style="font-size:4.23333px;line-height:1.25;text-align:center;text-anchor:middle;stroke-width:0.264585">
      <path
         d="m 20.897328,200.63214 -1.178222,-3.08611 h 0.436149 l 0.977717,2.59829 0.979784,-2.59829 h 0.434082 l -1.176155,3.08611 z"
         id="path59940" />
      <path
         d="m 24.632497,199.37951 v 0.18603 h -1.748729 q 0.02481,0.39274 0.235644,0.59945 0.212907,0.20464 0.591178,0.20464 0.219108,0 0.423746,-0.0538 0.206706,-0.0537 0.409277,-0.16123 v 0.35967 q -0.204638,0.0868 -0.419612,0.13229 -0.214974,0.0455 -0.436149,0.0455 -0.55397,0 -0.878498,-0.32246 -0.322461,-0.32247 -0.322461,-0.8723 0,-0.56844 0.305924,-0.90124 0.307992,-0.33486 0.82889,-0.33486 0.467154,0 0.737939,0.30179 0.272851,0.29972 0.272851,0.81649 z m -0.380338,-0.11163 q -0.0041,-0.31212 -0.1757,-0.49816 -0.169499,-0.18603 -0.450618,-0.18603 -0.318327,0 -0.510563,0.17983 -0.190169,0.17984 -0.219108,0.50643 z"
         id="path59942" />
      <path
         d="m 25.256748,197.4158 h 0.380338 v 3.21634 h -0.380338 z"
         id="path59944" />
      <path
         d="m 20.360927,204.05312 q 0.142626,-0.25632 0.341064,-0.37827 0.198437,-0.12196 0.467154,-0.12196 0.361735,0 0.558105,0.25425 0.196371,0.25218 0.196371,0.71933 v 1.39733 h -0.382406 v -1.38492 q 0,-0.3328 -0.117822,-0.49403 -0.117822,-0.16123 -0.359667,-0.16123 -0.295589,0 -0.467155,0.19637 -0.171566,0.19637 -0.171566,0.53537 v 1.30844 H 20.0426 v -1.38492 q 0,-0.33487 -0.117822,-0.49403 -0.117822,-0.16123 -0.363802,-0.16123 -0.291455,0 -0.46302,0.19844 -0.171566,0.19637 -0.171566,0.5333 v 1.30844 h -0.382405 v -2.3151 h 0.382405 v 0.35967 q 0.130225,-0.21291 0.312125,-0.31419 0.181901,-0.10129 0.432015,-0.10129 0.252181,0 0.427881,0.12816 0.177766,0.12816 0.262516,0.37207 z"
         id="path59946" />
      <path
         d="m 23.579332,203.87535 q -0.305924,0 -0.483691,0.23978 -0.177767,0.23771 -0.177767,0.65319 0,0.41548 0.1757,0.65526 0.177767,0.23771 0.485758,0.23771 0.303857,0 0.481624,-0.23978 0.177767,-0.23978 0.177767,-0.65319 0,-0.41134 -0.177767,-0.65112 -0.177767,-0.24185 -0.481624,-0.24185 z m 0,-0.32246 q 0.496094,0 0.77928,0.32246 0.283187,0.32246 0.283187,0.89297 0,0.56844 -0.283187,0.89297 -0.283186,0.32246 -0.77928,0.32246 -0.49816,0 -0.781347,-0.32246 -0.281119,-0.32453 -0.281119,-0.89297 0,-0.57051 0.281119,-0.89297 0.283187,-0.32246 0.781347,-0.32246 z"
         id="path59948" />
      <path
         d="m 26.795671,203.9601 v -1.25264 h 0.380338 v 3.21634 h -0.380338 v -0.34726 q -0.119889,0.2067 -0.303857,0.30799 -0.181901,0.0992 -0.438216,0.0992 -0.419612,0 -0.684196,-0.33487 -0.262516,-0.33486 -0.262516,-0.88056 0,-0.5457 0.262516,-0.88057 0.264584,-0.33486 0.684196,-0.33486 0.256315,0 0.438216,0.10129 0.183968,0.0992 0.303857,0.30592 z m -1.296044,0.80822 q 0,0.41961 0.171566,0.65939 0.173632,0.23771 0.475422,0.23771 0.30179,0 0.475423,-0.23771 0.173633,-0.23978 0.173633,-0.65939 0,-0.41961 -0.173633,-0.65732 -0.173633,-0.23978 -0.475423,-0.23978 -0.30179,0 -0.475422,0.23978 -0.171566,0.23771 -0.171566,0.65732 z"
         id="path59950" />
    </g>
    <g
       aria-label="Gate
"
       id="text73201"
       style="font-size:4.23333px;line-height:1.25;fill-opacity:0.9;stroke-width:0.264585">
      <path
         d="m 5.0640847,272.43865 v -0.82889 H 4.3819563 v -0.34313 h 1.0955395 v 1.32499 q -0.2418455,0.17156 -0.5333004,0.26045 -0.2914548,0.0868 -0.6221837,0.0868 -0.7234694,0 -1.1327464,-0.42168 -0.40721,-0.42374 -0.40721,-1.17822 0,-0.75654 0.40721,-1.17822 0.409277,-0.42375 1.1327464,-0.42375 0.3017901,0 0.5725744,0.0744 0.2728513,0.0744 0.5022945,0.2191 v 0.44442 q -0.2315102,-0.19637 -0.4919592,-0.29559 -0.260449,-0.0992 -0.5477697,-0.0992 -0.5663733,0 -0.8516269,0.31626 -0.2831866,0.31626 -0.2831866,0.94258 0,0.62425 0.2831866,0.94051 0.2852536,0.31626 0.8516269,0.31626 0.2211749,0 0.3948076,-0.0372 0.1736326,-0.0393 0.3121254,-0.11989 z"
         id="path60031" />
      <path
         d="m 7.2758342,271.71518 q -0.4609534,0 -0.6387202,0.10542 -0.1777668,0.10542 -0.1777668,0.35967 0,0.20257 0.1322916,0.32246 0.1343586,0.11782 0.3638017,0.11782 0.3162595,0 0.5064287,-0.22324 0.1922361,-0.22531 0.1922361,-0.59738 v -0.0848 z m 0.7586093,-0.15709 v 1.32085 H 7.6541053 v -0.3514 q -0.1302245,0.21084 -0.3245277,0.31212 -0.1943032,0.0992 -0.4754228,0.0992 -0.3555335,0 -0.5663732,-0.19844 -0.2087726,-0.2005 -0.2087726,-0.53536 0,-0.39068 0.260449,-0.58911 0.262516,-0.19844 0.781347,-0.19844 h 0.5333003 v -0.0372 q 0,-0.26251 -0.1736326,-0.40514 -0.1715657,-0.1447 -0.483691,-0.1447 -0.1984374,0 -0.3865394,0.0476 -0.1881021,0.0475 -0.3617348,0.14262 v -0.3514 q 0.2087727,-0.0806 0.4051429,-0.11988 0.1963703,-0.0414 0.3824053,-0.0414 0.5022945,0 0.7503412,0.26045 0.2480466,0.26045 0.2480466,0.78962 z"
         id="path60033" />
      <path
         d="m 9.1940616,269.90651 v 0.65732 h 0.783414 v 0.29559 h -0.783414 v 1.25677 q 0,0.28319 0.076481,0.36381 0.078548,0.0806 0.3162595,0.0806 h 0.3906735 v 0.31833 H 9.5868021 q -0.4402828,0 -0.6077143,-0.1633 -0.1674315,-0.16537 -0.1674315,-0.59945 v -1.25677 H 8.5326038 v -0.29559 h 0.2790525 v -0.65732 z"
         id="path60035" />
      <path
         d="m 12.457943,271.6263 v 0.18604 h -1.748729 q 0.0248,0.39274 0.235644,0.59944 0.212907,0.20464 0.591178,0.20464 0.219108,0 0.423746,-0.0537 0.206706,-0.0537 0.409277,-0.16123 v 0.35966 q -0.204638,0.0868 -0.419612,0.1323 -0.214974,0.0455 -0.436149,0.0455 -0.553971,0 -0.878498,-0.32246 -0.322461,-0.32246 -0.322461,-0.8723 0,-0.56844 0.305924,-0.90123 0.307991,-0.33487 0.828889,-0.33487 0.467155,0 0.737939,0.30179 0.272852,0.29973 0.272852,0.81649 z m -0.380339,-0.11162 q -0.0041,-0.31213 -0.175699,-0.49816 -0.169499,-0.18604 -0.450619,-0.18604 -0.318326,0 -0.510562,0.17984 -0.190169,0.17983 -0.219108,0.50643 z"
         id="path60037" />
    </g>
    <g
       aria-label="Retrig"
       id="text73205"
       style="font-size:4.23333px;line-height:1.25;fill-opacity:0.9;stroke-width:0.264585">
      <path
         d="m 18.413761,271.45095 q 0.134358,0.0455 0.260449,0.1943 0.128157,0.14883 0.256315,0.40928 l 0.423746,0.84336 H 18.90572 l -0.394808,-0.79168 q -0.152962,-0.31006 -0.297656,-0.41135 -0.142627,-0.10128 -0.390673,-0.10128 h -0.454752 v 1.30431 h -0.417546 v -3.08612 h 0.942578 q 0.529166,0 0.789615,0.22118 0.260449,0.22117 0.260449,0.66766 0,0.29145 -0.136426,0.48369 -0.134358,0.19224 -0.39274,0.26665 z m -1.04593,-1.29604 v 1.09553 h 0.525032 q 0.30179,0 0.454752,-0.13849 0.155029,-0.14056 0.155029,-0.41134 0,-0.27079 -0.155029,-0.40721 -0.152962,-0.13849 -0.454752,-0.13849 z"
         id="path60018" />
      <path
         d="m 21.665239,271.64525 v 0.18604 H 19.91651 q 0.02481,0.39274 0.235644,0.59944 0.212907,0.20464 0.591178,0.20464 0.219108,0 0.423747,-0.0537 0.206705,-0.0537 0.409277,-0.16123 v 0.35967 q -0.204639,0.0868 -0.419613,0.13229 -0.214973,0.0455 -0.436148,0.0455 -0.553971,0 -0.878499,-0.32246 -0.322461,-0.32246 -0.322461,-0.8723 0,-0.56844 0.305925,-0.90123 0.307991,-0.33486 0.828889,-0.33486 0.467155,0 0.737939,0.30179 0.272851,0.29972 0.272851,0.81648 z m -0.380338,-0.11162 q -0.0041,-0.31212 -0.1757,-0.49816 -0.169498,-0.18603 -0.450618,-0.18603 -0.318326,0 -0.510563,0.17983 -0.190169,0.17983 -0.219108,0.50643 z"
         id="path60020" />
      <path
         d="m 22.665694,269.92546 v 0.65733 h 0.783414 v 0.29558 h -0.783414 v 1.25677 q 0,0.28319 0.07648,0.36381 0.07855,0.0806 0.31626,0.0806 h 0.390673 v 0.31833 h -0.390673 q -0.440283,0 -0.607715,-0.1633 -0.167431,-0.16536 -0.167431,-0.59945 v -1.25677 h -0.279053 v -0.29558 h 0.279053 v -0.65733 z"
         id="path60022" />
      <path
         d="m 25.290855,270.93832 q -0.06408,-0.0372 -0.14056,-0.0537 -0.07441,-0.0186 -0.165364,-0.0186 -0.322461,0 -0.496094,0.21084 -0.171565,0.20877 -0.171565,0.60152 v 1.21956 h -0.382406 v -2.3151 h 0.382406 v 0.35966 q 0.119889,-0.21084 0.312125,-0.31212 0.192236,-0.10335 0.467155,-0.10335 0.03927,0 0.08682,0.006 0.04754,0.004 0.10542,0.0145 z"
         id="path60024" />
      <path
         d="m 25.689796,270.58279 h 0.380338 v 2.3151 h -0.380338 z m 0,-0.90124 h 0.380338 v 0.48162 h -0.380338 z"
         id="path60026" />
      <path
         d="m 28.389371,271.71347 q 0,-0.41342 -0.171565,-0.64079 -0.169499,-0.22738 -0.47749,-0.22738 -0.305924,0 -0.47749,0.22738 -0.169499,0.22737 -0.169499,0.64079 0,0.41134 0.169499,0.63872 0.171566,0.22737 0.47749,0.22737 0.307991,0 0.47749,-0.22737 0.171565,-0.22738 0.171565,-0.63872 z m 0.380338,0.8971 q 0,0.59118 -0.262516,0.8785 -0.262516,0.28938 -0.804084,0.28938 -0.200505,0 -0.378271,-0.031 -0.177767,-0.0289 -0.345199,-0.091 v -0.37001 q 0.167432,0.091 0.330729,0.13436 0.163298,0.0434 0.332796,0.0434 0.374137,0 0.560172,-0.19637 0.186035,-0.1943 0.186035,-0.58911 v -0.1881 q -0.117822,0.20464 -0.30179,0.30592 -0.183968,0.10129 -0.440283,0.10129 -0.425813,0 -0.686262,-0.32453 -0.260449,-0.32453 -0.260449,-0.85989 0,-0.53744 0.260449,-0.86197 0.260449,-0.32452 0.686262,-0.32452 0.256315,0 0.440283,0.10128 0.183968,0.10129 0.30179,0.30593 v -0.3514 h 0.380338 z"
         id="path60028" />
    </g>
    <g
       aria-label="Vel"
       id="text73209"
       style="font-size:4.23333px;line-height:1.25;fill-opacity:0.9;stroke-width:0.264585">
      <path
         d="m 5.8392304,256.81644 -1.1782216,-3.08612 h 0.4361487 l 0.9777173,2.59829 0.9797843,-2.59829 h 0.4340817 l -1.1761546,3.08612 z"
         id="path60004" />
      <path
         d="m 9.5743997,255.5638 v 0.18604 h -1.748729 q 0.024805,0.39274 0.2356444,0.59944 0.2129067,0.20464 0.5911779,0.20464 0.2191079,0 0.4237464,-0.0537 0.2067055,-0.0537 0.409277,-0.16123 v 0.35966 q -0.2046385,0.0868 -0.4196123,0.1323 -0.2149738,0.0455 -0.4361487,0.0455 -0.5539709,0 -0.8784987,-0.32246 -0.3224606,-0.32246 -0.3224606,-0.8723 0,-0.56844 0.3059242,-0.90123 0.3079913,-0.33487 0.8288893,-0.33487 0.4671545,0 0.7379388,0.30179 0.2728513,0.29973 0.2728513,0.81649 z m -0.3803382,-0.11162 q -0.00413,-0.31213 -0.1756997,-0.49816 -0.1694986,-0.18604 -0.4506181,-0.18604 -0.3183266,0 -0.5105627,0.17984 -0.1901691,0.17983 -0.2191079,0.50643 z"
         id="path60006" />
      <path
         d="m 10.198651,253.6001 h 0.380338 v 3.21634 h -0.380338 z"
         id="path60008" />
    </g>
    <text
       xml:space="preserve"
       style="font-style:normal;font-weight:normal;font-size:10.5833px;line-height:1.25;font-family:sans-serif;fill:#000000;fill-opacity:1;stroke:none;stroke-width:0.264583"
       x="-3.6755412"
       y="276.99722"
       id="text80285"><tspan
         sodipodi:role="line"
         id="tspan80283"
         style="stroke-width:0.264583"
         x="-3.6755412"
         y="276.99722" /></text>
    <rect
       id="rect80851"
       width="28.256554"
       height="15.049564"
       x="1.1117212"
       y="275.96753"
       style="fill:#1a1a1a;fill-opacity:1;stroke-width:0.364143"
       ry="2.5874724" />
    <g
       aria-label="Env"
       id="text73213"
       style="font-size:4.23333px;line-height:1.25;fill:#e6e6e6;stroke-width:0.264585">
      <path
         d="m 19.199242,286.33845 h 1.9513 v 0.3514 h -1.533755 v 0.91363 h 1.469677 v 0.3514 h -1.469677 v 1.11828 h 1.570962 v 0.3514 h -1.988507 z"
         id="path60049" />
      <path
         d="m 23.781904,288.02723 v 1.39733 h -0.380338 v -1.38493 q 0,-0.32866 -0.128157,-0.49196 -0.128158,-0.16329 -0.384473,-0.16329 -0.307991,0 -0.485758,0.19637 -0.177767,0.19637 -0.177767,0.53536 v 1.30845 h -0.382405 v -2.3151 h 0.382405 v 0.35967 q 0.136426,-0.20878 0.320394,-0.31213 0.186035,-0.10335 0.42788,-0.10335 0.398942,0 0.603581,0.24804 0.204638,0.24598 0.204638,0.72554 z"
         id="path60051" />
      <path
         d="m 24.267662,287.10946 h 0.403076 l 0.72347,1.94303 0.723469,-1.94303 h 0.403076 l -0.868163,2.3151 h -0.516764 z"
         id="path60053" />
    </g>
    <g
       aria-label="Envelope"
       id="text88103"
       style="font-size:4.23333px;line-height:1.25;fill-opacity:0.9;stroke-width:0.264585"
       transform="translate(0,0.52916667)">
      <path
         d="m 4.63807,173.40377 h 2.1476707 v 0.60151 H 5.4338864 v 0.57464 h 1.2712392 v 0.60152 H 5.4338864 v 0.70693 h 1.3973295 v 0.60151 H 4.63807 Z"
         style="font-weight:bold;-inkscape-font-specification:'sans-serif Bold'"
         id="path59953" />
      <path
         d="m 9.8243123,175.08015 v 1.40973 h -0.74414 v -0.22944 -0.84956 q 0,-0.29972 -0.014469,-0.41341 -0.012402,-0.11369 -0.045475,-0.16743 -0.043408,-0.0724 -0.1178222,-0.11162 -0.074414,-0.0413 -0.1694985,-0.0413 -0.2315102,0 -0.3638018,0.17983 -0.1322915,0.17777 -0.1322915,0.49403 v 1.13894 H 7.4968078 v -2.3151 h 0.7400059 v 0.339 q 0.1674315,-0.20257 0.3555335,-0.29766 0.1881021,-0.0971 0.4154782,-0.0971 0.4010088,0 0.6077143,0.24598 0.2087726,0.24598 0.2087726,0.7152 z"
         style="font-weight:bold;-inkscape-font-specification:'sans-serif Bold'"
         id="path59955" />
      <path
         d="m 10.21912,174.17478 h 0.740006 l 0.576708,1.5999 0.574642,-1.5999 h 0.742073 l -0.911572,2.3151 h -0.812353 z"
         style="font-weight:bold;-inkscape-font-specification:'sans-serif Bold'"
         id="path59957" />
      <path
         d="m 15.581062,175.32613 v 0.21084 h -1.730126 q 0.02687,0.26045 0.188102,0.39067 0.16123,0.13023 0.450618,0.13023 0.233577,0 0.47749,-0.0682 0.24598,-0.0703 0.504362,-0.21084 v 0.5705 q -0.262516,0.0992 -0.525033,0.14883 -0.262516,0.0517 -0.525032,0.0517 -0.628385,0 -0.977717,-0.31833 -0.347265,-0.32039 -0.347265,-0.8971 0,-0.56637 0.341064,-0.8909 0.343131,-0.32453 0.942577,-0.32453 0.545703,0 0.872298,0.32866 0.328662,0.32866 0.328662,0.8785 z m -0.760677,-0.24598 q 0,-0.21084 -0.124023,-0.339 -0.121957,-0.13022 -0.320394,-0.13022 -0.214974,0 -0.349332,0.12196 -0.134359,0.11989 -0.167432,0.34726 z"
         style="font-weight:bold;-inkscape-font-specification:'sans-serif Bold'"
         id="path59959" />
      <path
         d="m 16.141234,173.27354 h 0.740006 v 3.21634 h -0.740006 z"
         style="font-weight:bold;-inkscape-font-specification:'sans-serif Bold'"
         id="path59961" />
      <path
         d="m 18.694048,174.64814 q -0.245979,0 -0.376204,0.17776 -0.128157,0.1757 -0.128157,0.5085 0,0.3328 0.128157,0.51056 0.130225,0.1757 0.376204,0.1757 0.241846,0 0.370003,-0.1757 0.128158,-0.17776 0.128158,-0.51056 0,-0.3328 -0.128158,-0.5085 -0.128157,-0.17776 -0.370003,-0.17776 z m 0,-0.52917 q 0.597379,0 0.932242,0.32246 0.33693,0.32246 0.33693,0.89297 0,0.57051 -0.33693,0.89297 -0.334863,0.32246 -0.932242,0.32246 -0.599446,0 -0.938443,-0.32246 -0.33693,-0.32246 -0.33693,-0.89297 0,-0.57051 0.33693,-0.89297 0.338997,-0.32246 0.938443,-0.32246 z"
         style="font-weight:bold;-inkscape-font-specification:'sans-serif Bold'"
         id="path59963" />
      <path
         d="m 21.240661,176.15502 v 1.21543 h -0.740006 v -3.19567 h 0.740006 v 0.339 q 0.152962,-0.20257 0.338997,-0.29766 0.186035,-0.0971 0.42788,-0.0971 0.427881,0 0.702799,0.34106 0.274918,0.339 0.274918,0.87437 0,0.53537 -0.274918,0.87643 -0.274918,0.339 -0.702799,0.339 -0.241845,0 -0.42788,-0.0951 -0.186035,-0.0971 -0.338997,-0.29972 z m 0.491959,-1.49861 q -0.237712,0 -0.365869,0.17569 -0.12609,0.17364 -0.12609,0.5023 0,0.32866 0.12609,0.50436 0.128157,0.17363 0.365869,0.17363 0.237711,0 0.361734,-0.17363 0.126091,-0.17363 0.126091,-0.50436 0,-0.33073 -0.126091,-0.50436 -0.124023,-0.17363 -0.361734,-0.17363 z"
         style="font-weight:bold;-inkscape-font-specification:'sans-serif Bold'"
         id="path59965" />
      <path
         d="m 25.841926,175.32613 v 0.21084 H 24.1118 q 0.02687,0.26045 0.188102,0.39067 0.161231,0.13023 0.450618,0.13023 0.233578,0 0.47749,-0.0682 0.24598,-0.0703 0.504362,-0.21084 v 0.5705 q -0.262516,0.0992 -0.525032,0.14883 -0.262516,0.0517 -0.525032,0.0517 -0.628385,0 -0.977718,-0.31833 -0.347265,-0.32039 -0.347265,-0.8971 0,-0.56637 0.341064,-0.8909 0.343131,-0.32453 0.942577,-0.32453 0.545703,0 0.872298,0.32866 0.328662,0.32866 0.328662,0.8785 z m -0.760677,-0.24598 q 0,-0.21084 -0.124023,-0.339 -0.121956,-0.13022 -0.320394,-0.13022 -0.214973,0 -0.349332,0.12196 -0.134359,0.11989 -0.167432,0.34726 z"
         style="font-weight:bold;-inkscape-font-specification:'sans-serif Bold'"
         id="path59967" />
    </g>
    <g
       aria-label="Sus"
       id="text1051"
       style="font-size:4.23333px;line-height:1.25;fill-opacity:0.9;stroke-width:0.264585">
      <path
         d="m 21.301437,253.85038 v 0.40721 q -0.237712,-0.11369 -0.448551,-0.1695 -0.21084,-0.0558 -0.40721,-0.0558 -0.341064,0 -0.527099,0.13229 -0.183968,0.13229 -0.183968,0.3762 0,0.20464 0.121956,0.31006 0.124023,0.10335 0.467155,0.16743 l 0.25218,0.0517 q 0.467155,0.0889 0.68833,0.31419 0.223242,0.22324 0.223242,0.59945 0,0.44855 -0.30179,0.68006 -0.299723,0.23151 -0.880566,0.23151 -0.219108,0 -0.467154,-0.0496 -0.24598,-0.0496 -0.510563,-0.14676 v -0.42995 q 0.254248,0.14263 0.49816,0.21498 0.243913,0.0723 0.479557,0.0723 0.357601,0 0.551904,-0.14056 0.194303,-0.14056 0.194303,-0.40101 0,-0.22737 -0.14056,-0.35553 -0.138492,-0.12816 -0.456819,-0.19224 l -0.254248,-0.0496 q -0.467154,-0.093 -0.675927,-0.29145 -0.208773,-0.19844 -0.208773,-0.5519 0,-0.40928 0.287321,-0.64493 0.289388,-0.23564 0.795817,-0.23564 0.21704,0 0.442349,0.0393 0.22531,0.0393 0.460954,0.11783 z"
         id="path60011" />
      <path
         d="m 22.082784,255.92157 v -1.40147 h 0.380338 v 1.387 q 0,0.32866 0.128157,0.49402 0.128158,0.1633 0.384473,0.1633 0.307991,0 0.485758,-0.19637 0.179834,-0.19637 0.179834,-0.53537 v -1.31258 h 0.380338 v 2.31511 h -0.380338 v -0.35554 q -0.138493,0.21084 -0.322461,0.31419 -0.181901,0.10129 -0.423746,0.10129 -0.398942,0 -0.605648,-0.24805 -0.206705,-0.24804 -0.206705,-0.72553 z m 0.957047,-1.45728 z"
         id="path60013" />
      <path
         d="m 26.280974,254.58832 v 0.35966 q -0.161231,-0.0827 -0.334863,-0.12402 -0.173633,-0.0413 -0.359668,-0.0413 -0.283187,0 -0.425814,0.0868 -0.140559,0.0868 -0.140559,0.26044 0,0.1323 0.101285,0.20878 0.101286,0.0744 0.40721,0.14262 l 0.130225,0.0289 q 0.405143,0.0868 0.574641,0.24598 0.171566,0.1571 0.171566,0.44028 0,0.32247 -0.256315,0.51057 -0.254248,0.1881 -0.700732,0.1881 -0.186035,0 -0.388606,-0.0372 -0.200505,-0.0351 -0.423747,-0.10748 v -0.39274 q 0.21084,0.10955 0.415478,0.16536 0.204639,0.0537 0.405143,0.0537 0.268718,0 0.413411,-0.091 0.144694,-0.093 0.144694,-0.26045 0,-0.15503 -0.105419,-0.23771 -0.103353,-0.0827 -0.45682,-0.15916 l -0.132291,-0.031 q -0.353467,-0.0744 -0.510563,-0.22737 -0.157096,-0.15503 -0.157096,-0.42375 0,-0.32659 0.23151,-0.50436 0.23151,-0.17777 0.657324,-0.17777 0.210839,0 0.396874,0.031 0.186035,0.031 0.343132,0.093 z"
         id="path60015" />
    </g>
    <text
       xml:space="preserve"
       style="font-style:normal;font-weight:normal;font-size:10.5833px;line-height:1.25;font-family:sans-serif;fill:#000000;fill-opacity:1;stroke:none;stroke-width:0.264583"
       x="-18.465246"
       y="239.39552"
       id="text24631"><tspan
         sodipodi:role="line"
         id="tspan24629"
         style="stroke-width:0.264583"
         x="-18.465246"
         y="239.39552" /></text>
    <g
       aria-label="S-Gt"
       id="text24797"
       style="font-size:4.23333px;line-height:1.25;fill:#e6e6e6;stroke-width:0.264585">
      <path
         d="m 5.1415994,286.40616 v 0.40721 q -0.2377114,-0.11369 -0.4485511,-0.1695 -0.2108396,-0.0558 -0.4072099,-0.0558 -0.3410642,0 -0.5270992,0.1323 -0.1839679,0.13229 -0.1839679,0.3762 0,0.20464 0.1219563,0.31006 0.1240233,0.10335 0.4671545,0.16743 l 0.2521808,0.0517 q 0.4671545,0.0889 0.6883295,0.31419 0.223242,0.22324 0.223242,0.59944 0,0.44856 -0.3017901,0.68007 -0.2997231,0.23151 -0.8805657,0.23151 -0.2191079,0 -0.4671545,-0.0496 -0.2459797,-0.0496 -0.5105628,-0.14676 v -0.42995 q 0.2542479,0.14262 0.4981604,0.21497 0.2439126,0.0724 0.4795569,0.0724 0.3576006,0 0.5519038,-0.14056 0.1943033,-0.14056 0.1943033,-0.40101 0,-0.22738 -0.1405598,-0.35553 -0.1384927,-0.12816 -0.4568193,-0.19224 l -0.2542478,-0.0496 q -0.4671546,-0.093 -0.6759272,-0.29145 -0.2087726,-0.19844 -0.2087726,-0.55191 0,-0.40927 0.2873207,-0.64492 0.2893878,-0.23564 0.7958164,-0.23564 0.2170408,0 0.4423499,0.0393 0.2253091,0.0393 0.4609534,0.11782 z"
         id="path60040" />
      <path
         d="m 5.7699842,288.06187 h 1.114143 v 0.339 h -1.114143 z"
         id="path60042" />
      <path
         d="m 9.7656025,288.95071 v -0.82889 H 9.0834742 v -0.34313 h 1.0955398 v 1.32498 q -0.2418459,0.17157 -0.5333007,0.26045 -0.2914549,0.0868 -0.6221838,0.0868 -0.7234694,0 -1.1327464,-0.42168 -0.4072099,-0.42375 -0.4072099,-1.17823 0,-0.75654 0.4072099,-1.17822 0.409277,-0.42374 1.1327464,-0.42374 0.3017902,0 0.5725744,0.0744 0.2728514,0.0744 0.5022941,0.21911 v 0.44442 q -0.2315098,-0.19637 -0.4919588,-0.29559 -0.260449,-0.0992 -0.5477697,-0.0992 -0.5663732,0 -0.8516269,0.31626 -0.2831866,0.31626 -0.2831866,0.94257 0,0.62426 0.2831866,0.94052 0.2852537,0.31625 0.8516269,0.31625 0.2211749,0 0.3948076,-0.0372 0.1736327,-0.0393 0.3121254,-0.11989 z"
         id="path60044" />
      <path
         d="m 11.301425,286.41857 v 0.65732 h 0.783414 v 0.29559 h -0.783414 v 1.25677 q 0,0.28318 0.07648,0.3638 0.07855,0.0806 0.31626,0.0806 h 0.390673 v 0.31833 h -0.390673 q -0.440283,0 -0.607715,-0.1633 -0.167431,-0.16536 -0.167431,-0.59944 v -1.25677 h -0.279053 v -0.29559 h 0.279053 v -0.65732 z"
         id="path60046" />
    </g>
    <text
       xml:space="preserve"
       style="font-style:normal;font-weight:normal;font-size:10.5833px;line-height:1.25;font-family:sans-serif;fill:#000000;fill-opacity:1;stroke:none;stroke-width:0.264583"
       x="-8.2293472"
       y="291.03128"
       id="text36741"><tspan
         sodipodi:role="line"
         id="tspan36739"
         style="stroke-width:0.264583"
         x="-8.2293472"
         y="291.03128" /></text>
    <g
       aria-label="Sus
mod"
       id="text39497"
       style="font-size:4.23333px;line-height:1.25;text-align:center;text-anchor:middle;stroke-width:0.264585">
      <path
         d="m 21.33761,229.69648 v 0.40721 q -0.237711,-0.11369 -0.448551,-0.1695 -0.210839,-0.0558 -0.40721,-0.0558 -0.341064,0 -0.527099,0.13229 -0.183968,0.13229 -0.183968,0.3762 0,0.20464 0.121957,0.31006 0.124023,0.10335 0.467154,0.16743 l 0.252181,0.0517 q 0.467154,0.0889 0.688329,0.31419 0.223242,0.22324 0.223242,0.59945 0,0.44855 -0.30179,0.68006 -0.299723,0.23151 -0.880565,0.23151 -0.219108,0 -0.467155,-0.0496 -0.24598,-0.0496 -0.510563,-0.14676 v -0.42995 q 0.254248,0.14263 0.498161,0.21498 0.243912,0.0723 0.479557,0.0723 0.3576,0 0.551903,-0.14056 0.194304,-0.14056 0.194304,-0.40101 0,-0.22737 -0.14056,-0.35553 -0.138493,-0.12816 -0.456819,-0.19224 l -0.254248,-0.0496 q -0.467155,-0.093 -0.675927,-0.29145 -0.208773,-0.19844 -0.208773,-0.5519 0,-0.40928 0.287321,-0.64493 0.289387,-0.23564 0.795816,-0.23564 0.217041,0 0.44235,0.0393 0.225309,0.0393 0.460953,0.11783 z"
         id="path59984" />
      <path
         d="m 22.118957,231.76767 v -1.40147 h 0.380339 v 1.387 q 0,0.32866 0.128157,0.49402 0.128157,0.1633 0.384472,0.1633 0.307992,0 0.485758,-0.19637 0.179834,-0.19637 0.179834,-0.53537 v -1.31258 h 0.380338 v 2.3151 h -0.380338 v -0.35553 q -0.138492,0.21084 -0.32246,0.31419 -0.181901,0.10129 -0.423747,0.10129 -0.398942,0 -0.605647,-0.24805 -0.206706,-0.24804 -0.206706,-0.72553 z m 0.957047,-1.45728 z"
         id="path59986" />
      <path
         d="m 26.317147,230.43442 v 0.35966 q -0.16123,-0.0827 -0.334863,-0.12402 -0.173633,-0.0413 -0.359668,-0.0413 -0.283186,0 -0.425813,0.0868 -0.14056,0.0868 -0.14056,0.26044 0,0.1323 0.101286,0.20878 0.101286,0.0744 0.40721,0.14262 l 0.130224,0.0289 q 0.405143,0.0868 0.574642,0.24598 0.171565,0.1571 0.171565,0.44028 0,0.32247 -0.256315,0.51057 -0.254247,0.1881 -0.700731,0.1881 -0.186035,0 -0.388607,-0.0372 -0.200504,-0.0351 -0.423746,-0.10748 v -0.39274 q 0.210839,0.10955 0.415478,0.16536 0.204638,0.0537 0.405143,0.0537 0.268717,0 0.413411,-0.0909 0.144694,-0.093 0.144694,-0.26045 0,-0.15503 -0.10542,-0.23771 -0.103353,-0.0827 -0.456819,-0.15916 l -0.132292,-0.031 q -0.353466,-0.0744 -0.510563,-0.22737 -0.157096,-0.15503 -0.157096,-0.42375 0,-0.32659 0.23151,-0.50436 0.231511,-0.17777 0.657324,-0.17777 0.21084,0 0.396875,0.031 0.186035,0.031 0.343131,0.093 z"
         id="path59988" />
      <path
         d="m 20.360927,236.10228 q 0.142626,-0.25631 0.341064,-0.37827 0.198437,-0.12196 0.467154,-0.12196 0.361735,0 0.558105,0.25425 0.196371,0.25218 0.196371,0.71934 v 1.39733 h -0.382406 v -1.38493 q 0,-0.3328 -0.117822,-0.49403 -0.117822,-0.16123 -0.359667,-0.16123 -0.295589,0 -0.467155,0.19637 -0.171566,0.19637 -0.171566,0.53537 v 1.30845 H 20.0426 v -1.38493 q 0,-0.33486 -0.117822,-0.49403 -0.117822,-0.16123 -0.363802,-0.16123 -0.291455,0 -0.46302,0.19844 -0.171566,0.19637 -0.171566,0.5333 v 1.30845 h -0.382405 v -2.31511 h 0.382405 v 0.35967 q 0.130225,-0.2129 0.312125,-0.31419 0.181901,-0.10129 0.432015,-0.10129 0.252181,0 0.427881,0.12816 0.177766,0.12816 0.262516,0.37207 z"
         id="path59990" />
      <path
         d="m 23.579332,235.92452 q -0.305924,0 -0.483691,0.23977 -0.177767,0.23771 -0.177767,0.65319 0,0.41548 0.1757,0.65526 0.177767,0.23771 0.485758,0.23771 0.303857,0 0.481624,-0.23978 0.177767,-0.23978 0.177767,-0.65319 0,-0.41134 -0.177767,-0.65112 -0.177767,-0.24184 -0.481624,-0.24184 z m 0,-0.32247 q 0.496094,0 0.77928,0.32247 0.283187,0.32246 0.283187,0.89296 0,0.56844 -0.283187,0.89297 -0.283186,0.32246 -0.77928,0.32246 -0.49816,0 -0.781347,-0.32246 -0.281119,-0.32453 -0.281119,-0.89297 0,-0.5705 0.281119,-0.89296 0.283187,-0.32247 0.781347,-0.32247 z"
         id="path59992" />
      <path
         d="m 26.795671,236.00926 v -1.25263 h 0.380338 v 3.21634 h -0.380338 v -0.34727 q -0.119889,0.20671 -0.303857,0.30799 -0.181901,0.0992 -0.438216,0.0992 -0.419612,0 -0.684196,-0.33486 -0.262516,-0.33486 -0.262516,-0.88057 0,-0.5457 0.262516,-0.88056 0.264584,-0.33487 0.684196,-0.33487 0.256315,0 0.438216,0.10129 0.183968,0.0992 0.303857,0.30592 z m -1.296044,0.80822 q 0,0.41962 0.171566,0.65939 0.173632,0.23772 0.475422,0.23772 0.30179,0 0.475423,-0.23772 0.173633,-0.23977 0.173633,-0.65939 0,-0.41961 -0.173633,-0.65732 -0.173633,-0.23978 -0.475423,-0.23978 -0.30179,0 -0.475422,0.23978 -0.171566,0.23771 -0.171566,0.65732 z"
         id="path59994" />
    </g>
    <path
       style="fill:#000000;fill-opacity:0.9;stroke:#000000;stroke-width:0.265;stroke-linecap:round;stroke-linejoin:miter;stroke-miterlimit:4;stroke-dasharray:none;stroke-opacity:1"
       d="m 22.862261,245.64037 -0.0045,-6.59965"
       id="path58833"
       sodipodi:nodetypes="cc" />
    <path
       style="fill:none;stroke:#000000;stroke-width:0.264583px;stroke-linecap:round;stroke-linejoin:round;stroke-opacity:1;marker-end:url(#Arrow2Mend)"
       d="m 22.861999,220.88581 v -4.25084 h -7.656796"
       id="path59223" />
  </g>
  <g
     inkscape:groupmode="layer"
     id="layer2"
     inkscape:label="components"
     style="display:inline">
    <circle
       style="display:inline;opacity:1;vector-effect:none;fill:#ff0000;fill-opacity:1;fill-rule:evenodd;stroke:none;stroke-width:0.643563;stroke-linecap:butt;stroke-linejoin:miter;stroke-miterlimit:4;stroke-dasharray:none;stroke-dashoffset:0;stroke-opacity:1;paint-order:normal"
       id="path4954"
       cx="7.6199989"
       cy="16.062016"
       r="2.5742509"
       inkscape:label="A" />
    <circle
       r="2.5742495"
       cy="96.375008"
       cx="7.6199989"
       id="circle4956"
       style="display:inline;opacity:1;vector-effect:none;fill:#00ff00;fill-opacity:1;fill-rule:evenodd;stroke:none;stroke-width:0.643562;stroke-linecap:butt;stroke-linejoin:miter;stroke-miterlimit:4;stroke-dasharray:none;stroke-dashoffset:0;stroke-opacity:1;paint-order:normal"
       inkscape:label="gate" />
    <circle
       style="display:inline;opacity:1;vector-effect:none;fill:#0000ff;fill-opacity:1;fill-rule:evenodd;stroke:none;stroke-width:0.511551;stroke-linecap:butt;stroke-linejoin:miter;stroke-miterlimit:4;stroke-dasharray:none;stroke-dashoffset:0;stroke-opacity:1;paint-order:normal"
       id="circle4958"
       cx="22.859997"
       cy="112.4375"
       r="2.0462041"
       inkscape:label="env" />
    <circle
       style="display:inline;opacity:1;vector-effect:none;fill:#ff0000;fill-opacity:1;fill-rule:evenodd;stroke:none;stroke-width:0.551153;stroke-linecap:butt;stroke-linejoin:miter;stroke-miterlimit:4;stroke-dasharray:none;stroke-dashoffset:0;stroke-opacity:1;paint-order:normal"
       id="circle18798"
       cx="7.6199989"
       cy="32.125011"
       r="2.2046132"
       inkscape:label="D" />
    <circle
       style="display:inline;opacity:1;vector-effect:none;fill:#ff0000;fill-opacity:1;fill-rule:evenodd;stroke:none;stroke-width:0.524751;stroke-linecap:butt;stroke-linejoin:miter;stroke-miterlimit:4;stroke-dasharray:none;stroke-dashoffset:0;stroke-opacity:1;paint-order:normal"
       id="circle18800"
       cx="7.6199989"
       cy="48.187511"
       r="2.0990024"
       inkscape:label="S" />
    <circle
       style="display:inline;opacity:1;vector-effect:none;fill:#ff0000;fill-opacity:1;fill-rule:evenodd;stroke:none;stroke-width:0.603959;stroke-linecap:butt;stroke-linejoin:miter;stroke-miterlimit:4;stroke-dasharray:none;stroke-dashoffset:0;stroke-opacity:1;paint-order:normal"
       id="circle18802"
       cx="7.6199989"
       cy="64.250008"
       r="2.4158347"
       inkscape:label="R" />
    <circle
       r="2.4686358"
       cy="96.375008"
       cx="22.859997"
       id="circle18804"
       style="display:inline;opacity:1;vector-effect:none;fill:#00ff00;fill-opacity:1;fill-rule:evenodd;stroke:none;stroke-width:0.617159;stroke-linecap:butt;stroke-linejoin:miter;stroke-miterlimit:4;stroke-dasharray:none;stroke-dashoffset:0;stroke-opacity:1;paint-order:normal"
       inkscape:label="retrig" />
    <circle
       r="2.5214543"
       cy="80.312508"
       cx="7.6199989"
       id="circle18806"
       style="display:inline;opacity:1;vector-effect:none;fill:#00ff00;fill-opacity:1;fill-rule:evenodd;stroke:none;stroke-width:0.630364;stroke-linecap:butt;stroke-linejoin:miter;stroke-miterlimit:4;stroke-dasharray:none;stroke-dashoffset:0;stroke-opacity:1;paint-order:normal"
       inkscape:label="vel" />
    <circle
       style="display:inline;opacity:1;vector-effect:none;fill:#ff0000;fill-opacity:1;fill-rule:evenodd;stroke:none;stroke-width:0.524751;stroke-linecap:butt;stroke-linejoin:miter;stroke-miterlimit:4;stroke-dasharray:none;stroke-dashoffset:0;stroke-opacity:1;paint-order:normal"
       id="circle18808"
       cx="22.859997"
       cy="24.094013"
       r="2.0990052"
       inkscape:label="velScale" />
    <circle
       r="2.4686358"
       cy="80.312508"
       cx="22.859997"
       id="circle1047"
       style="display:inline;opacity:1;vector-effect:none;fill:#00ff00;fill-opacity:1;fill-rule:evenodd;stroke:none;stroke-width:0.617159;stroke-linecap:butt;stroke-linejoin:miter;stroke-miterlimit:4;stroke-dasharray:none;stroke-dashoffset:0;stroke-opacity:1;paint-order:normal"
       inkscape:label="susMod" />
    <circle
       style="display:inline;opacity:1;vector-effect:none;fill:#0000ff;fill-opacity:1;fill-rule:evenodd;stroke:none;stroke-width:0.511551;stroke-linecap:butt;stroke-linejoin:miter;stroke-miterlimit:4;stroke-dasharray:none;stroke-dashoffset:0;stroke-opacity:1;paint-order:normal"
       id="circle24793"
       cx="7.6199989"
       cy="112.4375"
       r="2.0462041"
       inkscape:label="sGate" />
    <circle
       style="display:inline;opacity:1;vector-effect:none;fill:#ff0000;fill-opacity:1;fill-rule:evenodd;stroke:none;stroke-width:0.524751;stroke-linecap:butt;stroke-linejoin:miter;stroke-miterlimit:4;stroke-dasharray:none;stroke-dashoffset:0;stroke-opacity:1;paint-order:normal"
       id="circle39493"
       cx="22.859997"
       cy="56.218811"
       r="2.0990052"
       inkscape:label="susMod" />
  </g>
</svg>
