<?xml version="1.0" encoding="UTF-8" standalone="no"?>
<!-- Created with Inkscape (http://www.inkscape.org/) -->

<svg
   sodipodi:docname="Last-dark.svg"
   inkscape:version="1.1.2 (0a00cf5339, 2022-02-04)"
   id="svg8"
   version="1.1"
   viewBox="0 0 15.240001 128.50002"
   height="128.5mm"
   width="15.24mm"
   xmlns:inkscape="http://www.inkscape.org/namespaces/inkscape"
   xmlns:sodipodi="http://sodipodi.sourceforge.net/DTD/sodipodi-0.dtd"
   xmlns="http://www.w3.org/2000/svg"
   xmlns:svg="http://www.w3.org/2000/svg"
   xmlns:rdf="http://www.w3.org/1999/02/22-rdf-syntax-ns#"
   xmlns:cc="http://creativecommons.org/ns#"
   xmlns:dc="http://purl.org/dc/elements/1.1/">
  <defs
     id="defs2">
    <marker
       style="overflow:visible"
       id="Arrow2Mend"
       refX="0"
       refY="0"
       orient="auto"
       inkscape:stockid="Arrow2Mend"
       inkscape:isstock="true">
      <path
         transform="scale(-0.6)"
         d="M 8.7185878,4.0337352 -2.2072895,0.01601326 8.7185884,-4.0017078 c -1.7454984,2.3720609 -1.7354408,5.6174519 -6e-7,8.035443 z"
         style="fill:context-stroke;fill-rule:evenodd;stroke:context-stroke;stroke-width:0.625;stroke-linejoin:round"
         id="path59252" />
    </marker>
    <marker
       style="overflow:visible"
       id="Arrow1Lend"
       refX="0"
       refY="0"
       orient="auto"
       inkscape:stockid="Arrow1Lend"
       inkscape:isstock="true">
      <path
         transform="matrix(-0.8,0,0,-0.8,-10,0)"
         style="fill:context-stroke;fill-rule:evenodd;stroke:context-stroke;stroke-width:1pt"
         d="M 0,0 5,-5 -12.5,0 5,5 Z"
         id="path59228" />
    </marker>
    <marker
       style="overflow:visible"
       id="Arrow1Lstart"
       refX="0"
       refY="0"
       orient="auto"
       inkscape:stockid="Arrow1Lstart"
       inkscape:isstock="true">
      <path
         transform="matrix(0.8,0,0,0.8,10,0)"
         style="fill:context-stroke;fill-rule:evenodd;stroke:context-stroke;stroke-width:1pt"
         d="M 0,0 5,-5 -12.5,0 5,5 Z"
         id="path59225" />
    </marker>
  </defs>
  <sodipodi:namedview
     id="base"
     pagecolor="#ffffff"
     bordercolor="#666666"
     borderopacity="1.0"
     inkscape:pageopacity="0.0"
     inkscape:pageshadow="2"
     inkscape:zoom="2"
     inkscape:cx="-0.5"
     inkscape:cy="206.75"
     inkscape:document-units="mm"
     inkscape:current-layer="layer1"
     showgrid="false"
     units="mm"
     inkscape:snap-bbox="true"
     inkscape:snap-page="true"
     inkscape:bbox-nodes="false"
     inkscape:snap-bbox-edge-midpoints="false"
     inkscape:window-width="2560"
     inkscape:window-height="1379"
     inkscape:window-x="0"
     inkscape:window-y="0"
     inkscape:window-maximized="1"
     inkscape:snap-bbox-midpoints="true"
     inkscape:snap-nodes="false"
     inkscape:pagecheckerboard="0"
     width="15.24mm"
     showguides="true"
     inkscape:guide-bbox="true"
     inkscape:lockguides="false">
    <sodipodi:guide
       position="7.62,0"
       orientation="128.5,0"
       id="guide19493" />
    <sodipodi:guide
       position="15.24,0"
       orientation="128.5,0"
       id="guide19495" />
    <sodipodi:guide
       position="22.86,0"
       orientation="128.5,0"
       id="guide19497" />
    <sodipodi:guide
       position="20.616837,7.5401774"
       orientation="0,30.48"
       id="guide19499" />
    <sodipodi:guide
       position="0,16.0625"
       orientation="0,30.48"
       id="guide19501" />
    <sodipodi:guide
       position="0,24.0938"
       orientation="0,30.48"
       id="guide19503" />
    <sodipodi:guide
       position="0,32.125"
       orientation="0,30.48"
       id="guide19505" />
    <sodipodi:guide
       position="0,40.1562"
       orientation="0,30.48"
       id="guide19507" />
    <sodipodi:guide
       position="0,48.1875"
       orientation="0,30.48"
       id="guide19509" />
    <sodipodi:guide
       position="0,56.2188"
       orientation="0,30.48"
       id="guide19511" />
    <sodipodi:guide
       position="0,64.25"
       orientation="0,30.48"
       id="guide19513" />
    <sodipodi:guide
       position="0,72.2812"
       orientation="0,30.48"
       id="guide19515" />
    <sodipodi:guide
       position="0,80.3125"
       orientation="0,30.48"
       id="guide19517" />
    <sodipodi:guide
       position="0,88.3438"
       orientation="0,30.48"
       id="guide19519" />
    <sodipodi:guide
       position="0,96.375"
       orientation="0,30.48"
       id="guide19521" />
    <sodipodi:guide
       position="0,104.406"
       orientation="0,30.48"
       id="guide19523" />
    <sodipodi:guide
       position="0,112.438"
       orientation="0,30.48"
       id="guide19525" />
    <sodipodi:guide
       position="0,120.469"
       orientation="0,30.48"
       id="guide19527" />
  </sodipodi:namedview>
  <metadata
     id="metadata5">
    <rdf:RDF>
      <cc:Work
         rdf:about="">
        <dc:format>image/svg+xml</dc:format>
        <dc:type
           rdf:resource="http://purl.org/dc/dcmitype/StillImage" />
      </cc:Work>
    </rdf:RDF>
  </metadata>
  <g
     inkscape:label="Layer 1"
     inkscape:groupmode="layer"
     id="layer1"
     transform="translate(0,-168.49998)"
     style="display:inline">
    <rect
       style="display:inline;opacity:1;vector-effect:none;fill:#191919;fill-opacity:1;fill-rule:evenodd;stroke:none;stroke-width:0.459165;stroke-linecap:butt;stroke-linejoin:miter;stroke-miterlimit:4;stroke-dasharray:none;stroke-dashoffset:0;stroke-opacity:1;paint-order:normal"
       id="rect420"
       width="15.239998"
       height="128.5"
       x="4.3130047e-08"
       y="168.49998" />
    <text
       xml:space="preserve"
       style="font-style:normal;font-weight:normal;font-size:10.5833px;line-height:1.25;font-family:sans-serif;fill:#ffffff;fill-opacity:1;stroke:none;stroke-width:0.264583"
       x="11.954887"
       y="222.33797"
       id="text65289"><tspan
         sodipodi:role="line"
         id="tspan65287"
         style="stroke-width:0.264583"
         x="11.954887"
         y="222.33797" /></text>
    <text
       xml:space="preserve"
       style="font-style:normal;font-weight:normal;font-size:10.5833px;line-height:1.25;font-family:sans-serif;fill:#ffffff;fill-opacity:1;stroke:none;stroke-width:0.264583"
       x="-3.6755412"
       y="276.99722"
       id="text80285"><tspan
         sodipodi:role="line"
         id="tspan80283"
         style="stroke-width:0.264583"
         x="-3.6755412"
         y="276.99722" /></text>
    <rect
       id="rect80851"
       width="13.240591"
       height="15.404287"
       x="0.99970347"
       y="275.61279"
       style="fill:#e5e5e5;fill-opacity:1;stroke-width:0.252188"
       ry="2.1133845" />
    <text
       xml:space="preserve"
       style="font-style:normal;font-weight:normal;font-size:10.5833px;line-height:1.25;font-family:sans-serif;fill:#ffffff;fill-opacity:1;stroke:none;stroke-width:0.264583"
       x="-18.465246"
       y="239.39552"
       id="text24631"><tspan
         sodipodi:role="line"
         id="tspan24629"
         style="stroke-width:0.264583"
         x="-18.465246"
         y="239.39552" /></text>
    <text
       xml:space="preserve"
       style="font-style:normal;font-weight:normal;font-size:10.5833px;line-height:1.25;font-family:sans-serif;fill:#ffffff;fill-opacity:1;stroke:none;stroke-width:0.264583"
       x="-8.2293472"
       y="291.03128"
       id="text36741"><tspan
         sodipodi:role="line"
         id="tspan36739"
         style="stroke-width:0.264583"
         x="-8.2293472"
         y="291.03128" /></text>
    <text
       xml:space="preserve"
       style="font-size:4.5861px;line-height:1.25;font-family:sans-serif;stroke-width:0.264583"
       x="-46.432713"
       y="171.27922"
       id="text30865"><tspan
         sodipodi:role="line"
         id="tspan30863"
         style="stroke-width:0.264583"
         x="-46.432713"
         y="171.27922" /></text>
    <text
       xml:space="preserve"
       style="font-size:4.5861px;line-height:1.25;font-family:sans-serif;stroke-width:0.264583"
       x="-7.3879061"
       y="174.43088"
       id="text42867"><tspan
         sodipodi:role="line"
         id="tspan42865"
         style="stroke-width:0.264583"
         x="-7.3879061"
         y="174.43088" /></text>
    <text
       xml:space="preserve"
       style="font-size:4.5861px;line-height:1.25;font-family:sans-serif;stroke-width:0.264583"
       x="49.93232"
       y="269.05331"
       id="text14934"><tspan
         sodipodi:role="line"
         id="tspan14932"
         style="stroke-width:0.264583" /></text>
    <g
       aria-label="MUS-X"
       id="text38608"
       style="font-style:italic;font-weight:bold;font-size:2.82222px;line-height:1.25;-inkscape-font-specification:'sans-serif Bold Italic';display:inline;stroke-width:0.264583;fill:#e5e5e5;fill-opacity:1"
       transform="translate(-7.812235,-37.295465)">
      <path
         d="m 10.684896,293.10906 h 0.675238 l 0.248047,1.10106 0.691775,-1.10106 h 0.67386 l -0.412033,2.05741 h -0.501606 l 0.300412,-1.50481 -0.695908,1.10932 h -0.336242 l -0.25218,-1.10932 -0.300412,1.50481 h -0.502984 z"
         id="path53546"
         style="fill:#e5e5e5;fill-opacity:1" />
      <path
         d="m 13.493336,293.10906 h 0.530544 l -0.246668,1.23335 q -0.05099,0.25493 0.0096,0.36518 0.06201,0.10886 0.250803,0.10886 0.190169,0 0.294899,-0.10886 0.106109,-0.11025 0.157097,-0.36518 l 0.246668,-1.23335 h 0.530545 l -0.246669,1.23335 q -0.08819,0.43683 -0.350021,0.65043 -0.261827,0.2136 -0.711068,0.2136 -0.447862,0 -0.62425,-0.2136 -0.176389,-0.2136 -0.08819,-0.65043 z"
         id="path53548"
         style="fill:#e5e5e5;fill-opacity:1" />
      <path
         d="m 17.203012,293.17383 -0.08682,0.43546 q -0.15434,-0.0758 -0.308681,-0.11438 -0.152962,-0.0386 -0.296278,-0.0386 -0.190169,0 -0.292143,0.0524 -0.100597,0.0524 -0.122646,0.16261 -0.01654,0.0827 0.03583,0.12954 0.05237,0.0455 0.206706,0.0786 l 0.216352,0.0455 q 0.329351,0.0689 0.445106,0.20946 0.117133,0.14056 0.06615,0.39963 -0.0689,0.34038 -0.304546,0.50712 -0.234266,0.16537 -0.649055,0.16537 -0.195682,0 -0.385851,-0.0372 -0.188791,-0.0372 -0.370692,-0.11024 l 0.08957,-0.44787 q 0.17501,0.10474 0.348643,0.15848 0.173633,0.0524 0.344509,0.0524 0.173633,0 0.276986,-0.0579 0.104731,-0.0579 0.125401,-0.16537 0.01929,-0.0965 -0.03307,-0.14883 -0.05099,-0.0524 -0.230132,-0.0937 l -0.197059,-0.0455 q -0.2949,-0.0661 -0.409277,-0.21084 -0.112999,-0.14469 -0.06477,-0.38998 0.06201,-0.3073 0.293522,-0.47267 0.23151,-0.16536 0.60358,-0.16536 0.169499,0 0.343132,0.0262 0.17501,0.0248 0.355533,0.0758 z"
         id="path53550"
         style="fill:#e5e5e5;fill-opacity:1" />
      <path
         d="m 17.502046,294.15362 h 0.865407 l -0.07993,0.401 h -0.865408 z"
         id="path53552"
         style="fill:#e5e5e5;fill-opacity:1" />
      <path
         d="m 19.702771,294.11641 0.504361,1.05006 H 19.65454 l -0.340376,-0.7028 -0.61736,0.7028 h -0.555349 l 0.923285,-1.05006 -0.483691,-1.00735 h 0.553971 l 0.316948,0.66284 0.58291,-0.66284 h 0.556727 z"
         id="path53554"
         style="fill:#e5e5e5;fill-opacity:1" />
    </g>
    <g
       aria-label="Out"
       id="text24937"
       style="font-size:4.23333px;line-height:1.25;fill:#1a1a1a;stroke-width:0.264583">
      <path
         d="m 5.3824114,286.61034 q -0.4547523,0 -0.7234695,0.339 -0.2666501,0.339 -0.2666501,0.92397 0,0.58291 0.2666501,0.92191 0.2687172,0.339 0.7234695,0.339 0.4547522,0 0.7193353,-0.339 0.2666502,-0.339 0.2666502,-0.92191 0,-0.58497 -0.2666502,-0.92397 -0.2645831,-0.339 -0.7193353,-0.339 z m 0,-0.339 q 0.6490554,0 1.0376619,0.43615 0.3886064,0.43408 0.3886064,1.16582 0,0.72967 -0.3886064,1.16582 -0.3886065,0.43408 -1.0376619,0.43408 -0.6511225,0 -1.041796,-0.43408 -0.3886065,-0.43408 -0.3886065,-1.16582 0,-0.73174 0.3886065,-1.16582 0.3906735,-0.43615 1.041796,-0.43615 z"
         id="path31797" />
      <path
         d="m 7.4060587,288.49963 v -1.40146 h 0.3803382 v 1.38699 q 0,0.32866 0.1281574,0.49403 0.1281575,0.16329 0.3844724,0.16329 0.3079913,0 0.485758,-0.19637 0.1798339,-0.19637 0.1798339,-0.53536 v -1.31258 h 0.3803382 v 2.3151 H 8.9646186 v -0.35553 q -0.1384928,0.21084 -0.3224607,0.31419 -0.1819009,0.10128 -0.4237464,0.10128 -0.3989417,0 -0.6056473,-0.24804 -0.2067055,-0.24805 -0.2067055,-0.72554 z m 0.9570467,-1.45727 z"
         id="path31799" />
      <path
         d="m 10.504575,286.44084 v 0.65733 h 0.783414 v 0.29559 h -0.783414 v 1.25677 q 0,0.28318 0.07648,0.3638 0.07855,0.0806 0.316259,0.0806 h 0.390674 v 0.31833 h -0.390674 q -0.440282,0 -0.607714,-0.1633 -0.167431,-0.16536 -0.167431,-0.59944 v -1.25677 H 9.8431171 v -0.29559 H 10.12217 v -0.65733 z"
         id="path31801" />
    </g>
    <g
       aria-label="Last"
       id="text4522"
       style="display:inline;font-weight:bold;font-size:4.93889px;line-height:1.25;-inkscape-font-specification:'sans-serif Bold';stroke-width:0.264583;fill:#e5e5e5;fill-opacity:1"
       transform="translate(0,168.49998)">
      <path
         d="m 2.0131047,6.1958136 h 0.9284535 v 2.898704 h 1.6302195 v 0.7017661 h -2.558673 z"
         id="path13253"
         style="fill:#e5e5e5;fill-opacity:1" />
      <path
         d="m 6.3322219,8.5808538 q -0.2700955,0 -0.4075549,0.091639 -0.1350478,0.09164 -0.1350478,0.2700956 0,0.1639866 0.1085206,0.2580377 0.1109321,0.09164 0.306269,0.09164 0.2435683,0 0.4099665,-0.1736328 Q 6.7807734,8.9425889 6.7807734,8.679728 V 8.5808538 Z M 7.6513493,8.2552922 V 9.7962837 H 6.7807734 V 9.3959635 Q 6.6071406,9.6419434 6.3900995,9.7552871 6.1730585,9.8662192 5.8619663,9.8662192 q -0.4196128,0 -0.6824736,-0.2435683 Q 4.9190434,9.376671 4.9190434,8.9859971 q 0,-0.4750788 0.3255616,-0.696943 Q 5.5725782,8.0671899 6.2719327,8.0671899 H 6.7807734 V 7.999666 q 0,-0.2049832 -0.161575,-0.2990343 -0.161575,-0.096463 -0.5040176,-0.096463 -0.2773302,0 -0.5160754,0.055466 Q 5.3603603,7.7151011 5.155377,7.8260332 V 7.1676753 q 0.2773303,-0.067524 0.5570721,-0.1012858 0.2797418,-0.036174 0.5594836,-0.036174 0.7307049,0 1.053855,0.2893881 0.3255616,0.2869765 0.3255616,0.9356882 z"
         id="path13255"
         style="fill:#e5e5e5;fill-opacity:1" />
      <path
         d="M 10.564522,7.1797331 V 7.8356794 Q 10.287192,7.7199242 10.029154,7.6620466 9.7711167,7.604169 9.5420178,7.604169 q -0.2459799,0 -0.3665582,0.062701 -0.1181668,0.060289 -0.1181668,0.1881023 0,0.1036974 0.089228,0.1591634 0.09164,0.055466 0.3255616,0.081993 l 0.1519287,0.021704 q 0.6631809,0.084405 0.8922799,0.2773303 0.229099,0.1929254 0.229099,0.6053034 0,0.4316705 -0.318327,0.6487116 -0.318327,0.2170411 -0.9501575,0.2170411 -0.267684,0 -0.5546605,-0.043408 Q 8.63768,9.7818143 8.3362341,9.6974095 V 9.0414631 q 0.2580377,0.1254015 0.5281333,0.1881023 0.2725071,0.062701 0.5522489,0.062701 0.2532146,0 0.3810277,-0.069935 0.127813,-0.069935 0.127813,-0.2073948 0,-0.1157552 -0.089228,-0.1712213 Q 9.7494126,8.785837 9.4865518,8.7544866 L 9.334623,8.7351941 Q 8.7582584,8.6628471 8.5267479,8.4675101 8.2952375,8.2721731 8.2952375,7.8742645 q 0,-0.429259 0.2942112,-0.6366538 0.2942112,-0.2073948 0.9019262,-0.2073948 0.2387452,0 0.501606,0.036174 0.2628611,0.036174 0.5715411,0.1133436 z"
         id="path13257"
         style="fill:#e5e5e5;fill-opacity:1" />
      <path
         d="m 12.337025,6.3284498 v 0.7668785 h 0.889868 V 7.7126895 H 12.337025 V 8.858184 q 0,0.1881023 0.07476,0.2556262 0.07476,0.065112 0.296623,0.065112 h 0.443729 v 0.6173612 h -0.740352 q -0.511252,0 -0.725881,-0.2122179 Q 11.473684,9.3694363 11.473684,8.858184 V 7.7126895 H 11.044425 V 7.0953283 h 0.429259 V 6.3284498 Z"
         id="path13259"
         style="fill:#e5e5e5;fill-opacity:1" />
    </g>
  </g>
  <g
     inkscape:groupmode="layer"
     id="layer2"
     inkscape:label="components"
     style="display:none">
    <circle
       style="display:inline;opacity:1;vector-effect:none;fill:#00ffff;fill-opacity:1;fill-rule:evenodd;stroke:none;stroke-width:0.643563;stroke-linecap:butt;stroke-linejoin:miter;stroke-miterlimit:4;stroke-dasharray:none;stroke-dashoffset:0;stroke-opacity:1;paint-order:normal"
       id="path4954"
       cx="7.6199989"
       cy="24.094013"
       r="2.5742509"
       inkscape:label="a" />
    <ellipse
       style="display:inline;opacity:1;vector-effect:none;fill:#00ffff;fill-opacity:1;fill-rule:evenodd;stroke:none;stroke-width:0.551153;stroke-linecap:butt;stroke-linejoin:miter;stroke-miterlimit:4;stroke-dasharray:none;stroke-dashoffset:0;stroke-opacity:1;paint-order:normal"
       id="circle18798"
       cx="7.6199989"
       cy="72.282509"
       inkscape:label="d"
       rx="2.2049999"
       ry="2.2046132" />
    <circle
       style="display:inline;opacity:1;vector-effect:none;fill:#ffff00;fill-opacity:1;fill-rule:evenodd;stroke:none;stroke-width:0.511551;stroke-linecap:butt;stroke-linejoin:miter;stroke-miterlimit:4;stroke-dasharray:none;stroke-dashoffset:0;stroke-opacity:1;paint-order:normal"
       id="circle24793"
       cx="7.6199989"
       cy="112.4375"
       r="2.0462041"
       inkscape:label="out" />
    <circle
       style="display:inline;opacity:1;vector-effect:none;fill:#00ffff;fill-opacity:1;fill-rule:evenodd;stroke:none;stroke-width:0.643563;stroke-linecap:butt;stroke-linejoin:miter;stroke-miterlimit:4;stroke-dasharray:none;stroke-dashoffset:0;stroke-opacity:1;paint-order:normal"
       id="circle1181"
       cx="7.6199989"
       cy="56.220005"
       r="2.5742509"
       inkscape:label="c" />
    <ellipse
       style="display:inline;opacity:1;vector-effect:none;fill:#00ffff;fill-opacity:1;fill-rule:evenodd;stroke:none;stroke-width:0.551153;stroke-linecap:butt;stroke-linejoin:miter;stroke-miterlimit:4;stroke-dasharray:none;stroke-dashoffset:0;stroke-opacity:1;paint-order:normal"
       id="ellipse71806"
       cx="7.6199989"
       cy="40.157009"
       inkscape:label="b"
       rx="2.2049999"
       ry="2.2046132" />
  </g>
</svg>
