<?xml version="1.0" encoding="UTF-8" standalone="no"?>
<!-- Created with Inkscape (http://www.inkscape.org/) -->

<svg
   width="60.959999mm"
   height="128.5mm"
   viewBox="0 0 60.960004 128.50002"
   version="1.1"
   id="svg8"
   inkscape:version="1.1.2 (0a00cf5339, 2022-02-04)"
   sodipodi:docname="Oscillators.svg"
   xmlns:inkscape="http://www.inkscape.org/namespaces/inkscape"
   xmlns:sodipodi="http://sodipodi.sourceforge.net/DTD/sodipodi-0.dtd"
   xmlns:xlink="http://www.w3.org/1999/xlink"
   xmlns="http://www.w3.org/2000/svg"
   xmlns:svg="http://www.w3.org/2000/svg"
   xmlns:rdf="http://www.w3.org/1999/02/22-rdf-syntax-ns#"
   xmlns:cc="http://creativecommons.org/ns#"
   xmlns:dc="http://purl.org/dc/elements/1.1/">
  <defs
     id="defs2">
    <linearGradient
       inkscape:collect="always"
       id="linearGradient56210">
      <stop
         style="stop-color:#e5e5e5;stop-opacity:1;"
         offset="0"
         id="stop56206" />
      <stop
         style="stop-color:#e5e5e5;stop-opacity:0;"
         offset="1"
         id="stop56208" />
    </linearGradient>
    <marker
       style="overflow:visible"
       id="Arrow2Mend"
       refX="0"
       refY="0"
       orient="auto"
       inkscape:stockid="Arrow2Mend"
       inkscape:isstock="true">
      <path
         transform="scale(-0.6)"
         d="M 8.7185878,4.0337352 -2.2072895,0.01601326 8.7185884,-4.0017078 c -1.7454984,2.3720609 -1.7354408,5.6174519 -6e-7,8.035443 z"
         style="fill:context-stroke;fill-rule:evenodd;stroke:context-stroke;stroke-width:0.625;stroke-linejoin:round"
         id="path59252" />
    </marker>
    <marker
       style="overflow:visible"
       id="Arrow1Lend"
       refX="0"
       refY="0"
       orient="auto"
       inkscape:stockid="Arrow1Lend"
       inkscape:isstock="true">
      <path
         transform="matrix(-0.8,0,0,-0.8,-10,0)"
         style="fill:context-stroke;fill-rule:evenodd;stroke:context-stroke;stroke-width:1pt"
         d="M 0,0 5,-5 -12.5,0 5,5 Z"
         id="path59228" />
    </marker>
    <marker
       style="overflow:visible"
       id="Arrow1Lstart"
       refX="0"
       refY="0"
       orient="auto"
       inkscape:stockid="Arrow1Lstart"
       inkscape:isstock="true">
      <path
         transform="matrix(0.8,0,0,0.8,10,0)"
         style="fill:context-stroke;fill-rule:evenodd;stroke:context-stroke;stroke-width:1pt"
         d="M 0,0 5,-5 -12.5,0 5,5 Z"
         id="path59225" />
    </marker>
    <linearGradient
       inkscape:collect="always"
       xlink:href="#linearGradient56210"
       id="linearGradient56212"
       x1="15.962291"
       y1="176.53099"
       x2="45.089202"
       y2="176.53099"
       gradientUnits="userSpaceOnUse" />
  </defs>
  <sodipodi:namedview
     id="base"
     pagecolor="#ffffff"
     bordercolor="#666666"
     borderopacity="1.0"
     inkscape:pageopacity="0.0"
     inkscape:pageshadow="2"
     inkscape:zoom="1.4"
     inkscape:cx="-39.285714"
     inkscape:cy="348.92857"
     inkscape:document-units="mm"
     inkscape:current-layer="layer1"
     showgrid="false"
     units="mm"
     inkscape:snap-bbox="true"
     inkscape:snap-page="true"
     inkscape:bbox-nodes="false"
     inkscape:snap-bbox-edge-midpoints="false"
     inkscape:window-width="2560"
     inkscape:window-height="1379"
     inkscape:window-x="0"
     inkscape:window-y="0"
     inkscape:window-maximized="1"
     inkscape:snap-bbox-midpoints="true"
     inkscape:snap-nodes="false"
     inkscape:pagecheckerboard="0"
     width="45.72mm"
     showguides="true"
     inkscape:guide-bbox="true"
     inkscape:lockguides="false">
    <sodipodi:guide
       position="7.62,0"
       orientation="128.5,0"
       id="guide19493" />
    <sodipodi:guide
       position="15.24,0"
       orientation="128.5,0"
       id="guide19495" />
    <sodipodi:guide
       position="22.86,0"
       orientation="128.5,0"
       id="guide19497" />
    <sodipodi:guide
       position="20.616837,7.5401774"
       orientation="0,30.48"
       id="guide19499" />
    <sodipodi:guide
       position="0,16.0625"
       orientation="0,30.48"
       id="guide19501" />
    <sodipodi:guide
       position="0,24.0938"
       orientation="0,30.48"
       id="guide19503" />
    <sodipodi:guide
       position="0,32.125"
       orientation="0,30.48"
       id="guide19505" />
    <sodipodi:guide
       position="0,40.1562"
       orientation="0,30.48"
       id="guide19507" />
    <sodipodi:guide
       position="0,48.1875"
       orientation="0,30.48"
       id="guide19509" />
    <sodipodi:guide
       position="0,56.2188"
       orientation="0,30.48"
       id="guide19511" />
    <sodipodi:guide
       position="0,64.25"
       orientation="0,30.48"
       id="guide19513" />
    <sodipodi:guide
       position="0,72.2812"
       orientation="0,30.48"
       id="guide19515" />
    <sodipodi:guide
       position="0,80.3125"
       orientation="0,30.48"
       id="guide19517" />
    <sodipodi:guide
       position="0,88.3438"
       orientation="0,30.48"
       id="guide19519" />
    <sodipodi:guide
       position="0,96.375"
       orientation="0,30.48"
       id="guide19521" />
    <sodipodi:guide
       position="0,104.406"
       orientation="0,30.48"
       id="guide19523" />
    <sodipodi:guide
       position="7.62,112.43799"
       orientation="0,30.48"
       id="guide19525" />
    <sodipodi:guide
       position="0,120.469"
       orientation="0,30.48"
       id="guide19527" />
    <sodipodi:guide
       position="30.525751,134.75608"
       orientation="1,0"
       id="guide965" />
    <sodipodi:guide
       position="38.175599,143.33559"
       orientation="1,0"
       id="guide967" />
    <sodipodi:guide
       position="53.491197,96.375002"
       orientation="1,0"
       id="guide56318" />
  </sodipodi:namedview>
  <metadata
     id="metadata5">
    <rdf:RDF>
      <cc:Work
         rdf:about="">
        <dc:format>image/svg+xml</dc:format>
        <dc:type
           rdf:resource="http://purl.org/dc/dcmitype/StillImage" />
      </cc:Work>
    </rdf:RDF>
  </metadata>
  <g
     inkscape:label="Layer 1"
     inkscape:groupmode="layer"
     id="layer1"
     transform="translate(0,-168.49998)"
     style="display:inline">
    <path
       id="rect420"
       style="display:inline;opacity:1;vector-effect:none;fill:#e6e6e6;fill-rule:evenodd;stroke-width:0.918781"
       d="M 0.01590307,168.49998 H 61.035591 v 128.5 H 0.01590307 Z" />
    <text
       xml:space="preserve"
       style="font-style:normal;font-weight:normal;font-size:10.5833px;line-height:1.25;font-family:sans-serif;fill:#000000;fill-opacity:1;stroke:none;stroke-width:0.264583"
       x="11.954887"
       y="222.33798"
       id="text65289"><tspan
         sodipodi:role="line"
         id="tspan65287"
         style="stroke-width:0.264583"
         x="11.954887"
         y="222.33798" /></text>
    <text
       xml:space="preserve"
       style="font-style:normal;font-weight:normal;font-size:10.5833px;line-height:1.25;font-family:sans-serif;fill:#000000;fill-opacity:1;stroke:none;stroke-width:0.264583"
       x="-3.6755409"
       y="276.99725"
       id="text80285"><tspan
         sodipodi:role="line"
         id="tspan80283"
         style="stroke-width:0.264583"
         x="-3.6755409"
         y="276.99725" /></text>
    <path
       id="rect80851"
       style="fill:#1a1a1a;stroke-width:0.252763"
       d="m 48.954048,275.61282 h 9.074284 c 1.170815,0 2.113385,0.94257 2.113385,2.11339 v 11.17752 c 0,1.17081 -0.94257,2.11338 -2.113385,2.11338 h -9.074284 c -1.170815,0 -2.113384,-0.94257 -2.113384,-2.11338 v -11.17752 c 0,-1.17082 0.942569,-2.11339 2.113384,-2.11339 z" />
    <text
       xml:space="preserve"
       style="font-style:normal;font-weight:normal;font-size:10.5833px;line-height:1.25;font-family:sans-serif;fill:#000000;fill-opacity:1;stroke:none;stroke-width:0.264583"
       x="-18.465246"
       y="239.39554"
       id="text24631"><tspan
         sodipodi:role="line"
         id="tspan24629"
         style="stroke-width:0.264583"
         x="-18.465246"
         y="239.39554" /></text>
    <text
       xml:space="preserve"
       style="font-style:normal;font-weight:normal;font-size:10.5833px;line-height:1.25;font-family:sans-serif;fill:#000000;fill-opacity:1;stroke:none;stroke-width:0.264583"
       x="-8.2293472"
       y="291.03131"
       id="text36741"><tspan
         sodipodi:role="line"
         id="tspan36739"
         style="stroke-width:0.264583"
         x="-8.2293472"
         y="291.03131" /></text>
    <g
       aria-label="MUS-X"
       id="text38608"
       style="font-style:italic;font-weight:bold;font-size:2.82222px;line-height:1.25;-inkscape-font-specification:'sans-serif Bold Italic';stroke-width:0.264583"
       transform="translate(15.093513,2.3061221e-5)">
      <path
         d="m 10.684896,293.10906 h 0.675238 l 0.248047,1.10106 0.691775,-1.10106 h 0.67386 l -0.412033,2.05741 h -0.501606 l 0.300412,-1.50481 -0.695908,1.10932 h -0.336242 l -0.25218,-1.10932 -0.300412,1.50481 h -0.502984 z"
         id="path53546" />
      <path
         d="m 13.493336,293.10906 h 0.530544 l -0.246668,1.23335 q -0.05099,0.25493 0.0096,0.36518 0.06201,0.10886 0.250803,0.10886 0.190169,0 0.294899,-0.10886 0.106109,-0.11025 0.157097,-0.36518 l 0.246668,-1.23335 h 0.530545 l -0.246669,1.23335 q -0.08819,0.43683 -0.350021,0.65043 -0.261827,0.2136 -0.711068,0.2136 -0.447862,0 -0.62425,-0.2136 -0.176389,-0.2136 -0.08819,-0.65043 z"
         id="path53548" />
      <path
         d="m 17.203012,293.17383 -0.08682,0.43546 q -0.15434,-0.0758 -0.308681,-0.11438 -0.152962,-0.0386 -0.296278,-0.0386 -0.190169,0 -0.292143,0.0524 -0.100597,0.0524 -0.122646,0.16261 -0.01654,0.0827 0.03583,0.12954 0.05237,0.0455 0.206706,0.0786 l 0.216352,0.0455 q 0.329351,0.0689 0.445106,0.20946 0.117133,0.14056 0.06615,0.39963 -0.0689,0.34038 -0.304546,0.50712 -0.234266,0.16537 -0.649055,0.16537 -0.195682,0 -0.385851,-0.0372 -0.188791,-0.0372 -0.370692,-0.11024 l 0.08957,-0.44787 q 0.17501,0.10474 0.348643,0.15848 0.173633,0.0524 0.344509,0.0524 0.173633,0 0.276986,-0.0579 0.104731,-0.0579 0.125401,-0.16537 0.01929,-0.0965 -0.03307,-0.14883 -0.05099,-0.0524 -0.230132,-0.0937 l -0.197059,-0.0455 q -0.2949,-0.0661 -0.409277,-0.21084 -0.112999,-0.14469 -0.06477,-0.38998 0.06201,-0.3073 0.293522,-0.47267 0.23151,-0.16536 0.60358,-0.16536 0.169499,0 0.343132,0.0262 0.17501,0.0248 0.355533,0.0758 z"
         id="path53550" />
      <path
         d="m 17.502046,294.15362 h 0.865407 l -0.07993,0.401 h -0.865408 z"
         id="path53552" />
      <path
         d="m 19.702771,294.11641 0.504361,1.05006 H 19.65454 l -0.340376,-0.7028 -0.61736,0.7028 h -0.555349 l 0.923285,-1.05006 -0.483691,-1.00735 h 0.553971 l 0.316948,0.66284 0.58291,-0.66284 h 0.556727 z"
         id="path53554" />
    </g>
    <g
       aria-label="Oscillators"
       id="text5392"
       style="font-weight:bold;font-size:4.93889px;line-height:1.25;-inkscape-font-specification:'sans-serif Bold';fill:#1a1a1a;stroke-width:0.264583">
      <path
         d="m 17.814375,175.37947 q -0.424436,0 -0.658358,0.3135 -0.233922,0.31351 -0.233922,0.88264 0,0.56671 0.233922,0.88022 0.233922,0.3135 0.658358,0.3135 0.426847,0 0.66077,-0.3135 0.233922,-0.31351 0.233922,-0.88022 0,-0.56913 -0.233922,-0.88264 -0.233923,-0.3135 -0.66077,-0.3135 z m 0,-0.67283 q 0.868164,0 1.360124,0.49678 0.49196,0.49679 0.49196,1.37219 0,0.87298 -0.49196,1.36977 -0.49196,0.49678 -1.360124,0.49678 -0.865753,0 -1.360124,-0.49678 -0.49196,-0.49679 -0.49196,-1.36977 0,-0.8754 0.49196,-1.37219 0.494371,-0.49678 1.360124,-0.49678 z"
         id="path119807" />
      <path
         d="m 22.439761,175.75567 v 0.65595 q -0.27733,-0.11576 -0.535368,-0.17363 -0.258037,-0.0579 -0.487136,-0.0579 -0.24598,0 -0.366559,0.0627 -0.118166,0.0603 -0.118166,0.1881 0,0.1037 0.08923,0.15916 0.09164,0.0555 0.325561,0.082 l 0.151929,0.0217 q 0.663181,0.0844 0.89228,0.27733 0.229099,0.19293 0.229099,0.60531 0,0.43167 -0.318327,0.64871 -0.318327,0.21704 -0.950158,0.21704 -0.267684,0 -0.55466,-0.0434 -0.284565,-0.041 -0.586011,-0.1254 v -0.65595 q 0.258038,0.1254 0.528133,0.1881 0.272507,0.0627 0.552249,0.0627 0.253215,0 0.381028,-0.0699 0.127813,-0.0699 0.127813,-0.20739 0,-0.11576 -0.08923,-0.17123 -0.08682,-0.0579 -0.349677,-0.0892 l -0.151929,-0.0193 q -0.576365,-0.0723 -0.807875,-0.26768 -0.231511,-0.19534 -0.231511,-0.59325 0,-0.42926 0.294212,-0.63665 0.294211,-0.20739 0.901926,-0.20739 0.238745,0 0.501606,0.0362 0.262861,0.0362 0.571541,0.11334 z"
         id="path119809" />
      <path
         d="m 25.451809,175.75567 v 0.70418 q -0.176045,-0.12058 -0.354501,-0.17846 -0.176044,-0.0579 -0.366558,-0.0579 -0.361735,0 -0.564307,0.21221 -0.20016,0.20981 -0.20016,0.58843 0,0.37861 0.20016,0.59083 0.202572,0.20981 0.564307,0.20981 0.202572,0 0.383439,-0.0603 0.18328,-0.0603 0.33762,-0.17846 v 0.70659 q -0.202572,0.0748 -0.412378,0.11093 -0.207395,0.0386 -0.417201,0.0386 -0.730705,0 -1.143083,-0.37379 -0.412378,-0.37621 -0.412378,-1.04421 0,-0.66801 0.412378,-1.0418 0.412378,-0.3762 1.143083,-0.3762 0.212218,0 0.417201,0.0386 0.207395,0.0362 0.412378,0.11093 z"
         id="path119811" />
      <path
         d="m 26.196983,175.67127 h 0.863341 v 2.70095 h -0.863341 z m 0,-1.05145 h 0.863341 v 0.70418 h -0.863341 z"
         id="path119813" />
      <path
         d="m 27.889903,174.61982 h 0.863342 v 3.7524 h -0.863342 z"
         id="path119815" />
      <path
         d="m 29.582824,174.61982 h 0.863341 v 3.7524 h -0.863341 z"
         id="path119817" />
      <path
         d="m 32.486351,177.15679 q -0.270096,0 -0.407555,0.0916 -0.135048,0.0916 -0.135048,0.2701 0,0.16398 0.108521,0.25804 0.110932,0.0916 0.306269,0.0916 0.243568,0 0.409966,-0.17364 0.166398,-0.17604 0.166398,-0.4389 v -0.0989 z m 1.319127,-0.32556 v 1.54099 h -0.870576 v -0.40032 q -0.173633,0.24598 -0.390674,0.35933 -0.217041,0.11093 -0.528133,0.11093 -0.419613,0 -0.682474,-0.24357 -0.260449,-0.24598 -0.260449,-0.63665 0,-0.47508 0.325562,-0.69695 0.327973,-0.22186 1.027328,-0.22186 h 0.50884 v -0.0675 q 0,-0.20499 -0.161575,-0.29904 -0.161575,-0.0965 -0.504017,-0.0965 -0.277331,0 -0.516076,0.0555 -0.238745,0.0555 -0.443728,0.1664 v -0.65836 q 0.27733,-0.0675 0.557072,-0.10128 0.279742,-0.0362 0.559484,-0.0362 0.730704,0 1.053854,0.28938 0.325562,0.28698 0.325562,0.93569 z"
         id="path119819" />
      <path
         d="m 35.551452,174.90439 v 0.76688 h 0.889869 v 0.61736 h -0.889869 v 1.14549 q 0,0.18811 0.07476,0.25563 0.07476,0.0651 0.296623,0.0651 h 0.443728 v 0.61736 h -0.740351 q -0.511252,0 -0.725882,-0.21222 -0.212218,-0.21462 -0.212218,-0.72588 v -1.14549 h -0.429259 v -0.61736 h 0.429259 v -0.76688 z"
         id="path119821" />
      <path
         d="m 38.254821,176.22352 q -0.286977,0 -0.438906,0.20739 -0.149517,0.20498 -0.149517,0.59325 0,0.38826 0.149517,0.59565 0.151929,0.20499 0.438906,0.20499 0.282153,0 0.43167,-0.20499 0.149517,-0.20739 0.149517,-0.59565 0,-0.38827 -0.149517,-0.59325 -0.149517,-0.20739 -0.43167,-0.20739 z m 0,-0.61736 q 0.696943,0 1.087616,0.3762 0.393086,0.3762 0.393086,1.0418 0,0.66559 -0.393086,1.04179 -0.390673,0.37621 -1.087616,0.37621 -0.699355,0 -1.094852,-0.37621 -0.393086,-0.3762 -0.393086,-1.04179 0,-0.6656 0.393086,-1.0418 0.395497,-0.3762 1.094852,-0.3762 z"
         id="path119823" />
      <path
         d="m 42.368953,176.4068 q -0.113343,-0.0531 -0.226687,-0.0772 -0.110932,-0.0265 -0.224276,-0.0265 -0.332796,0 -0.513664,0.21463 -0.178456,0.21222 -0.178456,0.61012 v 1.24437 h -0.863341 v -2.70095 h 0.863341 v 0.44373 q 0.166398,-0.26528 0.381028,-0.38585 0.217041,-0.12299 0.518487,-0.12299 0.04341,0 0.09405,0.005 0.05064,0.002 0.147106,0.0145 z"
         id="path119825" />
      <path
         d="m 44.908335,175.75567 v 0.65595 q -0.27733,-0.11576 -0.535368,-0.17363 -0.258038,-0.0579 -0.487137,-0.0579 -0.24598,0 -0.366558,0.0627 -0.118167,0.0603 -0.118167,0.1881 0,0.1037 0.08923,0.15916 0.09164,0.0555 0.325562,0.082 l 0.151929,0.0217 q 0.663181,0.0844 0.892279,0.27733 0.229099,0.19293 0.229099,0.60531 0,0.43167 -0.318326,0.64871 -0.318327,0.21704 -0.950158,0.21704 -0.267684,0 -0.554661,-0.0434 -0.284564,-0.041 -0.58601,-0.1254 v -0.65595 q 0.258037,0.1254 0.528133,0.1881 0.272507,0.0627 0.552249,0.0627 0.253214,0 0.381027,-0.0699 0.127813,-0.0699 0.127813,-0.20739 0,-0.11576 -0.08923,-0.17123 -0.08682,-0.0579 -0.349677,-0.0892 l -0.151929,-0.0193 q -0.576364,-0.0723 -0.807875,-0.26768 -0.23151,-0.19534 -0.23151,-0.59325 0,-0.42926 0.294211,-0.63665 0.294211,-0.20739 0.901926,-0.20739 0.238746,0 0.501606,0.0362 0.262861,0.0362 0.571542,0.11334 z"
         id="path119827" />
    </g>
    <g
       aria-label="Shape"
       id="text20964"
       style="font-size:4.23333px;line-height:1.25;fill:#1a1a1a;stroke-width:0.264583">
      <path
         d="m 18.470605,190.2479 v 0.40721 q -0.237711,-0.11369 -0.448551,-0.1695 -0.210839,-0.0558 -0.40721,-0.0558 -0.341064,0 -0.527099,0.13229 -0.183968,0.13229 -0.183968,0.37621 0,0.20463 0.121957,0.31005 0.124023,0.10336 0.467154,0.16744 l 0.252181,0.0517 q 0.467154,0.0889 0.688329,0.31419 0.223242,0.22325 0.223242,0.59945 0,0.44855 -0.30179,0.68006 -0.299723,0.23151 -0.880565,0.23151 -0.219108,0 -0.467155,-0.0496 -0.24598,-0.0496 -0.510563,-0.14676 v -0.42995 q 0.254248,0.14263 0.498161,0.21498 0.243912,0.0723 0.479557,0.0723 0.3576,0 0.551903,-0.14056 0.194304,-0.14056 0.194304,-0.401 0,-0.22738 -0.14056,-0.35554 -0.138493,-0.12816 -0.456819,-0.19223 l -0.254248,-0.0496 q -0.467155,-0.093 -0.675927,-0.29146 -0.208773,-0.19844 -0.208773,-0.5519 0,-0.40928 0.287321,-0.64492 0.289387,-0.23565 0.795816,-0.23565 0.217041,0 0.44235,0.0393 0.225309,0.0393 0.460953,0.11782 z"
         id="path119830" />
      <path
         d="m 21.215655,191.8354 v 1.39733 h -0.380338 v -1.38493 q 0,-0.32866 -0.128158,-0.49196 -0.128157,-0.1633 -0.384472,-0.1633 -0.307991,0 -0.485758,0.19637 -0.177767,0.19637 -0.177767,0.53537 v 1.30845 h -0.382405 v -3.21634 h 0.382405 v 1.2609 q 0.136426,-0.20877 0.320394,-0.31212 0.186035,-0.10336 0.42788,-0.10336 0.398942,0 0.603581,0.24805 0.204638,0.24598 0.204638,0.72554 z"
         id="path119832" />
      <path
         d="m 23.026396,192.06897 q -0.460954,0 -0.638721,0.10542 -0.177766,0.10542 -0.177766,0.35967 0,0.20257 0.132291,0.32246 0.134359,0.11783 0.363802,0.11783 0.31626,0 0.506429,-0.22325 0.192236,-0.22531 0.192236,-0.59738 v -0.0847 z m 0.758609,-0.15709 v 1.32085 h -0.380338 v -0.3514 q -0.130225,0.21084 -0.324528,0.31212 -0.194303,0.0992 -0.475423,0.0992 -0.355533,0 -0.566373,-0.19844 -0.208773,-0.2005 -0.208773,-0.53536 0,-0.39068 0.260449,-0.58911 0.262517,-0.19844 0.781347,-0.19844 h 0.533301 v -0.0372 q 0,-0.26251 -0.173633,-0.40514 -0.171565,-0.1447 -0.483691,-0.1447 -0.198437,0 -0.386539,0.0476 -0.188102,0.0475 -0.361735,0.14262 v -0.3514 q 0.208773,-0.0806 0.405143,-0.11988 0.19637,-0.0414 0.382405,-0.0414 0.502295,0 0.750341,0.26045 0.248047,0.26045 0.248047,0.78962 z"
         id="path119834" />
      <path
         d="m 24.936355,192.88546 v 1.22783 H 24.55395 v -3.19567 h 0.382405 v 0.3514 q 0.119889,-0.2067 0.30179,-0.30592 0.183968,-0.10129 0.438216,-0.10129 0.421679,0 0.684195,0.33487 0.264583,0.33486 0.264583,0.88056 0,0.54571 -0.264583,0.88057 -0.262516,0.33486 -0.684195,0.33486 -0.254248,0 -0.438216,-0.0992 -0.181901,-0.10128 -0.30179,-0.30799 z m 1.293977,-0.80822 q 0,-0.41961 -0.173633,-0.65732 -0.171565,-0.23978 -0.473356,-0.23978 -0.30179,0 -0.475422,0.23978 -0.171566,0.23771 -0.171566,0.65732 0,0.41962 0.171566,0.65939 0.173632,0.23772 0.475422,0.23772 0.301791,0 0.473356,-0.23772 0.173633,-0.23977 0.173633,-0.65939 z"
         id="path119836" />
      <path
         d="m 29.23583,191.98009 v 0.18604 h -1.748729 q 0.02481,0.39274 0.235645,0.59944 0.212906,0.20464 0.591178,0.20464 0.219107,0 0.423746,-0.0537 0.206706,-0.0538 0.409277,-0.16123 v 0.35966 q -0.204639,0.0868 -0.419612,0.1323 -0.214974,0.0455 -0.436149,0.0455 -0.553971,0 -0.878499,-0.32246 -0.32246,-0.32246 -0.32246,-0.8723 0,-0.56844 0.305924,-0.90123 0.307991,-0.33487 0.828889,-0.33487 0.467155,0 0.737939,0.30179 0.272851,0.29973 0.272851,0.81649 z m -0.380338,-0.11162 q -0.0041,-0.31213 -0.1757,-0.49816 -0.169498,-0.18604 -0.450618,-0.18604 -0.318326,0 -0.510562,0.17984 -0.19017,0.17983 -0.219108,0.50643 z"
         id="path119838" />
    </g>
    <g
       aria-label="PW"
       id="text56288"
       style="font-size:4.23333px;line-height:1.25;fill:#1a1a1a;stroke-width:0.264583">
      <path
         d="m 35.500824,190.86491 v 1.15962 h 0.525032 q 0.291455,0 0.450619,-0.15089 0.159163,-0.1509 0.159163,-0.42995 0,-0.27699 -0.159163,-0.42788 -0.159164,-0.1509 -0.450619,-0.1509 z m -0.417545,-0.34313 h 0.942577 q 0.518831,0 0.783414,0.23565 0.266651,0.23357 0.266651,0.68626 0,0.45682 -0.266651,0.69039 -0.264583,0.23358 -0.783414,0.23358 h -0.525032 v 1.24023 h -0.417545 z"
         id="path119841" />
      <path
         d="m 37.361174,190.52178 h 0.42168 l 0.649055,2.60863 0.646988,-2.60863 h 0.469222 l 0.649055,2.60863 0.646989,-2.60863 h 0.423746 l -0.775146,3.08611 h -0.525032 l -0.651122,-2.6789 -0.657324,2.6789 h -0.525032 z"
         id="path119843" />
    </g>
    <g
       aria-label="Vol"
       id="text56292"
       style="font-size:4.23333px;line-height:1.25;fill:#1a1a1a;stroke-width:0.264583">
      <path
         d="m 51.717657,193.64304 -1.178221,-3.08612 h 0.436149 l 0.977717,2.59829 0.979784,-2.59829 h 0.434082 l -1.176155,3.08612 z"
         id="path119846" />
      <path
         d="m 54.36969,191.59458 q -0.305925,0 -0.483691,0.23978 -0.177767,0.23771 -0.177767,0.65319 0,0.41548 0.1757,0.65526 0.177766,0.23771 0.485758,0.23771 0.303857,0 0.481624,-0.23978 0.177766,-0.23978 0.177766,-0.65319 0,-0.41134 -0.177766,-0.65112 -0.177767,-0.24185 -0.481624,-0.24185 z m 0,-0.32246 q 0.496093,0 0.77928,0.32246 0.283186,0.32246 0.283186,0.89297 0,0.56844 -0.283186,0.89297 -0.283187,0.32246 -0.77928,0.32246 -0.498161,0 -0.781347,-0.32246 -0.28112,-0.32453 -0.28112,-0.89297 0,-0.57051 0.28112,-0.89297 0.283186,-0.32246 0.781347,-0.32246 z"
         id="path119848" />
      <path
         d="m 56.062608,190.4267 h 0.380339 v 3.21634 h -0.380339 z"
         id="path119850" />
    </g>
    <g
       aria-label="Osc 1"
       id="text56296"
       style="font-size:4.23333px;line-height:1.25;fill:#1a1a1a;stroke-width:0.264583">
      <path
         d="m 3.4125075,183.30007 q -0.4547522,0 -0.7234694,0.339 -0.2666502,0.33899 -0.2666502,0.92397 0,0.58291 0.2666502,0.92191 0.2687172,0.33899 0.7234694,0.33899 0.4547523,0 0.7193354,-0.33899 0.2666501,-0.339 0.2666501,-0.92191 0,-0.58498 -0.2666501,-0.92397 -0.2645831,-0.339 -0.7193354,-0.339 z m 0,-0.339 q 0.6490555,0 1.0376619,0.43615 0.3886065,0.43408 0.3886065,1.16582 0,0.72967 -0.3886065,1.16582 -0.3886064,0.43408 -1.0376619,0.43408 -0.6511225,0 -1.041796,-0.43408 -0.3886064,-0.43408 -0.3886064,-1.16582 0,-0.73174 0.3886064,-1.16582 0.3906735,-0.43615 1.041796,-0.43615 z"
         id="path119853" />
      <path
         d="m 6.9513066,183.85611 v 0.35967 q -0.1612304,-0.0827 -0.334863,-0.12403 -0.1736327,-0.0413 -0.3596677,-0.0413 -0.2831866,0 -0.4258134,0.0868 -0.1405598,0.0868 -0.1405598,0.26045 0,0.13229 0.1012857,0.20877 0.1012857,0.0744 0.4072099,0.14263 l 0.1302245,0.0289 q 0.4051429,0.0868 0.5746415,0.24598 0.1715656,0.1571 0.1715656,0.44029 0,0.32246 -0.2563149,0.51056 -0.2542478,0.1881 -0.7007318,0.1881 -0.186035,0 -0.3886065,-0.0372 -0.2005044,-0.0351 -0.4237464,-0.10748 v -0.39274 q 0.2108397,0.10955 0.4154782,0.16536 0.2046385,0.0537 0.4051429,0.0537 0.2687172,0 0.4134111,-0.0909 0.1446939,-0.093 0.1446939,-0.26044 0,-0.15503 -0.1054198,-0.23772 -0.1033528,-0.0827 -0.4568193,-0.15916 l -0.1322916,-0.031 q -0.3534665,-0.0744 -0.5105627,-0.22737 -0.1570962,-0.15503 -0.1570962,-0.42375 0,-0.32659 0.2315102,-0.50436 0.2315102,-0.17777 0.6573237,-0.17777 0.2108396,0 0.3968746,0.031 0.186035,0.031 0.3431313,0.093 z"
         id="path119855" />
      <path
         d="m 9.3470237,183.87678 v 0.35553 q -0.1612303,-0.0889 -0.3245277,-0.13229 -0.1612303,-0.0455 -0.3265948,-0.0455 -0.3700029,0 -0.5746414,0.23565 -0.2046385,0.23358 -0.2046385,0.65732 0,0.42375 0.2046385,0.65939 0.2046385,0.23358 0.5746414,0.23358 0.1653645,0 0.3265948,-0.0434 0.1632974,-0.0455 0.3245277,-0.13436 v 0.3514 q -0.1591632,0.0744 -0.3307289,0.11162 -0.1694985,0.0372 -0.3617347,0.0372 -0.522965,0 -0.8309563,-0.32866 -0.3079913,-0.32866 -0.3079913,-0.88677 0,-0.56637 0.3100583,-0.8909 0.3121254,-0.32453 0.853694,-0.32453 0.1756997,0 0.3431312,0.0372 0.1674315,0.0351 0.3245277,0.10749 z"
         id="path119857" />
      <path
         d="m 11.480225,185.7516 h 0.682128 v -2.35438 l -0.742073,0.14883 v -0.38034 l 0.737939,-0.14883 h 0.417545 v 2.73472 h 0.682129 v 0.3514 h -1.777668 z"
         id="path119859" />
    </g>
    <text
       xml:space="preserve"
       style="font-size:4.23333px;line-height:1.25;font-family:sans-serif;fill:#1a1a1a;fill-opacity:1;stroke-width:0.264583"
       x="0.96511376"
       y="217.85538"
       id="text56300"><tspan
         sodipodi:role="line"
         id="tspan56298"
         style="font-size:4.23333px;fill:#1a1a1a;fill-opacity:1;stroke-width:0.264583"
         x="0.96511376"
         y="217.85538" /></text>
    <g
       aria-label="Osc 2"
       id="text56304"
       style="font-size:4.23333px;line-height:1.25;fill:#1a1a1a;stroke-width:0.264583">
      <path
         d="m 3.429044,199.36306 q -0.4547522,0 -0.7234694,0.33899 -0.2666502,0.339 -0.2666502,0.92398 0,0.58291 0.2666502,0.92191 0.2687172,0.33899 0.7234694,0.33899 0.4547522,0 0.7193353,-0.33899 0.2666502,-0.339 0.2666502,-0.92191 0,-0.58498 -0.2666502,-0.92398 -0.2645831,-0.33899 -0.7193353,-0.33899 z m 0,-0.339 q 0.6490555,0 1.0376619,0.43615 0.3886064,0.43408 0.3886064,1.16582 0,0.72967 -0.3886064,1.16582 -0.3886064,0.43408 -1.0376619,0.43408 -0.6511225,0 -1.041796,-0.43408 -0.3886064,-0.43408 -0.3886064,-1.16582 0,-0.73174 0.3886064,-1.16582 0.3906735,-0.43615 1.041796,-0.43615 z"
         id="path119862" />
      <path
         d="m 6.967843,199.9191 v 0.35966 q -0.1612303,-0.0827 -0.334863,-0.12402 -0.1736326,-0.0413 -0.3596676,-0.0413 -0.2831866,0 -0.4258135,0.0868 -0.1405597,0.0868 -0.1405597,0.26044 0,0.1323 0.1012857,0.20878 0.1012857,0.0744 0.4072099,0.14262 l 0.1302245,0.0289 q 0.4051429,0.0868 0.5746415,0.24598 0.1715656,0.1571 0.1715656,0.44028 0,0.32247 -0.2563149,0.51057 -0.2542478,0.1881 -0.7007318,0.1881 -0.186035,0 -0.3886065,-0.0372 -0.2005044,-0.0351 -0.4237464,-0.10748 v -0.39274 q 0.2108397,0.10955 0.4154782,0.16536 0.2046385,0.0537 0.4051429,0.0537 0.2687172,0 0.4134111,-0.0909 0.1446939,-0.093 0.1446939,-0.26045 0,-0.15503 -0.1054199,-0.23771 -0.1033527,-0.0827 -0.4568192,-0.15916 l -0.1322916,-0.031 q -0.3534665,-0.0744 -0.5105627,-0.22737 -0.1570962,-0.15503 -0.1570962,-0.42375 0,-0.32659 0.2315102,-0.50436 0.2315102,-0.17777 0.6573237,-0.17777 0.2108396,0 0.3968746,0.031 0.186035,0.031 0.3431312,0.093 z"
         id="path119864" />
      <path
         d="m 9.3635602,199.93977 v 0.35553 q -0.1612303,-0.0889 -0.3245277,-0.13229 -0.1612304,-0.0455 -0.3265948,-0.0455 -0.3700029,0 -0.5746414,0.23565 -0.2046385,0.23357 -0.2046385,0.65732 0,0.42375 0.2046385,0.65939 0.2046385,0.23358 0.5746414,0.23358 0.1653644,0 0.3265948,-0.0434 0.1632974,-0.0455 0.3245277,-0.13436 v 0.3514 q -0.1591633,0.0744 -0.3307289,0.11162 -0.1694985,0.0372 -0.3617347,0.0372 -0.5229651,0 -0.8309563,-0.32866 -0.3079913,-0.32866 -0.3079913,-0.88677 0,-0.56637 0.3100583,-0.8909 0.3121254,-0.32453 0.853694,-0.32453 0.1756997,0 0.3431312,0.0372 0.1674315,0.0351 0.3245277,0.10749 z"
         id="path119866" />
      <path
         d="m 11.784082,201.81459 h 1.457274 v 0.3514 h -1.959568 v -0.3514 q 0.237711,-0.24598 0.646988,-0.6594 0.411344,-0.41547 0.516764,-0.53536 0.200504,-0.22531 0.279053,-0.38034 0.08061,-0.1571 0.08061,-0.30799 0,-0.24598 -0.173633,-0.40101 -0.171566,-0.15503 -0.448551,-0.15503 -0.19637,0 -0.415478,0.0682 -0.217041,0.0682 -0.465088,0.20671 v -0.42168 q 0.252181,-0.10129 0.471289,-0.15296 0.219108,-0.0517 0.401009,-0.0517 0.479557,0 0.76481,0.23978 0.285254,0.23978 0.285254,0.64079 0,0.19017 -0.07235,0.36173 -0.07028,0.1695 -0.258382,0.40101 -0.05168,0.0599 -0.328662,0.34727 -0.276985,0.28525 -0.781347,0.79995 z"
         id="path119868" />
    </g>
    <g
       aria-label="Shape"
       id="text66966"
       style="font-size:4.23333px;line-height:1.25;fill:#1a1a1a;stroke-width:0.264583">
      <path
         d="m 18.470605,237.66027 v 0.40721 q -0.237711,-0.11369 -0.448551,-0.1695 -0.210839,-0.0558 -0.40721,-0.0558 -0.341064,0 -0.527099,0.13229 -0.183968,0.13229 -0.183968,0.3762 0,0.20464 0.121957,0.31006 0.124023,0.10336 0.467154,0.16743 l 0.252181,0.0517 q 0.467154,0.0889 0.688329,0.31419 0.223242,0.22324 0.223242,0.59945 0,0.44855 -0.30179,0.68006 -0.299723,0.23151 -0.880565,0.23151 -0.219108,0 -0.467155,-0.0496 -0.24598,-0.0496 -0.510563,-0.14676 v -0.42995 q 0.254248,0.14263 0.498161,0.21498 0.243912,0.0723 0.479557,0.0723 0.3576,0 0.551903,-0.14056 0.194304,-0.14056 0.194304,-0.40101 0,-0.22737 -0.14056,-0.35553 -0.138493,-0.12816 -0.456819,-0.19223 l -0.254248,-0.0496 q -0.467155,-0.093 -0.675927,-0.29146 -0.208773,-0.19844 -0.208773,-0.5519 0,-0.40928 0.287321,-0.64492 0.289387,-0.23565 0.795816,-0.23565 0.217041,0 0.44235,0.0393 0.225309,0.0393 0.460953,0.11782 z"
         id="path119871" />
      <path
         d="m 21.215655,239.24777 v 1.39733 h -0.380338 v -1.38493 q 0,-0.32866 -0.128158,-0.49196 -0.128157,-0.1633 -0.384472,-0.1633 -0.307991,0 -0.485758,0.19637 -0.177767,0.19637 -0.177767,0.53537 v 1.30845 h -0.382405 v -3.21634 h 0.382405 v 1.2609 q 0.136426,-0.20877 0.320394,-0.31212 0.186035,-0.10336 0.42788,-0.10336 0.398942,0 0.603581,0.24805 0.204638,0.24598 0.204638,0.72554 z"
         id="path119873" />
      <path
         d="m 23.026396,239.48134 q -0.460954,0 -0.638721,0.10542 -0.177766,0.10542 -0.177766,0.35967 0,0.20257 0.132291,0.32246 0.134359,0.11782 0.363802,0.11782 0.31626,0 0.506429,-0.22324 0.192236,-0.22531 0.192236,-0.59738 v -0.0848 z m 0.758609,-0.15709 v 1.32085 h -0.380338 v -0.3514 q -0.130225,0.21084 -0.324528,0.31212 -0.194303,0.0992 -0.475423,0.0992 -0.355533,0 -0.566373,-0.19844 -0.208773,-0.2005 -0.208773,-0.53536 0,-0.39068 0.260449,-0.58912 0.262517,-0.19843 0.781347,-0.19843 h 0.533301 v -0.0372 q 0,-0.26252 -0.173633,-0.40514 -0.171565,-0.1447 -0.483691,-0.1447 -0.198437,0 -0.386539,0.0476 -0.188102,0.0475 -0.361735,0.14262 v -0.3514 q 0.208773,-0.0806 0.405143,-0.11989 0.19637,-0.0413 0.382405,-0.0413 0.502295,0 0.750341,0.26045 0.248047,0.26045 0.248047,0.78962 z"
         id="path119875" />
      <path
         d="m 24.936355,240.29783 v 1.22783 H 24.55395 v -3.19567 h 0.382405 v 0.3514 q 0.119889,-0.2067 0.30179,-0.30592 0.183968,-0.10129 0.438216,-0.10129 0.421679,0 0.684195,0.33487 0.264583,0.33486 0.264583,0.88056 0,0.5457 -0.264583,0.88057 -0.262516,0.33486 -0.684195,0.33486 -0.254248,0 -0.438216,-0.0992 -0.181901,-0.10128 -0.30179,-0.30799 z m 1.293977,-0.80822 q 0,-0.41961 -0.173633,-0.65732 -0.171565,-0.23978 -0.473356,-0.23978 -0.30179,0 -0.475422,0.23978 -0.171566,0.23771 -0.171566,0.65732 0,0.41961 0.171566,0.65939 0.173632,0.23771 0.475422,0.23771 0.301791,0 0.473356,-0.23771 0.173633,-0.23978 0.173633,-0.65939 z"
         id="path119877" />
      <path
         d="m 29.23583,239.39246 v 0.18604 h -1.748729 q 0.02481,0.39274 0.235645,0.59944 0.212906,0.20464 0.591178,0.20464 0.219107,0 0.423746,-0.0537 0.206706,-0.0538 0.409277,-0.16123 v 0.35966 q -0.204639,0.0868 -0.419612,0.1323 -0.214974,0.0455 -0.436149,0.0455 -0.553971,0 -0.878499,-0.32246 -0.32246,-0.32246 -0.32246,-0.8723 0,-0.56844 0.305924,-0.90123 0.307991,-0.33487 0.828889,-0.33487 0.467155,0 0.737939,0.30179 0.272851,0.29973 0.272851,0.81649 z m -0.380338,-0.11162 q -0.0041,-0.31213 -0.1757,-0.49816 -0.169498,-0.18604 -0.450618,-0.18604 -0.318326,0 -0.510562,0.17984 -0.19017,0.17983 -0.219108,0.50643 z"
         id="path119879" />
    </g>
    <g
       aria-label="PW"
       id="text66970"
       style="font-size:4.23333px;line-height:1.25;fill:#1a1a1a;stroke-width:0.264583">
      <path
         d="m 35.500824,238.08829 v 1.15961 h 0.525032 q 0.291455,0 0.450619,-0.15089 0.159163,-0.1509 0.159163,-0.42995 0,-0.27698 -0.159163,-0.42788 -0.159164,-0.15089 -0.450619,-0.15089 z m -0.417545,-0.34314 h 0.942577 q 0.518831,0 0.783414,0.23565 0.266651,0.23358 0.266651,0.68626 0,0.45682 -0.266651,0.6904 -0.264583,0.23357 -0.783414,0.23357 h -0.525032 v 1.24024 h -0.417545 z"
         id="path119882" />
      <path
         d="m 37.361174,237.74515 h 0.42168 l 0.649055,2.60863 0.646988,-2.60863 h 0.469222 l 0.649055,2.60863 0.646989,-2.60863 h 0.423746 l -0.775146,3.08612 h -0.525032 l -0.651122,-2.67891 -0.657324,2.67891 h -0.525032 z"
         id="path119884" />
    </g>
    <g
       aria-label="Vol"
       id="text66974"
       style="font-size:4.23333px;line-height:1.25;fill:#1a1a1a;stroke-width:0.264583">
      <path
         d="m 51.717657,240.86641 -1.178221,-3.08611 h 0.436149 l 0.977717,2.59828 0.979784,-2.59828 h 0.434082 l -1.176155,3.08611 z"
         id="path119887" />
      <path
         d="m 54.36969,238.81796 q -0.305925,0 -0.483691,0.23978 -0.177767,0.23771 -0.177767,0.65319 0,0.41547 0.1757,0.65525 0.177766,0.23771 0.485758,0.23771 0.303857,0 0.481624,-0.23978 0.177766,-0.23977 0.177766,-0.65318 0,-0.41135 -0.177766,-0.65113 -0.177767,-0.24184 -0.481624,-0.24184 z m 0,-0.32246 q 0.496093,0 0.77928,0.32246 0.283186,0.32246 0.283186,0.89297 0,0.56844 -0.283186,0.89296 -0.283187,0.32246 -0.77928,0.32246 -0.498161,0 -0.781347,-0.32246 -0.28112,-0.32452 -0.28112,-0.89296 0,-0.57051 0.28112,-0.89297 0.283186,-0.32246 0.781347,-0.32246 z"
         id="path119889" />
      <path
         d="m 56.062608,237.65007 h 0.380339 v 3.21634 h -0.380339 z"
         id="path119891" />
    </g>
    <g
       aria-label="Shape"
       id="text67007"
       style="font-size:4.23333px;line-height:1.25;fill:#1a1a1a;stroke-width:0.264583">
      <path
         d="m 18.470603,206.31009 v 0.40721 q -0.237711,-0.11368 -0.448551,-0.16949 -0.210839,-0.0558 -0.40721,-0.0558 -0.341064,0 -0.527099,0.1323 -0.183968,0.13229 -0.183968,0.3762 0,0.20464 0.121957,0.31006 0.124023,0.10335 0.467154,0.16743 l 0.252181,0.0517 q 0.467154,0.0889 0.688329,0.31419 0.223242,0.22324 0.223242,0.59944 0,0.44856 -0.30179,0.68007 -0.299723,0.23151 -0.880565,0.23151 -0.219108,0 -0.467155,-0.0496 -0.24598,-0.0496 -0.510563,-0.14676 v -0.42995 q 0.254248,0.14263 0.498161,0.21497 0.243912,0.0724 0.479557,0.0724 0.3576,0 0.551903,-0.14056 0.194304,-0.14056 0.194304,-0.40101 0,-0.22738 -0.14056,-0.35553 -0.138493,-0.12816 -0.456819,-0.19224 l -0.254248,-0.0496 q -0.467155,-0.093 -0.675927,-0.29145 -0.208773,-0.19844 -0.208773,-0.55191 0,-0.40927 0.287321,-0.64492 0.289388,-0.23564 0.795816,-0.23564 0.217041,0 0.44235,0.0393 0.225309,0.0393 0.460953,0.11782 z"
         id="path119894" />
      <path
         d="m 21.215653,207.89759 v 1.39733 h -0.380338 v -1.38493 q 0,-0.32866 -0.128157,-0.49195 -0.128158,-0.1633 -0.384473,-0.1633 -0.307991,0 -0.485758,0.19637 -0.177767,0.19637 -0.177767,0.53537 v 1.30844 h -0.382405 v -3.21634 h 0.382405 v 1.26091 q 0.136426,-0.20878 0.320394,-0.31213 0.186035,-0.10335 0.42788,-0.10335 0.398942,0 0.603581,0.24805 0.204638,0.24598 0.204638,0.72553 z"
         id="path119896" />
      <path
         d="m 23.026394,208.13117 q -0.460954,0 -0.63872,0.10542 -0.177767,0.10542 -0.177767,0.35967 0,0.20257 0.132291,0.32246 0.134359,0.11782 0.363802,0.11782 0.31626,0 0.506429,-0.22324 0.192236,-0.22531 0.192236,-0.59738 v -0.0848 z m 0.758609,-0.1571 v 1.32085 h -0.380338 v -0.3514 q -0.130225,0.21084 -0.324528,0.31213 -0.194303,0.0992 -0.475423,0.0992 -0.355533,0 -0.566373,-0.19844 -0.208772,-0.20051 -0.208772,-0.53537 0,-0.39067 0.260449,-0.58911 0.262516,-0.19844 0.781347,-0.19844 h 0.5333 v -0.0372 q 0,-0.26252 -0.173633,-0.40515 -0.171565,-0.14469 -0.483691,-0.14469 -0.198437,0 -0.386539,0.0475 -0.188102,0.0475 -0.361735,0.14263 v -0.3514 q 0.208773,-0.0806 0.405143,-0.11989 0.19637,-0.0413 0.382405,-0.0413 0.502295,0 0.750341,0.26045 0.248047,0.26045 0.248047,0.78961 z"
         id="path119898" />
      <path
         d="m 24.936353,208.94766 v 1.22783 h -0.382405 v -3.19567 h 0.382405 v 0.3514 q 0.119889,-0.20671 0.30179,-0.30593 0.183968,-0.10128 0.438216,-0.10128 0.421679,0 0.684195,0.33486 0.264584,0.33487 0.264584,0.88057 0,0.5457 -0.264584,0.88056 -0.262516,0.33487 -0.684195,0.33487 -0.254248,0 -0.438216,-0.0992 -0.181901,-0.10129 -0.30179,-0.30799 z m 1.293977,-0.80822 q 0,-0.41961 -0.173633,-0.65733 -0.171565,-0.23977 -0.473355,-0.23977 -0.301791,0 -0.475423,0.23977 -0.171566,0.23772 -0.171566,0.65733 0,0.41961 0.171566,0.65939 0.173632,0.23771 0.475423,0.23771 0.30179,0 0.473355,-0.23771 0.173633,-0.23978 0.173633,-0.65939 z"
         id="path119900" />
      <path
         d="m 29.235828,208.04229 v 0.18603 h -1.748729 q 0.02481,0.39274 0.235645,0.59945 0.212906,0.20464 0.591178,0.20464 0.219108,0 0.423746,-0.0538 0.206706,-0.0537 0.409277,-0.16123 v 0.35967 q -0.204638,0.0868 -0.419612,0.13229 -0.214974,0.0455 -0.436149,0.0455 -0.553971,0 -0.878499,-0.32246 -0.32246,-0.32246 -0.32246,-0.8723 0,-0.56844 0.305924,-0.90124 0.307991,-0.33486 0.828889,-0.33486 0.467155,0 0.737939,0.30179 0.272851,0.29972 0.272851,0.81649 z m -0.380338,-0.11162 q -0.0041,-0.31213 -0.1757,-0.49817 -0.169498,-0.18603 -0.450618,-0.18603 -0.318326,0 -0.510562,0.17983 -0.190169,0.17984 -0.219108,0.50643 z"
         id="path119902" />
    </g>
    <g
       aria-label="PW"
       id="text67011"
       style="font-size:4.23333px;line-height:1.25;fill:#1a1a1a;stroke-width:0.264583">
      <path
         d="m 35.500824,206.92711 v 1.15962 h 0.525032 q 0.291455,0 0.450619,-0.1509 0.159163,-0.15089 0.159163,-0.42995 0,-0.27698 -0.159163,-0.42788 -0.159164,-0.15089 -0.450619,-0.15089 z m -0.417545,-0.34313 h 0.942577 q 0.518831,0 0.783414,0.23564 0.266651,0.23358 0.266651,0.68626 0,0.45682 -0.266651,0.6904 -0.264583,0.23358 -0.783414,0.23358 h -0.525032 v 1.24023 h -0.417545 z"
         id="path119905" />
      <path
         d="m 37.361174,206.58398 h 0.42168 l 0.649055,2.60862 0.646988,-2.60862 h 0.469222 l 0.649055,2.60862 0.646989,-2.60862 h 0.423746 l -0.775146,3.08611 h -0.525032 l -0.651122,-2.6789 -0.657324,2.6789 h -0.525032 z"
         id="path119907" />
    </g>
    <g
       aria-label="Vol"
       id="text67015"
       style="font-size:4.23333px;line-height:1.25;fill:#1a1a1a;stroke-width:0.264583">
      <path
         d="m 51.717657,209.70523 -1.178221,-3.08611 h 0.436149 l 0.977717,2.59829 0.979784,-2.59829 h 0.434082 l -1.176155,3.08611 z"
         id="path119910" />
      <path
         d="m 54.36969,207.65678 q -0.305925,0 -0.483691,0.23978 -0.177767,0.23771 -0.177767,0.65319 0,0.41547 0.1757,0.65525 0.177766,0.23771 0.485758,0.23771 0.303857,0 0.481624,-0.23977 0.177766,-0.23978 0.177766,-0.65319 0,-0.41135 -0.177766,-0.65113 -0.177767,-0.24184 -0.481624,-0.24184 z m 0,-0.32246 q 0.496093,0 0.77928,0.32246 0.283186,0.32246 0.283186,0.89297 0,0.56844 -0.283186,0.89296 -0.283187,0.32247 -0.77928,0.32247 -0.498161,0 -0.781347,-0.32247 -0.28112,-0.32452 -0.28112,-0.89296 0,-0.57051 0.28112,-0.89297 0.283186,-0.32246 0.781347,-0.32246 z"
         id="path119912" />
      <path
         d="m 56.062608,206.48889 h 0.380339 v 3.21634 h -0.380339 z"
         id="path119914" />
    </g>
    <g
       aria-label="Shape"
       id="text67019"
       style="font-size:4.23333px;line-height:1.25;fill:#1a1a1a;stroke-width:0.264583">
      <path
         d="m 18.470603,253.8172 v 0.40721 q -0.237711,-0.11368 -0.448551,-0.16949 -0.210839,-0.0558 -0.40721,-0.0558 -0.341064,0 -0.527099,0.13229 -0.183968,0.13229 -0.183968,0.3762 0,0.20464 0.121957,0.31006 0.124023,0.10335 0.467154,0.16743 l 0.252181,0.0517 q 0.467154,0.0889 0.688329,0.31419 0.223242,0.22324 0.223242,0.59945 0,0.44855 -0.30179,0.68006 -0.299723,0.23151 -0.880565,0.23151 -0.219108,0 -0.467155,-0.0496 -0.24598,-0.0496 -0.510563,-0.14676 v -0.42995 q 0.254248,0.14263 0.498161,0.21497 0.243912,0.0724 0.479557,0.0724 0.3576,0 0.551903,-0.14056 0.194304,-0.14056 0.194304,-0.40101 0,-0.22737 -0.14056,-0.35553 -0.138493,-0.12816 -0.456819,-0.19224 l -0.254248,-0.0496 q -0.467155,-0.093 -0.675927,-0.29145 -0.208773,-0.19844 -0.208773,-0.55191 0,-0.40927 0.287321,-0.64492 0.289388,-0.23564 0.795816,-0.23564 0.217041,0 0.44235,0.0393 0.225309,0.0393 0.460953,0.11782 z"
         id="path119917" />
      <path
         d="m 21.215653,255.4047 v 1.39733 h -0.380338 v -1.38492 q 0,-0.32867 -0.128157,-0.49196 -0.128158,-0.1633 -0.384473,-0.1633 -0.307991,0 -0.485758,0.19637 -0.177767,0.19637 -0.177767,0.53537 v 1.30844 h -0.382405 v -3.21634 h 0.382405 v 1.26091 q 0.136426,-0.20877 0.320394,-0.31213 0.186035,-0.10335 0.42788,-0.10335 0.398942,0 0.603581,0.24805 0.204638,0.24598 0.204638,0.72553 z"
         id="path119919" />
      <path
         d="m 23.026394,255.63828 q -0.460954,0 -0.63872,0.10542 -0.177767,0.10542 -0.177767,0.35967 0,0.20257 0.132291,0.32246 0.134359,0.11782 0.363802,0.11782 0.31626,0 0.506429,-0.22324 0.192236,-0.22531 0.192236,-0.59738 v -0.0847 z m 0.758609,-0.1571 v 1.32085 h -0.380338 v -0.3514 q -0.130225,0.21084 -0.324528,0.31213 -0.194303,0.0992 -0.475423,0.0992 -0.355533,0 -0.566373,-0.19844 -0.208772,-0.2005 -0.208772,-0.53537 0,-0.39067 0.260449,-0.58911 0.262516,-0.19844 0.781347,-0.19844 h 0.5333 v -0.0372 q 0,-0.26252 -0.173633,-0.40515 -0.171565,-0.14469 -0.483691,-0.14469 -0.198437,0 -0.386539,0.0475 -0.188102,0.0475 -0.361735,0.14263 v -0.3514 q 0.208773,-0.0806 0.405143,-0.11989 0.19637,-0.0413 0.382405,-0.0413 0.502295,0 0.750341,0.26045 0.248047,0.26045 0.248047,0.78961 z"
         id="path119921" />
      <path
         d="m 24.936353,256.45477 v 1.22783 h -0.382405 v -3.19567 h 0.382405 v 0.3514 q 0.119889,-0.20671 0.30179,-0.30592 0.183968,-0.10129 0.438216,-0.10129 0.421679,0 0.684195,0.33486 0.264584,0.33487 0.264584,0.88057 0,0.5457 -0.264584,0.88056 -0.262516,0.33487 -0.684195,0.33487 -0.254248,0 -0.438216,-0.0992 -0.181901,-0.10129 -0.30179,-0.30799 z m 1.293977,-0.80822 q 0,-0.41961 -0.173633,-0.65733 -0.171565,-0.23977 -0.473355,-0.23977 -0.301791,0 -0.475423,0.23977 -0.171566,0.23772 -0.171566,0.65733 0,0.41961 0.171566,0.65939 0.173632,0.23771 0.475423,0.23771 0.30179,0 0.473355,-0.23771 0.173633,-0.23978 0.173633,-0.65939 z"
         id="path119923" />
      <path
         d="m 29.235828,255.5494 v 0.18603 h -1.748729 q 0.02481,0.39274 0.235645,0.59945 0.212906,0.20464 0.591178,0.20464 0.219108,0 0.423746,-0.0537 0.206706,-0.0537 0.409277,-0.16123 v 0.35967 q -0.204638,0.0868 -0.419612,0.13229 -0.214974,0.0455 -0.436149,0.0455 -0.553971,0 -0.878499,-0.32246 -0.32246,-0.32246 -0.32246,-0.8723 0,-0.56844 0.305924,-0.90124 0.307991,-0.33486 0.828889,-0.33486 0.467155,0 0.737939,0.30179 0.272851,0.29972 0.272851,0.81649 z m -0.380338,-0.11162 q -0.0041,-0.31213 -0.1757,-0.49816 -0.169498,-0.18604 -0.450618,-0.18604 -0.318326,0 -0.510562,0.17983 -0.190169,0.17984 -0.219108,0.50643 z"
         id="path119925" />
    </g>
    <g
       aria-label="PW"
       id="text67023"
       style="font-size:4.23333px;line-height:1.25;fill:#1a1a1a;stroke-width:0.264583">
      <path
         d="m 35.500824,254.15079 v 1.15961 h 0.525032 q 0.291455,0 0.450619,-0.15089 0.159163,-0.1509 0.159163,-0.42995 0,-0.27698 -0.159163,-0.42788 -0.159164,-0.15089 -0.450619,-0.15089 z m -0.417545,-0.34314 h 0.942577 q 0.518831,0 0.783414,0.23565 0.266651,0.23358 0.266651,0.68626 0,0.45682 -0.266651,0.6904 -0.264583,0.23357 -0.783414,0.23357 h -0.525032 v 1.24024 h -0.417545 z"
         id="path119928" />
      <path
         d="m 37.361174,253.80765 h 0.42168 l 0.649055,2.60863 0.646988,-2.60863 h 0.469222 l 0.649055,2.60863 0.646989,-2.60863 h 0.423746 l -0.775146,3.08612 h -0.525032 l -0.651122,-2.67891 -0.657324,2.67891 h -0.525032 z"
         id="path119930" />
    </g>
    <g
       aria-label="Vol"
       id="text67027"
       style="font-size:4.23333px;line-height:1.25;fill:#1a1a1a;stroke-width:0.264583">
      <path
         d="m 51.717657,256.92892 -1.178221,-3.08611 h 0.436149 l 0.977717,2.59829 0.979784,-2.59829 h 0.434082 l -1.176155,3.08611 z"
         id="path119933" />
      <path
         d="m 54.36969,254.88047 q -0.305925,0 -0.483691,0.23978 -0.177767,0.23771 -0.177767,0.65319 0,0.41548 0.1757,0.65526 0.177766,0.23771 0.485758,0.23771 0.303857,0 0.481624,-0.23978 0.177766,-0.23978 0.177766,-0.65319 0,-0.41134 -0.177766,-0.65112 -0.177767,-0.24185 -0.481624,-0.24185 z m 0,-0.32246 q 0.496093,0 0.77928,0.32246 0.283186,0.32246 0.283186,0.89297 0,0.56844 -0.283186,0.89297 -0.283187,0.32246 -0.77928,0.32246 -0.498161,0 -0.781347,-0.32246 -0.28112,-0.32453 -0.28112,-0.89297 0,-0.57051 0.28112,-0.89297 0.283186,-0.32246 0.781347,-0.32246 z"
         id="path119935" />
      <path
         d="m 56.062608,253.71259 h 0.380339 v 3.21633 h -0.380339 z"
         id="path119937" />
    </g>
    <g
       aria-label="Osc 1
mod"
       id="text78269"
       style="font-size:4.23333px;line-height:1.25;text-align:center;text-anchor:middle;fill:#1a1a1a;stroke-width:0.264583">
      <path
         d="m 3.4125076,228.84221 q -0.4547522,0 -0.7234694,0.339 -0.2666502,0.339 -0.2666502,0.92398 0,0.5829 0.2666502,0.9219 0.2687172,0.339 0.7234694,0.339 0.4547523,0 0.7193354,-0.339 0.2666501,-0.339 0.2666501,-0.9219 0,-0.58498 -0.2666501,-0.92398 -0.2645831,-0.339 -0.7193354,-0.339 z m 0,-0.33899 q 0.6490555,0 1.0376619,0.43615 0.3886065,0.43408 0.3886065,1.16582 0,0.72967 -0.3886065,1.16581 -0.3886064,0.43409 -1.0376619,0.43409 -0.6511225,0 -1.041796,-0.43409 -0.3886064,-0.43408 -0.3886064,-1.16581 0,-0.73174 0.3886064,-1.16582 0.3906735,-0.43615 1.041796,-0.43615 z"
         id="path119940" />
      <path
         d="m 6.9513067,229.39825 v 0.35967 q -0.1612304,-0.0827 -0.334863,-0.12402 -0.1736327,-0.0413 -0.3596677,-0.0413 -0.2831866,0 -0.4258134,0.0868 -0.1405598,0.0868 -0.1405598,0.26045 0,0.13229 0.1012857,0.20877 0.1012857,0.0744 0.40721,0.14263 l 0.1302245,0.0289 q 0.4051428,0.0868 0.5746414,0.24598 0.1715656,0.15709 0.1715656,0.44028 0,0.32246 -0.2563149,0.51056 -0.2542478,0.18811 -0.7007318,0.18811 -0.186035,0 -0.3886065,-0.0372 -0.2005043,-0.0351 -0.4237463,-0.10749 v -0.39274 q 0.2108396,0.10956 0.4154781,0.16537 0.2046385,0.0537 0.4051429,0.0537 0.2687172,0 0.4134111,-0.091 0.1446939,-0.093 0.1446939,-0.26045 0,-0.15503 -0.1054198,-0.23771 -0.1033528,-0.0827 -0.4568193,-0.15916 l -0.1322916,-0.031 q -0.3534665,-0.0744 -0.5105627,-0.22738 -0.1570962,-0.15503 -0.1570962,-0.42374 0,-0.3266 0.2315102,-0.50436 0.2315102,-0.17777 0.6573237,-0.17777 0.2108397,0 0.3968747,0.031 0.186035,0.031 0.3431312,0.093 z"
         id="path119942" />
      <path
         d="m 9.3470238,229.41892 v 0.35554 q -0.1612303,-0.0889 -0.3245277,-0.1323 -0.1612303,-0.0455 -0.3265948,-0.0455 -0.3700029,0 -0.5746414,0.23564 -0.2046385,0.23358 -0.2046385,0.65733 0,0.42374 0.2046385,0.65939 0.2046385,0.23358 0.5746414,0.23358 0.1653645,0 0.3265948,-0.0434 0.1632974,-0.0455 0.3245277,-0.13436 v 0.3514 q -0.1591632,0.0744 -0.3307289,0.11162 -0.1694985,0.0372 -0.3617347,0.0372 -0.522965,0 -0.8309563,-0.32867 -0.3079913,-0.32866 -0.3079913,-0.88676 0,-0.56638 0.3100583,-0.8909 0.3121254,-0.32453 0.853694,-0.32453 0.1756997,0 0.3431312,0.0372 0.1674315,0.0351 0.3245277,0.10748 z"
         id="path119944" />
      <path
         d="m 11.480225,231.29374 h 0.682128 v -2.35437 l -0.742072,0.14882 v -0.38033 l 0.737938,-0.14883 h 0.417546 v 2.73471 h 0.682128 v 0.3514 h -1.777668 z"
         id="path119946" />
      <path
         d="m 5.1974101,235.06612 q 0.1426268,-0.25632 0.3410642,-0.37827 0.1984373,-0.12196 0.4671545,-0.12196 0.3617348,0 0.558105,0.25425 0.1963703,0.25218 0.1963703,0.71933 v 1.39733 H 6.3776988 v -1.38492 q 0,-0.3328 -0.1178221,-0.49403 -0.1178222,-0.16123 -0.3596677,-0.16123 -0.2955889,0 -0.4671546,0.19637 -0.1715656,0.19637 -0.1715656,0.53537 v 1.30844 H 4.8790836 v -1.38492 q 0,-0.33487 -0.1178222,-0.49403 -0.1178222,-0.16123 -0.3638018,-0.16123 -0.2914548,0 -0.4630204,0.19844 -0.1715656,0.19637 -0.1715656,0.5333 v 1.30844 H 3.3804683 v -2.3151 h 0.3824053 v 0.35967 q 0.1302245,-0.21291 0.3121253,-0.31419 0.1819009,-0.10129 0.4320147,-0.10129 0.2521807,0 0.4278805,0.12816 0.1777667,0.12816 0.262516,0.37207 z"
         id="path119948" />
      <path
         d="m 8.4158157,234.88835 q -0.3059242,0 -0.483691,0.23978 -0.1777667,0.23771 -0.1777667,0.65319 0,0.41548 0.1756997,0.65526 0.1777668,0.23771 0.485758,0.23771 0.3038572,0 0.481624,-0.23978 0.1777668,-0.23978 0.1777668,-0.65319 0,-0.41134 -0.1777668,-0.65112 -0.1777668,-0.24185 -0.481624,-0.24185 z m 0,-0.32246 q 0.4960934,0 0.77928,0.32246 0.2831866,0.32246 0.2831866,0.89297 0,0.56844 -0.2831866,0.89297 -0.2831866,0.32246 -0.77928,0.32246 -0.4981604,0 -0.781347,-0.32246 -0.2811195,-0.32453 -0.2811195,-0.89297 0,-0.57051 0.2811195,-0.89297 0.2831866,-0.32246 0.781347,-0.32246 z"
         id="path119950" />
      <path
         d="m 11.632154,234.9731 v -1.25263 h 0.380338 v 3.21633 h -0.380338 v -0.34726 q -0.119889,0.2067 -0.303857,0.30799 -0.181901,0.0992 -0.438216,0.0992 -0.419612,0 -0.684195,-0.33486 -0.2625162,-0.33487 -0.2625162,-0.88057 0,-0.5457 0.2625162,-0.88057 0.264583,-0.33486 0.684195,-0.33486 0.256315,0 0.438216,0.10129 0.183968,0.0992 0.303857,0.30592 z m -1.296044,0.80822 q 0,0.41961 0.171566,0.65939 0.173633,0.23771 0.475423,0.23771 0.30179,0 0.475423,-0.23771 0.173632,-0.23978 0.173632,-0.65939 0,-0.41961 -0.173632,-0.65732 -0.173633,-0.23978 -0.475423,-0.23978 -0.30179,0 -0.475423,0.23978 -0.171566,0.23771 -0.171566,0.65732 z"
         id="path119952" />
    </g>
    <g
       aria-label="Osc 2
mod"
       id="text88337"
       style="font-size:4.23333px;line-height:1.25;text-align:center;text-anchor:middle;fill:#1a1a1a;stroke-width:0.264583">
      <path
         d="m 3.4125076,244.90471 q -0.4547522,0 -0.7234694,0.339 -0.2666502,0.339 -0.2666502,0.92398 0,0.5829 0.2666502,0.9219 0.2687172,0.339 0.7234694,0.339 0.4547523,0 0.7193354,-0.339 0.2666501,-0.339 0.2666501,-0.9219 0,-0.58498 -0.2666501,-0.92398 -0.2645831,-0.339 -0.7193354,-0.339 z m 0,-0.33899 q 0.6490555,0 1.0376619,0.43615 0.3886065,0.43408 0.3886065,1.16582 0,0.72967 -0.3886065,1.16581 -0.3886064,0.43409 -1.0376619,0.43409 -0.6511225,0 -1.041796,-0.43409 -0.3886064,-0.43408 -0.3886064,-1.16581 0,-0.73174 0.3886064,-1.16582 0.3906735,-0.43615 1.041796,-0.43615 z"
         id="path119955" />
      <path
         d="m 6.9513067,245.46075 v 0.35967 q -0.1612304,-0.0827 -0.334863,-0.12402 -0.1736327,-0.0413 -0.3596677,-0.0413 -0.2831866,0 -0.4258134,0.0868 -0.1405598,0.0868 -0.1405598,0.26045 0,0.13229 0.1012857,0.20877 0.1012857,0.0744 0.40721,0.14263 l 0.1302245,0.0289 q 0.4051428,0.0868 0.5746414,0.24598 0.1715656,0.15709 0.1715656,0.44028 0,0.32246 -0.2563149,0.51056 -0.2542478,0.18811 -0.7007318,0.18811 -0.186035,0 -0.3886065,-0.0372 -0.2005043,-0.0351 -0.4237463,-0.10749 v -0.39274 q 0.2108396,0.10956 0.4154781,0.16537 0.2046385,0.0537 0.4051429,0.0537 0.2687172,0 0.4134111,-0.091 0.1446939,-0.093 0.1446939,-0.26045 0,-0.15503 -0.1054198,-0.23771 -0.1033528,-0.0827 -0.4568193,-0.15916 l -0.1322916,-0.031 q -0.3534665,-0.0744 -0.5105627,-0.22738 -0.1570962,-0.15503 -0.1570962,-0.42374 0,-0.3266 0.2315102,-0.50436 0.2315102,-0.17777 0.6573237,-0.17777 0.2108397,0 0.3968747,0.031 0.186035,0.031 0.3431312,0.093 z"
         id="path119957" />
      <path
         d="m 9.3470238,245.48142 v 0.35554 q -0.1612303,-0.0889 -0.3245277,-0.1323 -0.1612303,-0.0455 -0.3265948,-0.0455 -0.3700029,0 -0.5746414,0.23564 -0.2046385,0.23358 -0.2046385,0.65733 0,0.42374 0.2046385,0.65939 0.2046385,0.23358 0.5746414,0.23358 0.1653645,0 0.3265948,-0.0434 0.1632974,-0.0455 0.3245277,-0.13436 v 0.3514 q -0.1591632,0.0744 -0.3307289,0.11162 -0.1694985,0.0372 -0.3617347,0.0372 -0.522965,0 -0.8309563,-0.32867 -0.3079913,-0.32866 -0.3079913,-0.88676 0,-0.56638 0.3100583,-0.8909 0.3121254,-0.32453 0.853694,-0.32453 0.1756997,0 0.3431312,0.0372 0.1674315,0.0351 0.3245277,0.10748 z"
         id="path119959" />
      <path
         d="m 11.767546,247.35624 h 1.457274 v 0.3514 h -1.959569 v -0.3514 q 0.237712,-0.24598 0.646989,-0.65939 0.411344,-0.41548 0.516764,-0.53537 0.200504,-0.22531 0.279052,-0.38033 0.08062,-0.1571 0.08062,-0.308 0,-0.24598 -0.173632,-0.401 -0.171566,-0.15503 -0.448551,-0.15503 -0.196371,0 -0.415479,0.0682 -0.21704,0.0682 -0.465087,0.2067 v -0.42167 q 0.252181,-0.10129 0.471289,-0.15297 0.219107,-0.0517 0.401008,-0.0517 0.479557,0 0.764811,0.23978 0.285254,0.23977 0.285254,0.64078 0,0.19017 -0.07235,0.36174 -0.07028,0.1695 -0.258382,0.40101 -0.05168,0.0599 -0.328662,0.34726 -0.276986,0.28526 -0.781347,0.79995 z"
         id="path119961" />
      <path
         d="m 5.1974101,251.12862 q 0.1426268,-0.25632 0.3410642,-0.37827 0.1984373,-0.12196 0.4671545,-0.12196 0.3617348,0 0.558105,0.25425 0.1963703,0.25218 0.1963703,0.71933 v 1.39733 H 6.3776988 v -1.38492 q 0,-0.3328 -0.1178221,-0.49403 -0.1178222,-0.16123 -0.3596677,-0.16123 -0.2955889,0 -0.4671546,0.19637 -0.1715656,0.19637 -0.1715656,0.53537 v 1.30844 H 4.8790836 v -1.38492 q 0,-0.33487 -0.1178222,-0.49403 -0.1178222,-0.16123 -0.3638018,-0.16123 -0.2914548,0 -0.4630204,0.19844 -0.1715656,0.19637 -0.1715656,0.5333 v 1.30844 H 3.3804683 v -2.3151 h 0.3824053 v 0.35967 q 0.1302245,-0.21291 0.3121253,-0.31419 0.1819009,-0.10129 0.4320147,-0.10129 0.2521807,0 0.4278805,0.12816 0.1777667,0.12816 0.262516,0.37207 z"
         id="path119963" />
      <path
         d="m 8.4158157,250.95085 q -0.3059242,0 -0.483691,0.23978 -0.1777667,0.23771 -0.1777667,0.65319 0,0.41548 0.1756997,0.65526 0.1777668,0.23771 0.485758,0.23771 0.3038572,0 0.481624,-0.23978 0.1777668,-0.23978 0.1777668,-0.65319 0,-0.41134 -0.1777668,-0.65112 -0.1777668,-0.24185 -0.481624,-0.24185 z m 0,-0.32246 q 0.4960934,0 0.77928,0.32246 0.2831866,0.32246 0.2831866,0.89297 0,0.56844 -0.2831866,0.89297 -0.2831866,0.32246 -0.77928,0.32246 -0.4981604,0 -0.781347,-0.32246 -0.2811195,-0.32453 -0.2811195,-0.89297 0,-0.57051 0.2811195,-0.89297 0.2831866,-0.32246 0.781347,-0.32246 z"
         id="path119965" />
      <path
         d="m 11.632154,251.0356 v -1.25263 h 0.380338 v 3.21633 h -0.380338 v -0.34726 q -0.119889,0.2067 -0.303857,0.30799 -0.181901,0.0992 -0.438216,0.0992 -0.419612,0 -0.684195,-0.33486 -0.2625162,-0.33487 -0.2625162,-0.88057 0,-0.5457 0.2625162,-0.88057 0.264583,-0.33486 0.684195,-0.33486 0.256315,0 0.438216,0.10129 0.183968,0.0992 0.303857,0.30592 z m -1.296044,0.80822 q 0,0.41961 0.171566,0.65939 0.173633,0.23771 0.475423,0.23771 0.30179,0 0.475423,-0.23771 0.173632,-0.23978 0.173632,-0.65939 0,-0.41961 -0.173632,-0.65732 -0.173633,-0.23978 -0.475423,-0.23978 -0.30179,0 -0.475423,0.23978 -0.171566,0.23771 -0.171566,0.65732 z"
         id="path119967" />
    </g>
    <g
       aria-label="Sync"
       id="text88456"
       style="font-size:4.23333px;line-height:1.25;fill:#1a1a1a;stroke-width:0.264583">
      <path
         d="m 20.015729,222.33548 v 0.40721 q -0.237711,-0.11368 -0.448551,-0.16949 -0.210839,-0.0558 -0.40721,-0.0558 -0.341064,0 -0.527099,0.13229 -0.183968,0.13229 -0.183968,0.3762 0,0.20464 0.121957,0.31006 0.124023,0.10335 0.467154,0.16743 l 0.252181,0.0517 q 0.467154,0.0889 0.688329,0.31419 0.223242,0.22324 0.223242,0.59945 0,0.44855 -0.30179,0.68006 -0.299723,0.23151 -0.880565,0.23151 -0.219108,0 -0.467155,-0.0496 -0.24598,-0.0496 -0.510563,-0.14676 v -0.42995 q 0.254248,0.14263 0.498161,0.21497 0.243912,0.0724 0.479557,0.0724 0.3576,0 0.551903,-0.14056 0.194304,-0.14056 0.194304,-0.40101 0,-0.22737 -0.14056,-0.35553 -0.138493,-0.12816 -0.456819,-0.19224 l -0.254248,-0.0496 q -0.467155,-0.093 -0.675927,-0.29145 -0.208773,-0.19844 -0.208773,-0.55191 0,-0.40927 0.287321,-0.64492 0.289388,-0.23564 0.795816,-0.23564 0.217041,0 0.44235,0.0393 0.225309,0.0393 0.460953,0.11782 z"
         id="path119970" />
      <path
         d="m 21.799598,225.53529 q -0.16123,0.41341 -0.314192,0.5395 -0.152962,0.12609 -0.409277,0.12609 h -0.303857 v -0.31833 h 0.223242 q 0.157096,0 0.243912,-0.0744 0.08682,-0.0744 0.192236,-0.3514 l 0.06821,-0.17363 -0.936376,-2.2779 h 0.403076 l 0.723469,1.81074 0.72347,-1.81074 h 0.403076 z"
         id="path119972" />
      <path
         d="m 25.266051,223.92298 v 1.39733 h -0.380338 v -1.38492 q 0,-0.32867 -0.128158,-0.49196 -0.128157,-0.1633 -0.384472,-0.1633 -0.307991,0 -0.485758,0.19637 -0.177767,0.19637 -0.177767,0.53537 v 1.30844 h -0.382405 v -2.3151 h 0.382405 v 0.35967 q 0.136426,-0.20877 0.320394,-0.31213 0.186035,-0.10335 0.42788,-0.10335 0.398942,0 0.60358,0.24805 0.204639,0.24598 0.204639,0.72553 z"
         id="path119974" />
      <path
         d="m 27.690707,223.09409 v 0.35554 q -0.161231,-0.0889 -0.324528,-0.13229 -0.16123,-0.0455 -0.326595,-0.0455 -0.370003,0 -0.574641,0.23564 -0.204639,0.23358 -0.204639,0.65733 0,0.42374 0.204639,0.65939 0.204638,0.23358 0.574641,0.23358 0.165365,0 0.326595,-0.0434 0.163297,-0.0455 0.324528,-0.13436 v 0.3514 q -0.159164,0.0744 -0.330729,0.11162 -0.169499,0.0372 -0.361735,0.0372 -0.522965,0 -0.830956,-0.32866 -0.307992,-0.32867 -0.307992,-0.88677 0,-0.56637 0.310059,-0.8909 0.312125,-0.32453 0.853694,-0.32453 0.175699,0 0.343131,0.0372 0.167431,0.0351 0.324528,0.10748 z"
         id="path119976" />
    </g>
    <g
       aria-label="FM"
       id="text88460"
       style="font-size:4.23333px;line-height:1.25;fill:#1a1a1a;stroke-width:0.264583">
      <path
         d="m 35.546299,222.64657 h 1.773534 v 0.3514 h -1.355988 v 0.9095 h 1.223697 v 0.3514 h -1.223697 v 1.47381 h -0.417546 z"
         id="path119979" />
      <path
         d="m 37.981291,222.64657 h 0.622183 l 0.787549,2.10013 0.791682,-2.10013 h 0.622184 v 3.08611 h -0.40721 v -2.70991 l -0.795817,2.11667 H 39.18225 l -0.795816,-2.11667 v 2.70991 h -0.405143 z"
         id="path119981" />
    </g>
    <g
       aria-label="RM"
       id="text88464"
       style="font-size:4.23333px;line-height:1.25;fill:#1a1a1a;stroke-width:0.264583">
      <path
         d="m 52.072156,224.28574 q 0.134359,0.0455 0.260449,0.19431 0.128158,0.14882 0.256315,0.40927 l 0.423747,0.84336 H 52.564116 L 52.169308,224.941 q -0.152962,-0.31006 -0.297656,-0.41135 -0.142627,-0.10128 -0.390673,-0.10128 h -0.454753 v 1.30431 h -0.417545 v -3.08611 h 0.942577 q 0.529167,0 0.789616,0.22117 0.260449,0.22118 0.260449,0.66766 0,0.29146 -0.136426,0.48369 -0.134359,0.19224 -0.392741,0.26665 z m -1.04593,-1.29604 v 1.09554 h 0.525032 q 0.301791,0 0.454753,-0.13849 0.155029,-0.14056 0.155029,-0.41135 0,-0.27078 -0.155029,-0.40721 -0.152962,-0.13849 -0.454753,-0.13849 z"
         id="path119984" />
      <path
         d="m 53.550101,222.64657 h 0.622184 l 0.787548,2.10013 0.791682,-2.10013 h 0.622184 v 3.08611 h -0.40721 v -2.70991 l -0.795816,2.11667 H 54.75106 l -0.795816,-2.11667 v 2.70991 h -0.405143 z"
         id="path119986" />
    </g>
    <g
       aria-label="Sync"
       id="text97132"
       style="font-size:4.23333px;line-height:1.25;fill:#1a1a1a;stroke-width:0.264583">
      <path
         d="m 20.015729,269.96033 v 0.40721 q -0.237711,-0.11369 -0.448551,-0.1695 -0.210839,-0.0558 -0.40721,-0.0558 -0.341064,0 -0.527099,0.13229 -0.183968,0.1323 -0.183968,0.37621 0,0.20464 0.121957,0.31006 0.124023,0.10335 0.467154,0.16743 l 0.252181,0.0517 q 0.467154,0.0889 0.688329,0.3142 0.223242,0.22324 0.223242,0.59944 0,0.44855 -0.30179,0.68006 -0.299723,0.23151 -0.880565,0.23151 -0.219108,0 -0.467155,-0.0496 -0.24598,-0.0496 -0.510563,-0.14677 v -0.42994 q 0.254248,0.14262 0.498161,0.21497 0.243912,0.0724 0.479557,0.0724 0.3576,0 0.551903,-0.14056 0.194304,-0.14056 0.194304,-0.40101 0,-0.22738 -0.14056,-0.35553 -0.138493,-0.12816 -0.456819,-0.19224 l -0.254248,-0.0496 q -0.467155,-0.093 -0.675927,-0.29146 -0.208773,-0.19843 -0.208773,-0.5519 0,-0.40928 0.287321,-0.64492 0.289388,-0.23564 0.795816,-0.23564 0.217041,0 0.44235,0.0393 0.225309,0.0393 0.460953,0.11782 z"
         id="path119989" />
      <path
         d="m 21.799598,273.16013 q -0.16123,0.41341 -0.314192,0.53951 -0.152962,0.12609 -0.409277,0.12609 h -0.303857 v -0.31833 h 0.223242 q 0.157096,0 0.243912,-0.0744 0.08682,-0.0744 0.192236,-0.3514 l 0.06821,-0.17364 -0.936376,-2.27789 h 0.403076 l 0.723469,1.81074 0.72347,-1.81074 h 0.403076 z"
         id="path119991" />
      <path
         d="m 25.266051,271.54783 v 1.39733 h -0.380338 v -1.38493 q 0,-0.32866 -0.128158,-0.49196 -0.128157,-0.16329 -0.384472,-0.16329 -0.307991,0 -0.485758,0.19637 -0.177767,0.19637 -0.177767,0.53536 v 1.30845 h -0.382405 v -2.3151 h 0.382405 v 0.35967 q 0.136426,-0.20878 0.320394,-0.31213 0.186035,-0.10335 0.42788,-0.10335 0.398942,0 0.60358,0.24804 0.204639,0.24598 0.204639,0.72554 z"
         id="path119993" />
      <path
         d="m 27.690707,270.71894 v 0.35553 q -0.161231,-0.0889 -0.324528,-0.13229 -0.16123,-0.0455 -0.326595,-0.0455 -0.370003,0 -0.574641,0.23564 -0.204639,0.23358 -0.204639,0.65733 0,0.42374 0.204639,0.65939 0.204638,0.23357 0.574641,0.23357 0.165365,0 0.326595,-0.0434 0.163297,-0.0455 0.324528,-0.13436 v 0.3514 q -0.159164,0.0744 -0.330729,0.11162 -0.169499,0.0372 -0.361735,0.0372 -0.522965,0 -0.830956,-0.32866 -0.307992,-0.32866 -0.307992,-0.88676 0,-0.56638 0.310059,-0.89091 0.312125,-0.32452 0.853694,-0.32452 0.175699,0 0.343131,0.0372 0.167431,0.0351 0.324528,0.10749 z"
         id="path119995" />
    </g>
    <g
       aria-label="FM"
       id="text97136"
       style="font-size:4.23333px;line-height:1.25;fill:#1a1a1a;stroke-width:0.264583">
      <path
         d="m 35.546299,269.8935 h 1.773534 v 0.3514 h -1.355988 v 0.9095 h 1.223697 v 0.3514 h -1.223697 v 1.47381 h -0.417546 z"
         id="path119998" />
      <path
         d="m 37.981291,269.8935 h 0.622183 l 0.787549,2.10013 0.791682,-2.10013 h 0.622184 v 3.08611 h -0.40721 v -2.70991 l -0.795817,2.11667 H 39.18225 l -0.795816,-2.11667 v 2.70991 h -0.405143 z"
         id="path120000" />
    </g>
    <g
       aria-label="RM"
       id="text97140"
       style="font-size:4.23333px;line-height:1.25;fill:#1a1a1a;stroke-width:0.264583">
      <path
         d="m 52.072156,271.53268 q 0.134359,0.0455 0.260449,0.1943 0.128158,0.14883 0.256315,0.40928 l 0.423747,0.84335 h -0.448551 l -0.394808,-0.79168 q -0.152962,-0.31006 -0.297656,-0.41134 -0.142627,-0.10129 -0.390673,-0.10129 h -0.454753 v 1.30431 h -0.417545 v -3.08611 h 0.942577 q 0.529167,0 0.789616,0.22118 0.260449,0.22117 0.260449,0.66765 0,0.29146 -0.136426,0.4837 -0.134359,0.19223 -0.392741,0.26665 z m -1.04593,-1.29605 v 1.09554 h 0.525032 q 0.301791,0 0.454753,-0.13849 0.155029,-0.14056 0.155029,-0.41135 0,-0.27078 -0.155029,-0.40721 -0.152962,-0.13849 -0.454753,-0.13849 z"
         id="path120003" />
      <path
         d="m 53.550101,269.8935 h 0.622184 l 0.787548,2.10013 0.791682,-2.10013 h 0.622184 v 3.08611 h -0.40721 v -2.70991 l -0.795816,2.11667 H 54.75106 l -0.795816,-2.11667 v 2.70991 h -0.405143 z"
         id="path120005" />
    </g>
    <g
       aria-label="V/Oct"
       id="text97224"
       style="font-size:4.23333px;line-height:1.25;fill:#1a1a1a;stroke-width:0.264583">
      <path
         d="m 18.284569,289.5303 -1.178221,-3.08611 h 0.436148 l 0.977717,2.59829 0.979785,-2.59829 h 0.434081 l -1.176154,3.08611 z"
         id="path120008" />
      <path
         d="m 21.044088,286.44419 h 0.3514 l -1.074869,3.47885 h -0.3514 z"
         id="path120010" />
      <path
         d="m 23.063602,286.72738 q -0.454753,0 -0.72347,0.33899 -0.26665,0.339 -0.26665,0.92398 0,0.58291 0.26665,0.9219 0.268717,0.339 0.72347,0.339 0.454752,0 0.719335,-0.339 0.26665,-0.33899 0.26665,-0.9219 0,-0.58498 -0.26665,-0.92398 -0.264583,-0.33899 -0.719335,-0.33899 z m 0,-0.339 q 0.649055,0 1.037662,0.43615 0.388606,0.43408 0.388606,1.16582 0,0.72967 -0.388606,1.16582 -0.388607,0.43408 -1.037662,0.43408 -0.651123,0 -1.041796,-0.43408 -0.388607,-0.43408 -0.388607,-1.16582 0,-0.73174 0.388607,-1.16582 0.390673,-0.43615 1.041796,-0.43615 z"
         id="path120012" />
      <path
         d="m 26.79257,287.30409 v 0.35553 q -0.161231,-0.0889 -0.324528,-0.13229 -0.161231,-0.0455 -0.326595,-0.0455 -0.370003,0 -0.574641,0.23565 -0.204639,0.23357 -0.204639,0.65732 0,0.42375 0.204639,0.65939 0.204638,0.23358 0.574641,0.23358 0.165364,0 0.326595,-0.0434 0.163297,-0.0455 0.324528,-0.13436 v 0.3514 q -0.159164,0.0744 -0.330729,0.11162 -0.169499,0.0372 -0.361735,0.0372 -0.522965,0 -0.830956,-0.32866 -0.307992,-0.32867 -0.307992,-0.88677 0,-0.56637 0.310059,-0.8909 0.312125,-0.32453 0.853694,-0.32453 0.175699,0 0.343131,0.0372 0.167431,0.0351 0.324528,0.10749 z"
         id="path120014" />
      <path
         d="m 27.830232,286.55788 v 0.65732 h 0.783414 v 0.29559 h -0.783414 v 1.25677 q 0,0.28319 0.07648,0.3638 0.07855,0.0806 0.31626,0.0806 h 0.390673 v 0.31832 h -0.390673 q -0.440283,0 -0.607715,-0.16329 -0.167431,-0.16537 -0.167431,-0.59945 v -1.25677 h -0.279053 v -0.29559 h 0.279053 v -0.65732 z"
         id="path120016" />
    </g>
    <g
       aria-label="V/Oct"
       id="text97228"
       style="font-size:4.23333px;line-height:1.25;fill:#1a1a1a;stroke-width:0.264583">
      <path
         d="m 33.600165,289.5303 -1.178222,-3.08611 h 0.436149 l 0.977717,2.59829 0.979784,-2.59829 h 0.434082 l -1.176154,3.08611 z"
         id="path120019" />
      <path
         d="m 36.359684,286.44419 h 0.351399 l -1.074868,3.47885 h -0.3514 z"
         id="path120021" />
      <path
         d="m 38.379197,286.72738 q -0.454752,0 -0.723469,0.33899 -0.26665,0.339 -0.26665,0.92398 0,0.58291 0.26665,0.9219 0.268717,0.339 0.723469,0.339 0.454752,0 0.719336,-0.339 0.26665,-0.33899 0.26665,-0.9219 0,-0.58498 -0.26665,-0.92398 -0.264584,-0.33899 -0.719336,-0.33899 z m 0,-0.339 q 0.649056,0 1.037662,0.43615 0.388607,0.43408 0.388607,1.16582 0,0.72967 -0.388607,1.16582 -0.388606,0.43408 -1.037662,0.43408 -0.651122,0 -1.041796,-0.43408 -0.388606,-0.43408 -0.388606,-1.16582 0,-0.73174 0.388606,-1.16582 0.390674,-0.43615 1.041796,-0.43615 z"
         id="path120023" />
      <path
         d="m 42.108165,287.30409 v 0.35553 q -0.16123,-0.0889 -0.324528,-0.13229 -0.16123,-0.0455 -0.326594,-0.0455 -0.370003,0 -0.574642,0.23565 -0.204638,0.23357 -0.204638,0.65732 0,0.42375 0.204638,0.65939 0.204639,0.23358 0.574642,0.23358 0.165364,0 0.326594,-0.0434 0.163298,-0.0455 0.324528,-0.13436 v 0.3514 q -0.159163,0.0744 -0.330729,0.11162 -0.169498,0.0372 -0.361734,0.0372 -0.522966,0 -0.830957,-0.32866 -0.307991,-0.32867 -0.307991,-0.88677 0,-0.56637 0.310058,-0.8909 0.312126,-0.32453 0.853694,-0.32453 0.1757,0 0.343131,0.0372 0.167432,0.0351 0.324528,0.10749 z"
         id="path120025" />
      <path
         d="m 43.145828,286.55788 v 0.65732 h 0.783414 v 0.29559 h -0.783414 v 1.25677 q 0,0.28319 0.07648,0.3638 0.07855,0.0806 0.316259,0.0806 h 0.390674 v 0.31832 h -0.390674 q -0.440283,0 -0.607714,-0.16329 -0.167432,-0.16537 -0.167432,-0.59945 v -1.25677 H 42.48437 v -0.29559 h 0.279052 v -0.65732 z"
         id="path120027" />
    </g>
    <g
       aria-label="Out"
       id="text114692"
       style="font-size:4.23333px;line-height:1.25;fill:#e5e5e5;stroke-width:0.264583">
      <path
         d="m 51.253601,286.53557 q -0.454752,0 -0.723469,0.339 -0.26665,0.339 -0.26665,0.92397 0,0.58291 0.26665,0.92191 0.268717,0.339 0.723469,0.339 0.454752,0 0.719336,-0.339 0.26665,-0.339 0.26665,-0.92191 0,-0.58497 -0.26665,-0.92397 -0.264584,-0.339 -0.719336,-0.339 z m 0,-0.33899 q 0.649056,0 1.037662,0.43615 0.388607,0.43408 0.388607,1.16581 0,0.72968 -0.388607,1.16582 -0.388606,0.43409 -1.037662,0.43409 -0.651122,0 -1.041796,-0.43409 -0.388606,-0.43408 -0.388606,-1.16582 0,-0.73173 0.388606,-1.16581 0.390674,-0.43615 1.041796,-0.43615 z"
         id="path120030" />
      <path
         d="m 53.277249,288.42486 v -1.40146 h 0.380338 v 1.38699 q 0,0.32866 0.128157,0.49403 0.128158,0.1633 0.384473,0.1633 0.307991,0 0.485758,-0.19637 0.179833,-0.19637 0.179833,-0.53537 v -1.31258 h 0.380339 v 2.3151 h -0.380339 v -0.35553 q -0.138492,0.21084 -0.32246,0.31419 -0.181901,0.10129 -0.423747,0.10129 -0.398941,0 -0.605647,-0.24805 -0.206705,-0.24805 -0.206705,-0.72554 z m 0.957046,-1.45727 z"
         id="path120032" />
      <path
         d="m 56.375765,286.36608 v 0.65732 h 0.783414 v 0.29559 h -0.783414 v 1.25677 q 0,0.28318 0.07648,0.3638 0.07855,0.0806 0.316259,0.0806 h 0.390674 v 0.31833 h -0.390674 q -0.440283,0 -0.607714,-0.1633 -0.167432,-0.16536 -0.167432,-0.59944 v -1.25677 h -0.279052 v -0.29559 h 0.279052 v -0.65732 z"
         id="path120034" />
    </g>
  </g>
  <g
     inkscape:groupmode="layer"
     id="layer2"
     inkscape:label="components"
     style="display:inline">
    <circle
       style="display:inline;opacity:1;vector-effect:none;fill:#ff0000;fill-opacity:1;fill-rule:evenodd;stroke:none;stroke-width:0.643563;stroke-linecap:butt;stroke-linejoin:miter;stroke-miterlimit:4;stroke-dasharray:none;stroke-dashoffset:0;stroke-opacity:1;paint-order:normal"
       id="path4954"
       cx="22.935596"
       cy="16.062019"
       r="2.5742509"
       inkscape:label="Osc1Shape" />
    <circle
       r="2.5742495"
       cy="112.43751"
       cx="22.935596"
       id="circle4956"
       style="display:inline;opacity:1;vector-effect:none;fill:#00ff00;fill-opacity:1;fill-rule:evenodd;stroke:none;stroke-width:0.643562;stroke-linecap:butt;stroke-linejoin:miter;stroke-miterlimit:4;stroke-dasharray:none;stroke-dashoffset:0;stroke-opacity:1;paint-order:normal"
       inkscape:label="Osc1VOct" />
    <ellipse
       style="display:inline;opacity:1;vector-effect:none;fill:#0000ff;fill-opacity:1;fill-rule:evenodd;stroke:none;stroke-width:0.511551;stroke-linecap:butt;stroke-linejoin:miter;stroke-miterlimit:4;stroke-dasharray:none;stroke-dashoffset:0;stroke-opacity:1;paint-order:normal"
       id="circle4958"
       cx="53.491192"
       cy="112.43751"
       inkscape:label="out"
       rx="2.046"
       ry="2.0462041" />
    <circle
       style="display:inline;opacity:1;vector-effect:none;fill:#ff0000;fill-opacity:1;fill-rule:evenodd;stroke:none;stroke-width:0.524751;stroke-linecap:butt;stroke-linejoin:miter;stroke-miterlimit:4;stroke-dasharray:none;stroke-dashoffset:0;stroke-opacity:1;paint-order:normal"
       id="circle18800"
       cx="22.935596"
       cy="48.187515"
       r="2.0990024"
       inkscape:label="Sync" />
    <circle
       style="display:inline;opacity:1;vector-effect:none;fill:#ff0000;fill-opacity:1;fill-rule:evenodd;stroke:none;stroke-width:0.603959;stroke-linecap:butt;stroke-linejoin:miter;stroke-miterlimit:4;stroke-dasharray:none;stroke-dashoffset:0;stroke-opacity:1;paint-order:normal"
       id="circle18802"
       cx="53.491192"
       cy="48.187515"
       r="2.4158347"
       inkscape:label="Ringmod" />
    <circle
       r="2.5214543"
       cy="112.43751"
       cx="38.175594"
       id="circle18806"
       style="display:inline;opacity:1;vector-effect:none;fill:#00ff00;fill-opacity:1;fill-rule:evenodd;stroke:none;stroke-width:0.630364;stroke-linecap:butt;stroke-linejoin:miter;stroke-miterlimit:4;stroke-dasharray:none;stroke-dashoffset:0;stroke-opacity:1;paint-order:normal"
       inkscape:label="Osc2VOct" />
    <circle
       style="display:inline;opacity:1;vector-effect:none;fill:#ff0000;fill-opacity:1;fill-rule:evenodd;stroke:none;stroke-width:0.524751;stroke-linecap:butt;stroke-linejoin:miter;stroke-miterlimit:4;stroke-dasharray:none;stroke-dashoffset:0;stroke-opacity:1;paint-order:normal"
       id="circle18808"
       cx="38.175594"
       cy="16.062019"
       r="2.0990052"
       inkscape:label="Osc1PW" />
    <circle
       style="display:inline;opacity:1;vector-effect:none;fill:#ff0000;fill-opacity:1;fill-rule:evenodd;stroke:none;stroke-width:0.524751;stroke-linecap:butt;stroke-linejoin:miter;stroke-miterlimit:4;stroke-dasharray:none;stroke-dashoffset:0;stroke-opacity:1;paint-order:normal"
       id="circle39493"
       cx="38.175594"
       cy="48.187515"
       r="2.0990052"
       inkscape:label="Crossmod" />
    <circle
       style="display:inline;opacity:1;vector-effect:none;fill:#ff0000;fill-opacity:1;fill-rule:evenodd;stroke:none;stroke-width:0.524751;stroke-linecap:butt;stroke-linejoin:miter;stroke-miterlimit:4;stroke-dasharray:none;stroke-dashoffset:0;stroke-opacity:1;paint-order:normal"
       id="circle2135"
       cx="53.491192"
       cy="16.062019"
       r="2.0990052"
       inkscape:label="Osc1Vol" />
    <circle
       style="display:inline;opacity:1;vector-effect:none;fill:#ff0000;fill-opacity:1;fill-rule:evenodd;stroke:none;stroke-width:0.643563;stroke-linecap:butt;stroke-linejoin:miter;stroke-miterlimit:4;stroke-dasharray:none;stroke-dashoffset:0;stroke-opacity:1;paint-order:normal"
       id="circle2246"
       cx="22.935595"
       cy="32.125015"
       r="2.5742509"
       inkscape:label="Osc2Shape" />
    <circle
       style="display:inline;opacity:1;vector-effect:none;fill:#ff0000;fill-opacity:1;fill-rule:evenodd;stroke:none;stroke-width:0.524751;stroke-linecap:butt;stroke-linejoin:miter;stroke-miterlimit:4;stroke-dasharray:none;stroke-dashoffset:0;stroke-opacity:1;paint-order:normal"
       id="circle2248"
       cx="38.175594"
       cy="32.125015"
       r="2.0990052"
       inkscape:label="Osc2PW" />
    <circle
       style="display:inline;opacity:1;vector-effect:none;fill:#ff0000;fill-opacity:1;fill-rule:evenodd;stroke:none;stroke-width:0.524751;stroke-linecap:butt;stroke-linejoin:miter;stroke-miterlimit:4;stroke-dasharray:none;stroke-dashoffset:0;stroke-opacity:1;paint-order:normal"
       id="circle2250"
       cx="53.491192"
       cy="32.125015"
       r="2.0990052"
       inkscape:label="Osc2Vol" />
    <circle
       r="2.0450828"
       cy="64.250015"
       cx="22.935596"
       id="circle2268"
       style="display:inline;opacity:1;vector-effect:none;fill:#00ff00;fill-opacity:1;fill-rule:evenodd;stroke:none;stroke-width:0.51127;stroke-linecap:butt;stroke-linejoin:miter;stroke-miterlimit:4;stroke-dasharray:none;stroke-dashoffset:0;stroke-opacity:1;paint-order:normal"
       inkscape:label="Osc1Shape" />
    <circle
       r="2.5214543"
       cy="64.250015"
       cx="38.175594"
       id="circle2270"
       style="display:inline;opacity:1;vector-effect:none;fill:#00ff00;fill-opacity:1;fill-rule:evenodd;stroke:none;stroke-width:0.630364;stroke-linecap:butt;stroke-linejoin:miter;stroke-miterlimit:4;stroke-dasharray:none;stroke-dashoffset:0;stroke-opacity:1;paint-order:normal"
       inkscape:label="Osc1PW" />
    <circle
       r="2.5214543"
       cy="64.250015"
       cx="53.491192"
       id="circle2432"
       style="display:inline;opacity:1;vector-effect:none;fill:#00ff00;fill-opacity:1;fill-rule:evenodd;stroke:none;stroke-width:0.630364;stroke-linecap:butt;stroke-linejoin:miter;stroke-miterlimit:4;stroke-dasharray:none;stroke-dashoffset:0;stroke-opacity:1;paint-order:normal"
       inkscape:label="Osc1Vol" />
    <circle
       r="2.0450828"
       cy="80.312515"
       cx="22.935596"
       id="circle2434"
       style="display:inline;opacity:1;vector-effect:none;fill:#00ff00;fill-opacity:1;fill-rule:evenodd;stroke:none;stroke-width:0.51127;stroke-linecap:butt;stroke-linejoin:miter;stroke-miterlimit:4;stroke-dasharray:none;stroke-dashoffset:0;stroke-opacity:1;paint-order:normal"
       inkscape:label="Osc2Shape" />
    <circle
       r="2.5214543"
       cy="80.312515"
       cx="38.175594"
       id="circle2436"
       style="display:inline;opacity:1;vector-effect:none;fill:#00ff00;fill-opacity:1;fill-rule:evenodd;stroke:none;stroke-width:0.630364;stroke-linecap:butt;stroke-linejoin:miter;stroke-miterlimit:4;stroke-dasharray:none;stroke-dashoffset:0;stroke-opacity:1;paint-order:normal"
       inkscape:label="Osc2PW" />
    <circle
       r="2.5214543"
       cy="80.312515"
       cx="53.491192"
       id="circle2438"
       style="display:inline;opacity:1;vector-effect:none;fill:#00ff00;fill-opacity:1;fill-rule:evenodd;stroke:none;stroke-width:0.630364;stroke-linecap:butt;stroke-linejoin:miter;stroke-miterlimit:4;stroke-dasharray:none;stroke-dashoffset:0;stroke-opacity:1;paint-order:normal"
       inkscape:label="Osc2Vol" />
    <circle
       r="2.0450828"
       cy="96.375015"
       cx="22.935595"
       id="circle2440"
       style="display:inline;opacity:1;vector-effect:none;fill:#00ff00;fill-opacity:1;fill-rule:evenodd;stroke:none;stroke-width:0.51127;stroke-linecap:butt;stroke-linejoin:miter;stroke-miterlimit:4;stroke-dasharray:none;stroke-dashoffset:0;stroke-opacity:1;paint-order:normal"
       inkscape:label="Sync" />
    <circle
       r="2.5214543"
       cy="96.375015"
       cx="38.175594"
       id="circle2442"
       style="display:inline;opacity:1;vector-effect:none;fill:#00ff00;fill-opacity:1;fill-rule:evenodd;stroke:none;stroke-width:0.630364;stroke-linecap:butt;stroke-linejoin:miter;stroke-miterlimit:4;stroke-dasharray:none;stroke-dashoffset:0;stroke-opacity:1;paint-order:normal"
       inkscape:label="Crossmod" />
    <circle
       r="2.5214543"
       cy="96.375015"
       cx="53.491192"
       id="circle2444"
       style="display:inline;opacity:1;vector-effect:none;fill:#00ff00;fill-opacity:1;fill-rule:evenodd;stroke:none;stroke-width:0.630364;stroke-linecap:butt;stroke-linejoin:miter;stroke-miterlimit:4;stroke-dasharray:none;stroke-dashoffset:0;stroke-opacity:1;paint-order:normal"
       inkscape:label="Ringmod" />
  </g>
</svg>
