<?xml version="1.0" encoding="UTF-8" standalone="no"?>
<!-- Created with Inkscape (http://www.inkscape.org/) -->

<svg
   width="15.24mm"
   height="128.5mm"
   viewBox="0 0 15.240001 128.50002"
   version="1.1"
   id="svg8"
   inkscape:version="1.1.2 (0a00cf5339, 2022-02-04)"
   sodipodi:docname="Tuner.svg"
   xmlns:inkscape="http://www.inkscape.org/namespaces/inkscape"
   xmlns:sodipodi="http://sodipodi.sourceforge.net/DTD/sodipodi-0.dtd"
   xmlns="http://www.w3.org/2000/svg"
   xmlns:svg="http://www.w3.org/2000/svg"
   xmlns:rdf="http://www.w3.org/1999/02/22-rdf-syntax-ns#"
   xmlns:cc="http://creativecommons.org/ns#"
   xmlns:dc="http://purl.org/dc/elements/1.1/">
  <defs
     id="defs2">
    <marker
       style="overflow:visible"
       id="Arrow2Mend"
       refX="0"
       refY="0"
       orient="auto"
       inkscape:stockid="Arrow2Mend"
       inkscape:isstock="true">
      <path
         transform="scale(-0.6)"
         d="M 8.7185878,4.0337352 -2.2072895,0.01601326 8.7185884,-4.0017078 c -1.7454984,2.3720609 -1.7354408,5.6174519 -6e-7,8.035443 z"
         style="fill:context-stroke;fill-rule:evenodd;stroke:context-stroke;stroke-width:0.625;stroke-linejoin:round"
         id="path59252" />
    </marker>
    <marker
       style="overflow:visible"
       id="Arrow1Lend"
       refX="0"
       refY="0"
       orient="auto"
       inkscape:stockid="Arrow1Lend"
       inkscape:isstock="true">
      <path
         transform="matrix(-0.8,0,0,-0.8,-10,0)"
         style="fill:context-stroke;fill-rule:evenodd;stroke:context-stroke;stroke-width:1pt"
         d="M 0,0 5,-5 -12.5,0 5,5 Z"
         id="path59228" />
    </marker>
    <marker
       style="overflow:visible"
       id="Arrow1Lstart"
       refX="0"
       refY="0"
       orient="auto"
       inkscape:stockid="Arrow1Lstart"
       inkscape:isstock="true">
      <path
         transform="matrix(0.8,0,0,0.8,10,0)"
         style="fill:context-stroke;fill-rule:evenodd;stroke:context-stroke;stroke-width:1pt"
         d="M 0,0 5,-5 -12.5,0 5,5 Z"
         id="path59225" />
    </marker>
  </defs>
  <sodipodi:namedview
     id="base"
     pagecolor="#ffffff"
     bordercolor="#666666"
     borderopacity="1.0"
     inkscape:pageopacity="0.0"
     inkscape:pageshadow="2"
     inkscape:zoom="2"
     inkscape:cx="-3"
     inkscape:cy="250.25"
     inkscape:document-units="mm"
     inkscape:current-layer="layer2"
     showgrid="false"
     units="mm"
     inkscape:snap-bbox="true"
     inkscape:snap-page="true"
     inkscape:bbox-nodes="false"
     inkscape:snap-bbox-edge-midpoints="false"
     inkscape:window-width="2560"
     inkscape:window-height="1379"
     inkscape:window-x="0"
     inkscape:window-y="0"
     inkscape:window-maximized="1"
     inkscape:snap-bbox-midpoints="true"
     inkscape:snap-nodes="false"
     inkscape:pagecheckerboard="0"
     width="15.24mm"
     showguides="true"
     inkscape:guide-bbox="true"
     inkscape:lockguides="false">
    <sodipodi:guide
       position="7.62,0"
       orientation="128.5,0"
       id="guide19493" />
    <sodipodi:guide
       position="15.24,0"
       orientation="128.5,0"
       id="guide19495" />
    <sodipodi:guide
       position="22.86,0"
       orientation="128.5,0"
       id="guide19497" />
    <sodipodi:guide
       position="20.616837,7.5401774"
       orientation="0,30.48"
       id="guide19499" />
    <sodipodi:guide
       position="0,16.0625"
       orientation="0,30.48"
       id="guide19501" />
    <sodipodi:guide
       position="0,24.0938"
       orientation="0,30.48"
       id="guide19503" />
    <sodipodi:guide
       position="0,32.125"
       orientation="0,30.48"
       id="guide19505" />
    <sodipodi:guide
       position="0,40.1562"
       orientation="0,30.48"
       id="guide19507" />
    <sodipodi:guide
       position="0,48.1875"
       orientation="0,30.48"
       id="guide19509" />
    <sodipodi:guide
       position="0,56.2188"
       orientation="0,30.48"
       id="guide19511" />
    <sodipodi:guide
       position="0,64.25"
       orientation="0,30.48"
       id="guide19513" />
    <sodipodi:guide
       position="0,72.2812"
       orientation="0,30.48"
       id="guide19515" />
    <sodipodi:guide
       position="0,80.3125"
       orientation="0,30.48"
       id="guide19517" />
    <sodipodi:guide
       position="0,88.3438"
       orientation="0,30.48"
       id="guide19519" />
    <sodipodi:guide
       position="0,96.375"
       orientation="0,30.48"
       id="guide19521" />
    <sodipodi:guide
       position="0,104.406"
       orientation="0,30.48"
       id="guide19523" />
    <sodipodi:guide
       position="0,112.438"
       orientation="0,30.48"
       id="guide19525" />
    <sodipodi:guide
       position="0,120.469"
       orientation="0,30.48"
       id="guide19527" />
  </sodipodi:namedview>
  <metadata
     id="metadata5">
    <rdf:RDF>
      <cc:Work
         rdf:about="">
        <dc:format>image/svg+xml</dc:format>
        <dc:type
           rdf:resource="http://purl.org/dc/dcmitype/StillImage" />
      </cc:Work>
    </rdf:RDF>
  </metadata>
  <g
     inkscape:label="Layer 1"
     inkscape:groupmode="layer"
     id="layer1"
     transform="translate(0,-168.49998)"
     style="display:inline">
    <rect
       style="display:inline;opacity:1;vector-effect:none;fill:#e6e6e6;fill-opacity:1;fill-rule:evenodd;stroke:none;stroke-width:0.459165;stroke-linecap:butt;stroke-linejoin:miter;stroke-miterlimit:4;stroke-dasharray:none;stroke-dashoffset:0;stroke-opacity:1;paint-order:normal"
       id="rect420"
       width="15.239998"
       height="128.5"
       x="5.9211732e-17"
       y="168.49997" />
    <text
       xml:space="preserve"
       style="font-style:normal;font-weight:normal;font-size:10.5833px;line-height:1.25;font-family:sans-serif;fill:#000000;fill-opacity:1;stroke:none;stroke-width:0.264583"
       x="11.954887"
       y="222.33797"
       id="text65289"><tspan
         sodipodi:role="line"
         id="tspan65287"
         style="stroke-width:0.264583"
         x="11.954887"
         y="222.33797" /></text>
    <text
       xml:space="preserve"
       style="font-style:normal;font-weight:normal;font-size:10.5833px;line-height:1.25;font-family:sans-serif;fill:#000000;fill-opacity:1;stroke:none;stroke-width:0.264583"
       x="-3.6755412"
       y="276.99722"
       id="text80285"><tspan
         sodipodi:role="line"
         id="tspan80283"
         style="stroke-width:0.264583"
         x="-3.6755412"
         y="276.99722" /></text>
    <rect
       id="rect80851"
       width="13.240591"
       height="15.404287"
       x="0.99970347"
       y="275.61279"
       style="fill:#1a1a1a;fill-opacity:1;stroke-width:0.252188"
       ry="2.1133845" />
    <text
       xml:space="preserve"
       style="font-style:normal;font-weight:normal;font-size:10.5833px;line-height:1.25;font-family:sans-serif;fill:#000000;fill-opacity:1;stroke:none;stroke-width:0.264583"
       x="-18.465246"
       y="239.39552"
       id="text24631"><tspan
         sodipodi:role="line"
         id="tspan24629"
         style="stroke-width:0.264583"
         x="-18.465246"
         y="239.39552" /></text>
    <text
       xml:space="preserve"
       style="font-style:normal;font-weight:normal;font-size:10.5833px;line-height:1.25;font-family:sans-serif;fill:#000000;fill-opacity:1;stroke:none;stroke-width:0.264583"
       x="-8.2293472"
       y="291.03128"
       id="text36741"><tspan
         sodipodi:role="line"
         id="tspan36739"
         style="stroke-width:0.264583"
         x="-8.2293472"
         y="291.03128" /></text>
    <text
       xml:space="preserve"
       style="font-size:4.5861px;line-height:1.25;font-family:sans-serif;stroke-width:0.264583"
       x="-46.432713"
       y="171.27922"
       id="text30865"><tspan
         sodipodi:role="line"
         id="tspan30863"
         style="stroke-width:0.264583"
         x="-46.432713"
         y="171.27922" /></text>
    <text
       xml:space="preserve"
       style="font-size:4.5861px;line-height:1.25;font-family:sans-serif;stroke-width:0.264583"
       x="-7.3879061"
       y="174.43088"
       id="text42867"><tspan
         sodipodi:role="line"
         id="tspan42865"
         style="stroke-width:0.264583"
         x="-7.3879061"
         y="174.43088" /></text>
    <g
       aria-label="Oct"
       id="text49180"
       style="font-size:4.23333px;line-height:1.25;fill:#1a1a1a;stroke-width:0.264583">
      <path
         d="m 5.5601753,190.30428 q -0.4547522,0 -0.7234694,0.339 -0.2666502,0.339 -0.2666502,0.92397 0,0.58291 0.2666502,0.92191 0.2687172,0.339 0.7234694,0.339 0.4547522,0 0.7193353,-0.339 0.2666502,-0.339 0.2666502,-0.92191 0,-0.58497 -0.2666502,-0.92397 -0.2645831,-0.339 -0.7193353,-0.339 z m 0,-0.339 q 0.6490554,0 1.0376619,0.43615 0.3886064,0.43408 0.3886064,1.16582 0,0.72967 -0.3886064,1.16582 -0.3886065,0.43408 -1.0376619,0.43408 -0.6511225,0 -1.041796,-0.43408 -0.3886064,-0.43408 -0.3886064,-1.16582 0,-0.73174 0.3886064,-1.16582 0.3906735,-0.43615 1.041796,-0.43615 z"
         id="path68354" />
      <path
         d="m 9.2891434,190.88099 v 0.35553 q -0.1612303,-0.0889 -0.3245277,-0.13229 -0.1612303,-0.0455 -0.3265948,-0.0455 -0.3700029,0 -0.5746414,0.23564 -0.2046385,0.23358 -0.2046385,0.65732 0,0.42375 0.2046385,0.65939 0.2046385,0.23358 0.5746414,0.23358 0.1653645,0 0.3265948,-0.0434 0.1632974,-0.0455 0.3245277,-0.13435 v 0.35139 q -0.1591632,0.0744 -0.3307288,0.11163 -0.1694986,0.0372 -0.3617348,0.0372 -0.522965,0 -0.8309563,-0.32866 -0.3079913,-0.32866 -0.3079913,-0.88677 0,-0.56637 0.3100584,-0.8909 0.3121253,-0.32452 0.8536939,-0.32452 0.1756997,0 0.3431312,0.0372 0.1674315,0.0351 0.3245277,0.10749 z"
         id="path68356" />
      <path
         d="m 10.326806,190.13478 v 0.65733 h 0.783414 v 0.29558 h -0.783414 v 1.25677 q 0,0.28319 0.07648,0.36381 0.07855,0.0806 0.316259,0.0806 h 0.390674 v 0.31833 h -0.390674 q -0.440283,0 -0.607714,-0.1633 -0.1674316,-0.16536 -0.1674316,-0.59945 v -1.25677 H 9.6653479 v -0.29558 h 0.2790525 v -0.65733 z"
         id="path68358" />
    </g>
    <g
       aria-label="Semi"
       id="text55640"
       style="font-size:4.23333px;line-height:1.25;fill:#1a1a1a;stroke-width:0.264583">
      <path
         d="m 4.6486067,206.22014 v 0.40721 q -0.2377113,-0.11369 -0.448551,-0.1695 -0.2108397,-0.0558 -0.40721,-0.0558 -0.3410641,0 -0.5270991,0.1323 -0.183968,0.13229 -0.183968,0.3762 0,0.20464 0.1219563,0.31006 0.1240233,0.10335 0.4671546,0.16743 l 0.2521807,0.0517 q 0.4671546,0.0889 0.6883295,0.31419 0.223242,0.22324 0.223242,0.59944 0,0.44856 -0.3017901,0.68007 -0.299723,0.23151 -0.8805656,0.23151 -0.2191079,0 -0.4671546,-0.0496 -0.2459796,-0.0496 -0.5105627,-0.14676 v -0.42995 q 0.2542478,0.14262 0.4981604,0.21497 0.2439125,0.0724 0.4795569,0.0724 0.3576006,0 0.5519038,-0.14056 0.1943032,-0.14056 0.1943032,-0.40101 0,-0.22738 -0.1405598,-0.35553 -0.1384927,-0.12816 -0.4568192,-0.19224 l -0.2542479,-0.0496 q -0.4671545,-0.093 -0.6759271,-0.29145 -0.2087726,-0.19844 -0.2087726,-0.55191 0,-0.40927 0.2873207,-0.64492 0.2893878,-0.23564 0.7958164,-0.23564 0.2170408,0 0.4423499,0.0393 0.225309,0.0393 0.4609533,0.11782 z"
         id="path68361" />
      <path
         d="m 7.449467,207.95234 v 0.18603 H 5.700738 q 0.024805,0.39274 0.2356443,0.59945 0.2129067,0.20464 0.5911779,0.20464 0.2191079,0 0.4237464,-0.0538 0.2067055,-0.0537 0.409277,-0.16123 v 0.35967 q -0.2046385,0.0868 -0.4196123,0.13229 -0.2149738,0.0455 -0.4361487,0.0455 -0.5539709,0 -0.8784986,-0.32246 -0.3224607,-0.32247 -0.3224607,-0.8723 0,-0.56844 0.3059242,-0.90124 0.3079913,-0.33486 0.8288893,-0.33486 0.4671546,0 0.7379388,0.30179 0.2728514,0.29972 0.2728514,0.81649 z m -0.3803382,-0.11163 q -0.00413,-0.31212 -0.1756998,-0.49816 -0.1694985,-0.18603 -0.4506181,-0.18603 -0.3183265,0 -0.5105627,0.17983 -0.1901691,0.17984 -0.2191079,0.50643 z"
         id="path68363" />
      <path
         d="m 9.8761902,207.33429 q 0.1426268,-0.25632 0.3410638,-0.37828 0.198438,-0.12195 0.467155,-0.12195 0.361735,0 0.558105,0.25425 0.19637,0.25218 0.19637,0.71933 v 1.39733 h -0.382405 v -1.38493 q 0,-0.33279 -0.117822,-0.49402 -0.117822,-0.16123 -0.359668,-0.16123 -0.295589,0 -0.467154,0.19637 -0.171566,0.19637 -0.171566,0.53537 v 1.30844 H 9.5578637 v -1.38493 q 0,-0.33486 -0.1178222,-0.49402 -0.1178221,-0.16123 -0.3638018,-0.16123 -0.2914548,0 -0.4630204,0.19843 -0.1715656,0.19638 -0.1715656,0.53331 v 1.30844 H 8.0592484 v -2.3151 h 0.3824053 v 0.35967 q 0.1302245,-0.21291 0.3121254,-0.3142 0.1819009,-0.10128 0.4320146,-0.10128 0.2521808,0 0.4278805,0.12816 0.1777668,0.12815 0.262516,0.37207 z"
         id="path68365" />
      <path
         d="m 12.197493,206.88987 h 0.380339 v 2.3151 h -0.380339 z m 0,-0.90124 h 0.380339 v 0.48163 h -0.380339 z"
         id="path68367" />
    </g>
    <g
       aria-label="Fine"
       id="text58350"
       style="font-size:4.23333px;line-height:1.25;fill:#1a1a1a;stroke-width:0.264583">
      <path
         d="m 3.6450512,222.12421 h 1.7735336 v 0.3514 H 4.0625964 v 0.90951 h 1.2236969 v 0.3514 H 4.0625964 v 1.47381 H 3.6450512 Z"
         id="path68370" />
      <path
         d="M 5.7555148,222.89522 H 6.135853 v 2.31511 H 5.7555148 Z m 0,-0.90123 H 6.135853 v 0.48162 H 5.7555148 Z"
         id="path68372" />
      <path
         d="m 8.8560982,223.813 v 1.39733 H 8.4757599 v -1.38493 q 0,-0.32866 -0.1281574,-0.49196 -0.1281575,-0.1633 -0.3844723,-0.1633 -0.3079913,0 -0.4857581,0.19637 -0.1777668,0.19637 -0.1777668,0.53537 v 1.30845 H 6.9172001 v -2.31511 h 0.3824052 v 0.35967 q 0.1364257,-0.20877 0.3203936,-0.31212 0.186035,-0.10336 0.4278805,-0.10336 0.3989418,0 0.6035803,0.24805 0.2046385,0.24598 0.2046385,0.72554 z"
         id="path68374" />
      <path
         d="m 11.594947,223.95769 v 0.18604 H 9.8462177 q 0.024805,0.39274 0.2356443,0.59944 0.212907,0.20464 0.591178,0.20464 0.219108,0 0.423746,-0.0537 0.206706,-0.0538 0.409277,-0.16123 v 0.35966 q -0.204638,0.0868 -0.419612,0.1323 -0.214974,0.0455 -0.436149,0.0455 -0.553971,0 -0.8784983,-0.32246 -0.3224607,-0.32246 -0.3224607,-0.8723 0,-0.56844 0.3059242,-0.90123 0.3079908,-0.33487 0.8288888,-0.33487 0.467155,0 0.737939,0.30179 0.272852,0.29973 0.272852,0.81649 z m -0.380339,-0.11162 q -0.0041,-0.31212 -0.175699,-0.49816 -0.169499,-0.18603 -0.450618,-0.18603 -0.318327,0 -0.510563,0.17983 -0.1901692,0.17983 -0.219108,0.50643 z"
         id="path68376" />
    </g>
    <g
       aria-label="V/Oct"
       id="text61168"
       style="font-size:4.23333px;line-height:1.25;fill:#1a1a1a;stroke-width:0.264583">
      <path
         d="m 3.0445714,256.81439 -1.1782216,-3.08611 h 0.4361487 l 0.9777173,2.59829 0.9797843,-2.59829 h 0.4340817 l -1.1761547,3.08611 z"
         id="path68379" />
      <path
         d="M 5.8040906,253.72828 H 6.15549 l -1.0748689,3.47885 H 4.7292217 Z"
         id="path68381" />
      <path
         d="m 7.8236039,254.01146 q -0.4547522,0 -0.7234695,0.339 -0.2666501,0.339 -0.2666501,0.92398 0,0.58291 0.2666501,0.9219 0.2687173,0.339 0.7234695,0.339 0.4547522,0 0.7193353,-0.339 0.2666502,-0.33899 0.2666502,-0.9219 0,-0.58498 -0.2666502,-0.92398 -0.2645831,-0.339 -0.7193353,-0.339 z m 0,-0.33899 q 0.6490554,0 1.0376619,0.43615 0.3886064,0.43408 0.3886064,1.16582 0,0.72967 -0.3886064,1.16582 -0.3886065,0.43408 -1.0376619,0.43408 -0.6511225,0 -1.041796,-0.43408 -0.3886065,-0.43409 -0.3886065,-1.16582 0,-0.73174 0.3886065,-1.16582 0.3906735,-0.43615 1.041796,-0.43615 z"
         id="path68383" />
      <path
         d="m 11.552572,254.58817 v 0.35554 q -0.161231,-0.0889 -0.324528,-0.13229 -0.16123,-0.0455 -0.326595,-0.0455 -0.370003,0 -0.574641,0.23564 -0.204639,0.23358 -0.204639,0.65733 0,0.42374 0.204639,0.65939 0.204638,0.23358 0.574641,0.23358 0.165365,0 0.326595,-0.0434 0.163297,-0.0455 0.324528,-0.13436 v 0.3514 q -0.159164,0.0744 -0.330729,0.11162 -0.169499,0.0372 -0.361735,0.0372 -0.522965,0 -0.830956,-0.32867 -0.3079914,-0.32866 -0.3079914,-0.88676 0,-0.56638 0.3100584,-0.8909 0.312125,-0.32453 0.853694,-0.32453 0.1757,0 0.343131,0.0372 0.167432,0.0351 0.324528,0.10748 z"
         id="path68385" />
      <path
         d="m 12.590234,253.84197 v 0.65732 h 0.783414 v 0.29559 h -0.783414 v 1.25677 q 0,0.28319 0.07648,0.3638 0.07855,0.0806 0.31626,0.0806 h 0.390673 v 0.31832 h -0.390673 q -0.440283,0 -0.607715,-0.1633 -0.167431,-0.16536 -0.167431,-0.59944 v -1.25677 h -0.279053 v -0.29559 h 0.279053 v -0.65732 z"
         id="path68387" />
    </g>
    <g
       aria-label="V/Oct"
       id="text67878"
       style="font-size:4.23333px;line-height:1.25;fill:#e5e5e5;stroke-width:0.264583">
      <path
         d="m 3.0445714,289.34259 -1.1782216,-3.08611 h 0.4361487 l 0.9777173,2.59829 0.9797843,-2.59829 h 0.4340817 l -1.1761547,3.08611 z"
         id="path68419" />
      <path
         d="M 5.8040906,286.25648 H 6.15549 l -1.0748689,3.47885 H 4.7292217 Z"
         id="path68421" />
      <path
         d="m 7.8236039,286.53966 q -0.4547522,0 -0.7234695,0.339 -0.2666501,0.339 -0.2666501,0.92397 0,0.58291 0.2666501,0.92191 0.2687173,0.339 0.7234695,0.339 0.4547522,0 0.7193353,-0.339 0.2666502,-0.339 0.2666502,-0.92191 0,-0.58497 -0.2666502,-0.92397 -0.2645831,-0.339 -0.7193353,-0.339 z m 0,-0.33899 q 0.6490554,0 1.0376619,0.43614 0.3886064,0.43409 0.3886064,1.16582 0,0.72967 -0.3886064,1.16582 -0.3886065,0.43408 -1.0376619,0.43408 -0.6511225,0 -1.041796,-0.43408 -0.3886065,-0.43408 -0.3886065,-1.16582 0,-0.73173 0.3886065,-1.16582 0.3906735,-0.43614 1.041796,-0.43614 z"
         id="path68423" />
      <path
         d="m 11.552572,287.11637 v 0.35554 q -0.161231,-0.0889 -0.324528,-0.1323 -0.16123,-0.0455 -0.326595,-0.0455 -0.370003,0 -0.574641,0.23564 -0.204639,0.23358 -0.204639,0.65733 0,0.42374 0.204639,0.65939 0.204638,0.23357 0.574641,0.23357 0.165365,0 0.326595,-0.0434 0.163297,-0.0455 0.324528,-0.13436 v 0.3514 q -0.159164,0.0744 -0.330729,0.11162 -0.169499,0.0372 -0.361735,0.0372 -0.522965,0 -0.830956,-0.32866 -0.3079914,-0.32866 -0.3079914,-0.88676 0,-0.56638 0.3100584,-0.8909 0.312125,-0.32453 0.853694,-0.32453 0.1757,0 0.343131,0.0372 0.167432,0.0351 0.324528,0.10749 z"
         id="path68425" />
      <path
         d="m 12.590234,286.37016 v 0.65733 h 0.783414 v 0.29559 h -0.783414 v 1.25677 q 0,0.28318 0.07648,0.3638 0.07855,0.0806 0.31626,0.0806 h 0.390673 v 0.31833 h -0.390673 q -0.440283,0 -0.607715,-0.1633 -0.167431,-0.16536 -0.167431,-0.59944 v -1.25677 h -0.279053 v -0.29559 h 0.279053 v -0.65733 z"
         id="path68427" />
    </g>
    <text
       xml:space="preserve"
       style="font-size:4.5861px;line-height:1.25;font-family:sans-serif;stroke-width:0.264583"
       x="49.93232"
       y="269.05331"
       id="text14934"><tspan
         sodipodi:role="line"
         id="tspan14932"
         style="stroke-width:0.264583" /></text>
    <g
       aria-label="Fine"
       id="text4194"
       style="font-size:4.23333px;line-height:1.25;fill-opacity:1;stroke-width:0.264583;fill:#1a1a1a">
      <path
         d="m 3.6450512,269.81144 h 1.7735336 v 0.3514 H 4.0625964 v 0.9095 h 1.2236969 v 0.3514 H 4.0625964 v 1.47381 H 3.6450512 Z"
         id="path19852"
         style="fill:#1a1a1a;fill-opacity:1" />
      <path
         d="M 5.7555148,270.58245 H 6.135853 v 2.3151 H 5.7555148 Z m 0,-0.90124 H 6.135853 v 0.48163 H 5.7555148 Z"
         id="path19854"
         style="fill:#1a1a1a;fill-opacity:1" />
      <path
         d="m 8.8560982,271.50022 v 1.39733 H 8.4757599 v -1.38492 q 0,-0.32867 -0.1281574,-0.49196 -0.1281575,-0.1633 -0.3844723,-0.1633 -0.3079913,0 -0.4857581,0.19637 -0.1777668,0.19637 -0.1777668,0.53537 v 1.30844 H 6.9172001 v -2.3151 h 0.3824052 v 0.35967 q 0.1364257,-0.20877 0.3203936,-0.31213 0.186035,-0.10335 0.4278805,-0.10335 0.3989418,0 0.6035803,0.24805 0.2046385,0.24598 0.2046385,0.72553 z"
         id="path19856"
         style="fill:#1a1a1a;fill-opacity:1" />
      <path
         d="m 11.594947,271.64492 v 0.18603 H 9.8462177 q 0.024805,0.39274 0.2356443,0.59945 0.212907,0.20464 0.591178,0.20464 0.219108,0 0.423746,-0.0537 0.206706,-0.0537 0.409277,-0.16123 v 0.35967 q -0.204638,0.0868 -0.419612,0.13229 -0.214974,0.0455 -0.436149,0.0455 -0.553971,0 -0.8784983,-0.32246 -0.3224607,-0.32246 -0.3224607,-0.8723 0,-0.56844 0.3059242,-0.90124 0.3079908,-0.33486 0.8288888,-0.33486 0.467155,0 0.737939,0.30179 0.272852,0.29972 0.272852,0.81649 z m -0.380339,-0.11162 q -0.0041,-0.31213 -0.175699,-0.49816 -0.169499,-0.18604 -0.450618,-0.18604 -0.318327,0 -0.510563,0.17983 -0.1901692,0.17984 -0.219108,0.50643 z"
         id="path19858"
         style="fill:#1a1a1a;fill-opacity:1" />
    </g>
    <g
       aria-label="Tune"
       id="text24295"
       style="font-weight:bold;font-size:4.93889px;line-height:1.25;-inkscape-font-specification:'sans-serif Bold';text-align:center;text-anchor:middle;fill-opacity:1;stroke-width:0.264583;fill:#1a1a1a">
      <path
         d="m 1.1473519,174.69579 h 3.3183167 v 0.70177 H 3.2719428 v 2.8987 H 2.3434894 v -2.8987 H 1.1473519 Z"
         id="path31154"
         style="fill:#1a1a1a;fill-opacity:1" />
      <path
         d="m 4.3354439,177.24482 v -1.64951 h 0.8681643 v 0.27009 q 0,0.21946 -0.00241,0.55225 -0.00241,0.33039 -0.00241,0.44132 0,0.32556 0.016881,0.47026 0.016881,0.14228 0.057878,0.20739 0.053055,0.0844 0.1374594,0.13023 0.086816,0.0458 0.1977485,0.0458 0.2700956,0 0.4244359,-0.2074 0.1543403,-0.20739 0.1543403,-0.57636 v -1.3336 h 0.8633411 v 2.70095 H 6.1875277 v -0.39067 q -0.195337,0.23633 -0.4147896,0.34968 -0.2170411,0.11093 -0.4799019,0.11093 -0.4678441,0 -0.713824,-0.28698 -0.2435683,-0.28697 -0.2435683,-0.8344 z"
         id="path31156"
         style="fill:#1a1a1a;fill-opacity:1" />
      <path
         d="m 10.595873,176.65158 v 1.64468 H 9.7277085 v -0.26768 -0.99115 q 0,-0.34968 -0.016881,-0.48232 -0.014469,-0.13263 -0.053055,-0.19533 -0.050643,-0.0844 -0.1374593,-0.13023 -0.086816,-0.0482 -0.1977485,-0.0482 -0.2700956,0 -0.4244359,0.20981 -0.1543403,0.20739 -0.1543403,0.57636 v 1.32877 H 7.8804479 v -2.70095 H 8.743789 v 0.3955 q 0.1953369,-0.23634 0.4147896,-0.34727 0.2194526,-0.11334 0.484725,-0.11334 0.4678444,0 0.7090004,0.28697 0.243569,0.28698 0.243569,0.83441 z"
         id="path31158"
         style="fill:#1a1a1a;fill-opacity:1" />
      <path
         d="m 14.092645,176.93855 v 0.24598 h -2.018482 q 0.03135,0.30386 0.219453,0.45579 0.188102,0.15193 0.525722,0.15193 0.272507,0 0.557072,-0.0796 0.286976,-0.082 0.588422,-0.24598 v 0.66559 q -0.306269,0.11575 -0.612538,0.17363 -0.306269,0.0603 -0.612538,0.0603 -0.733116,0 -1.140671,-0.37138 -0.405144,-0.37379 -0.405144,-1.04662 0,-0.66077 0.397909,-1.03939 0.40032,-0.37861 1.099675,-0.37861 0.636653,0 1.017681,0.38344 0.383439,0.38344 0.383439,1.02491 z m -0.887456,-0.28697 q 0,-0.24598 -0.144695,-0.3955 -0.142282,-0.15193 -0.373792,-0.15193 -0.250803,0 -0.407555,0.14228 -0.156752,0.13987 -0.195337,0.40515 z"
         id="path31160"
         style="fill:#1a1a1a;fill-opacity:1" />
    </g>
    <g
       aria-label="MUS-X"
       id="text38608"
       style="font-style:italic;font-weight:bold;font-size:2.82222px;line-height:1.25;-inkscape-font-specification:'sans-serif Bold Italic';display:inline;stroke-width:0.264583;fill:#1a1a1a;fill-opacity:1"
       transform="translate(-7.812235,-61.389261)">
      <path
         d="m 10.684896,293.10906 h 0.675238 l 0.248047,1.10106 0.691775,-1.10106 h 0.67386 l -0.412033,2.05741 h -0.501606 l 0.300412,-1.50481 -0.695908,1.10932 h -0.336242 l -0.25218,-1.10932 -0.300412,1.50481 h -0.502984 z"
         id="path53546"
         style="fill:#1a1a1a;fill-opacity:1" />
      <path
         d="m 13.493336,293.10906 h 0.530544 l -0.246668,1.23335 q -0.05099,0.25493 0.0096,0.36518 0.06201,0.10886 0.250803,0.10886 0.190169,0 0.294899,-0.10886 0.106109,-0.11025 0.157097,-0.36518 l 0.246668,-1.23335 h 0.530545 l -0.246669,1.23335 q -0.08819,0.43683 -0.350021,0.65043 -0.261827,0.2136 -0.711068,0.2136 -0.447862,0 -0.62425,-0.2136 -0.176389,-0.2136 -0.08819,-0.65043 z"
         id="path53548"
         style="fill:#1a1a1a;fill-opacity:1" />
      <path
         d="m 17.203012,293.17383 -0.08682,0.43546 q -0.15434,-0.0758 -0.308681,-0.11438 -0.152962,-0.0386 -0.296278,-0.0386 -0.190169,0 -0.292143,0.0524 -0.100597,0.0524 -0.122646,0.16261 -0.01654,0.0827 0.03583,0.12954 0.05237,0.0455 0.206706,0.0786 l 0.216352,0.0455 q 0.329351,0.0689 0.445106,0.20946 0.117133,0.14056 0.06615,0.39963 -0.0689,0.34038 -0.304546,0.50712 -0.234266,0.16537 -0.649055,0.16537 -0.195682,0 -0.385851,-0.0372 -0.188791,-0.0372 -0.370692,-0.11024 l 0.08957,-0.44787 q 0.17501,0.10474 0.348643,0.15848 0.173633,0.0524 0.344509,0.0524 0.173633,0 0.276986,-0.0579 0.104731,-0.0579 0.125401,-0.16537 0.01929,-0.0965 -0.03307,-0.14883 -0.05099,-0.0524 -0.230132,-0.0937 l -0.197059,-0.0455 q -0.2949,-0.0661 -0.409277,-0.21084 -0.112999,-0.14469 -0.06477,-0.38998 0.06201,-0.3073 0.293522,-0.47267 0.23151,-0.16536 0.60358,-0.16536 0.169499,0 0.343132,0.0262 0.17501,0.0248 0.355533,0.0758 z"
         id="path53550"
         style="fill:#1a1a1a;fill-opacity:1" />
      <path
         d="m 17.502046,294.15362 h 0.865407 l -0.07993,0.401 h -0.865408 z"
         id="path53552"
         style="fill:#1a1a1a;fill-opacity:1" />
      <path
         d="m 19.702771,294.11641 0.504361,1.05006 H 19.65454 l -0.340376,-0.7028 -0.61736,0.7028 h -0.555349 l 0.923285,-1.05006 -0.483691,-1.00735 h 0.553971 l 0.316948,0.66284 0.58291,-0.66284 h 0.556727 z"
         id="path53554"
         style="fill:#1a1a1a;fill-opacity:1" />
    </g>
  </g>
  <g
     inkscape:groupmode="layer"
     id="layer2"
     inkscape:label="components"
     style="display:none">
    <circle
       style="display:inline;opacity:1;vector-effect:none;fill:#ff0000;fill-opacity:1;fill-rule:evenodd;stroke:none;stroke-width:0.643563;stroke-linecap:butt;stroke-linejoin:miter;stroke-miterlimit:4;stroke-dasharray:none;stroke-dashoffset:0;stroke-opacity:1;paint-order:normal"
       id="path4954"
       cx="7.6199989"
       cy="16.062016"
       r="2.5742509"
       inkscape:label="Octave" />
    <circle
       r="2.5742495"
       cy="96.375008"
       cx="7.6199989"
       id="circle4956"
       style="display:inline;opacity:1;vector-effect:none;fill:#00ff00;fill-opacity:1;fill-rule:evenodd;stroke:none;stroke-width:0.643562;stroke-linecap:butt;stroke-linejoin:miter;stroke-miterlimit:4;stroke-dasharray:none;stroke-dashoffset:0;stroke-opacity:1;paint-order:normal"
       inkscape:label="Fine" />
    <circle
       style="display:inline;opacity:1;vector-effect:none;fill:#ff0000;fill-opacity:1;fill-rule:evenodd;stroke:none;stroke-width:0.551153;stroke-linecap:butt;stroke-linejoin:miter;stroke-miterlimit:4;stroke-dasharray:none;stroke-dashoffset:0;stroke-opacity:1;paint-order:normal"
       id="circle18798"
       cx="7.6199989"
       cy="32.125011"
       r="2.2046132"
       inkscape:label="Semi" />
    <circle
       style="display:inline;opacity:1;vector-effect:none;fill:#ff0000;fill-opacity:1;fill-rule:evenodd;stroke:none;stroke-width:0.524751;stroke-linecap:butt;stroke-linejoin:miter;stroke-miterlimit:4;stroke-dasharray:none;stroke-dashoffset:0;stroke-opacity:1;paint-order:normal"
       id="circle18800"
       cx="7.6199989"
       cy="48.187511"
       r="2.0990024"
       inkscape:label="Fine" />
    <circle
       r="2.5214543"
       cy="80.312508"
       cx="7.6199989"
       id="circle18806"
       style="display:inline;opacity:1;vector-effect:none;fill:#00ff00;fill-opacity:1;fill-rule:evenodd;stroke:none;stroke-width:0.630364;stroke-linecap:butt;stroke-linejoin:miter;stroke-miterlimit:4;stroke-dasharray:none;stroke-dashoffset:0;stroke-opacity:1;paint-order:normal"
       inkscape:label="VOct2" />
    <circle
       style="display:inline;opacity:1;vector-effect:none;fill:#0000ff;fill-opacity:1;fill-rule:evenodd;stroke:none;stroke-width:0.511551;stroke-linecap:butt;stroke-linejoin:miter;stroke-miterlimit:4;stroke-dasharray:none;stroke-dashoffset:0;stroke-opacity:1;paint-order:normal"
       id="circle24793"
       cx="7.6199989"
       cy="112.4375"
       r="2.0462041"
       inkscape:label="VOct" />
    <circle
       r="2.5214543"
       cy="72.281204"
       cx="7.6199989"
       id="circle929"
       style="display:inline;opacity:1;vector-effect:none;fill:#00ff00;fill-opacity:1;fill-rule:evenodd;stroke:none;stroke-width:0.630364;stroke-linecap:butt;stroke-linejoin:miter;stroke-miterlimit:4;stroke-dasharray:none;stroke-dashoffset:0;stroke-opacity:1;paint-order:normal"
       inkscape:label="VOct1" />
  </g>
</svg>
